<?xml version="1.0" encoding="utf-8" standalone="no"?>
<!DOCTYPE svg PUBLIC "-//W3C//DTD SVG 1.1//EN"
  "http://www.w3.org/Graphics/SVG/1.1/DTD/svg11.dtd">
<svg xmlns:xlink="http://www.w3.org/1999/xlink" width="460.8pt" height="345.6pt" viewBox="0 0 460.8 345.6" xmlns="http://www.w3.org/2000/svg" version="1.1">
 <metadata>
  <rdf:RDF xmlns:dc="http://purl.org/dc/elements/1.1/" xmlns:cc="http://creativecommons.org/ns#" xmlns:rdf="http://www.w3.org/1999/02/22-rdf-syntax-ns#">
   <cc:Work>
    <dc:type rdf:resource="http://purl.org/dc/dcmitype/StillImage"/>
    <dc:date>2023-03-07T12:42:07.897651</dc:date>
    <dc:format>image/svg+xml</dc:format>
    <dc:creator>
     <cc:Agent>
      <dc:title>Matplotlib v3.7.1, https://matplotlib.org/</dc:title>
     </cc:Agent>
    </dc:creator>
   </cc:Work>
  </rdf:RDF>
 </metadata>
 <defs>
  <style type="text/css">*{stroke-linejoin: round; stroke-linecap: butt}</style>
 </defs>
 <g id="figure_1">
  <g id="patch_1">
   <path d="M 0 345.6 
L 460.8 345.6 
L 460.8 0 
L 0 0 
z
" style="fill: #ffffff"/>
  </g>
  <g id="axes_1">
   <g id="patch_2">
    <path d="M 57.6 307.584 
L 414.72 307.584 
L 414.72 41.472 
L 57.6 41.472 
z
" style="fill: #ffffff"/>
   </g>
   <g id="matplotlib.axis_1">
    <g id="xtick_1">
     <g id="line2d_1">
      <defs>
       <path id="m902ce7346f" d="M 0 0 
L 0 3.5 
" style="stroke: #000000; stroke-width: 0.8"/>
      </defs>
      <g>
       <use xlink:href="#m902ce7346f" x="73.832727" y="307.584" style="stroke: #000000; stroke-width: 0.8"/>
      </g>
     </g>
     <g id="text_1">
      <!-- 0 -->
      <g transform="translate(70.651477 322.182437) scale(0.1 -0.1)">
       <defs>
        <path id="DejaVuSans-30" d="M 2034 4250 
Q 1547 4250 1301 3770 
Q 1056 3291 1056 2328 
Q 1056 1369 1301 889 
Q 1547 409 2034 409 
Q 2525 409 2770 889 
Q 3016 1369 3016 2328 
Q 3016 3291 2770 3770 
Q 2525 4250 2034 4250 
z
M 2034 4750 
Q 2819 4750 3233 4129 
Q 3647 3509 3647 2328 
Q 3647 1150 3233 529 
Q 2819 -91 2034 -91 
Q 1250 -91 836 529 
Q 422 1150 422 2328 
Q 422 3509 836 4129 
Q 1250 4750 2034 4750 
z
" transform="scale(0.015625)"/>
       </defs>
       <use xlink:href="#DejaVuSans-30"/>
      </g>
     </g>
    </g>
    <g id="xtick_2">
     <g id="line2d_2">
      <g>
       <use xlink:href="#m902ce7346f" x="138.828632" y="307.584" style="stroke: #000000; stroke-width: 0.8"/>
      </g>
     </g>
     <g id="text_2">
      <!-- 200 -->
      <g transform="translate(129.284882 322.182437) scale(0.1 -0.1)">
       <defs>
        <path id="DejaVuSans-32" d="M 1228 531 
L 3431 531 
L 3431 0 
L 469 0 
L 469 531 
Q 828 903 1448 1529 
Q 2069 2156 2228 2338 
Q 2531 2678 2651 2914 
Q 2772 3150 2772 3378 
Q 2772 3750 2511 3984 
Q 2250 4219 1831 4219 
Q 1534 4219 1204 4116 
Q 875 4013 500 3803 
L 500 4441 
Q 881 4594 1212 4672 
Q 1544 4750 1819 4750 
Q 2544 4750 2975 4387 
Q 3406 4025 3406 3419 
Q 3406 3131 3298 2873 
Q 3191 2616 2906 2266 
Q 2828 2175 2409 1742 
Q 1991 1309 1228 531 
z
" transform="scale(0.015625)"/>
       </defs>
       <use xlink:href="#DejaVuSans-32"/>
       <use xlink:href="#DejaVuSans-30" x="63.623047"/>
       <use xlink:href="#DejaVuSans-30" x="127.246094"/>
      </g>
     </g>
    </g>
    <g id="xtick_3">
     <g id="line2d_3">
      <g>
       <use xlink:href="#m902ce7346f" x="203.824537" y="307.584" style="stroke: #000000; stroke-width: 0.8"/>
      </g>
     </g>
     <g id="text_3">
      <!-- 400 -->
      <g transform="translate(194.280787 322.182437) scale(0.1 -0.1)">
       <defs>
        <path id="DejaVuSans-34" d="M 2419 4116 
L 825 1625 
L 2419 1625 
L 2419 4116 
z
M 2253 4666 
L 3047 4666 
L 3047 1625 
L 3713 1625 
L 3713 1100 
L 3047 1100 
L 3047 0 
L 2419 0 
L 2419 1100 
L 313 1100 
L 313 1709 
L 2253 4666 
z
" transform="scale(0.015625)"/>
       </defs>
       <use xlink:href="#DejaVuSans-34"/>
       <use xlink:href="#DejaVuSans-30" x="63.623047"/>
       <use xlink:href="#DejaVuSans-30" x="127.246094"/>
      </g>
     </g>
    </g>
    <g id="xtick_4">
     <g id="line2d_4">
      <g>
       <use xlink:href="#m902ce7346f" x="268.820442" y="307.584" style="stroke: #000000; stroke-width: 0.8"/>
      </g>
     </g>
     <g id="text_4">
      <!-- 600 -->
      <g transform="translate(259.276692 322.182437) scale(0.1 -0.1)">
       <defs>
        <path id="DejaVuSans-36" d="M 2113 2584 
Q 1688 2584 1439 2293 
Q 1191 2003 1191 1497 
Q 1191 994 1439 701 
Q 1688 409 2113 409 
Q 2538 409 2786 701 
Q 3034 994 3034 1497 
Q 3034 2003 2786 2293 
Q 2538 2584 2113 2584 
z
M 3366 4563 
L 3366 3988 
Q 3128 4100 2886 4159 
Q 2644 4219 2406 4219 
Q 1781 4219 1451 3797 
Q 1122 3375 1075 2522 
Q 1259 2794 1537 2939 
Q 1816 3084 2150 3084 
Q 2853 3084 3261 2657 
Q 3669 2231 3669 1497 
Q 3669 778 3244 343 
Q 2819 -91 2113 -91 
Q 1303 -91 875 529 
Q 447 1150 447 2328 
Q 447 3434 972 4092 
Q 1497 4750 2381 4750 
Q 2619 4750 2861 4703 
Q 3103 4656 3366 4563 
z
" transform="scale(0.015625)"/>
       </defs>
       <use xlink:href="#DejaVuSans-36"/>
       <use xlink:href="#DejaVuSans-30" x="63.623047"/>
       <use xlink:href="#DejaVuSans-30" x="127.246094"/>
      </g>
     </g>
    </g>
    <g id="xtick_5">
     <g id="line2d_5">
      <g>
       <use xlink:href="#m902ce7346f" x="333.816347" y="307.584" style="stroke: #000000; stroke-width: 0.8"/>
      </g>
     </g>
     <g id="text_5">
      <!-- 800 -->
      <g transform="translate(324.272597 322.182437) scale(0.1 -0.1)">
       <defs>
        <path id="DejaVuSans-38" d="M 2034 2216 
Q 1584 2216 1326 1975 
Q 1069 1734 1069 1313 
Q 1069 891 1326 650 
Q 1584 409 2034 409 
Q 2484 409 2743 651 
Q 3003 894 3003 1313 
Q 3003 1734 2745 1975 
Q 2488 2216 2034 2216 
z
M 1403 2484 
Q 997 2584 770 2862 
Q 544 3141 544 3541 
Q 544 4100 942 4425 
Q 1341 4750 2034 4750 
Q 2731 4750 3128 4425 
Q 3525 4100 3525 3541 
Q 3525 3141 3298 2862 
Q 3072 2584 2669 2484 
Q 3125 2378 3379 2068 
Q 3634 1759 3634 1313 
Q 3634 634 3220 271 
Q 2806 -91 2034 -91 
Q 1263 -91 848 271 
Q 434 634 434 1313 
Q 434 1759 690 2068 
Q 947 2378 1403 2484 
z
M 1172 3481 
Q 1172 3119 1398 2916 
Q 1625 2713 2034 2713 
Q 2441 2713 2670 2916 
Q 2900 3119 2900 3481 
Q 2900 3844 2670 4047 
Q 2441 4250 2034 4250 
Q 1625 4250 1398 4047 
Q 1172 3844 1172 3481 
z
" transform="scale(0.015625)"/>
       </defs>
       <use xlink:href="#DejaVuSans-38"/>
       <use xlink:href="#DejaVuSans-30" x="63.623047"/>
       <use xlink:href="#DejaVuSans-30" x="127.246094"/>
      </g>
     </g>
    </g>
    <g id="xtick_6">
     <g id="line2d_6">
      <g>
       <use xlink:href="#m902ce7346f" x="398.812252" y="307.584" style="stroke: #000000; stroke-width: 0.8"/>
      </g>
     </g>
     <g id="text_6">
      <!-- 1000 -->
      <g transform="translate(386.087252 322.182437) scale(0.1 -0.1)">
       <defs>
        <path id="DejaVuSans-31" d="M 794 531 
L 1825 531 
L 1825 4091 
L 703 3866 
L 703 4441 
L 1819 4666 
L 2450 4666 
L 2450 531 
L 3481 531 
L 3481 0 
L 794 0 
L 794 531 
z
" transform="scale(0.015625)"/>
       </defs>
       <use xlink:href="#DejaVuSans-31"/>
       <use xlink:href="#DejaVuSans-30" x="63.623047"/>
       <use xlink:href="#DejaVuSans-30" x="127.246094"/>
       <use xlink:href="#DejaVuSans-30" x="190.869141"/>
      </g>
     </g>
    </g>
    <g id="text_7">
     <!-- Requisições -->
     <g transform="translate(206.618594 336.030875) scale(0.1 -0.1)">
      <defs>
       <path id="DejaVuSans-52" d="M 2841 2188 
Q 3044 2119 3236 1894 
Q 3428 1669 3622 1275 
L 4263 0 
L 3584 0 
L 2988 1197 
Q 2756 1666 2539 1819 
Q 2322 1972 1947 1972 
L 1259 1972 
L 1259 0 
L 628 0 
L 628 4666 
L 2053 4666 
Q 2853 4666 3247 4331 
Q 3641 3997 3641 3322 
Q 3641 2881 3436 2590 
Q 3231 2300 2841 2188 
z
M 1259 4147 
L 1259 2491 
L 2053 2491 
Q 2509 2491 2742 2702 
Q 2975 2913 2975 3322 
Q 2975 3731 2742 3939 
Q 2509 4147 2053 4147 
L 1259 4147 
z
" transform="scale(0.015625)"/>
       <path id="DejaVuSans-65" d="M 3597 1894 
L 3597 1613 
L 953 1613 
Q 991 1019 1311 708 
Q 1631 397 2203 397 
Q 2534 397 2845 478 
Q 3156 559 3463 722 
L 3463 178 
Q 3153 47 2828 -22 
Q 2503 -91 2169 -91 
Q 1331 -91 842 396 
Q 353 884 353 1716 
Q 353 2575 817 3079 
Q 1281 3584 2069 3584 
Q 2775 3584 3186 3129 
Q 3597 2675 3597 1894 
z
M 3022 2063 
Q 3016 2534 2758 2815 
Q 2500 3097 2075 3097 
Q 1594 3097 1305 2825 
Q 1016 2553 972 2059 
L 3022 2063 
z
" transform="scale(0.015625)"/>
       <path id="DejaVuSans-71" d="M 947 1747 
Q 947 1113 1208 752 
Q 1469 391 1925 391 
Q 2381 391 2643 752 
Q 2906 1113 2906 1747 
Q 2906 2381 2643 2742 
Q 2381 3103 1925 3103 
Q 1469 3103 1208 2742 
Q 947 2381 947 1747 
z
M 2906 525 
Q 2725 213 2448 61 
Q 2172 -91 1784 -91 
Q 1150 -91 751 415 
Q 353 922 353 1747 
Q 353 2572 751 3078 
Q 1150 3584 1784 3584 
Q 2172 3584 2448 3432 
Q 2725 3281 2906 2969 
L 2906 3500 
L 3481 3500 
L 3481 -1331 
L 2906 -1331 
L 2906 525 
z
" transform="scale(0.015625)"/>
       <path id="DejaVuSans-75" d="M 544 1381 
L 544 3500 
L 1119 3500 
L 1119 1403 
Q 1119 906 1312 657 
Q 1506 409 1894 409 
Q 2359 409 2629 706 
Q 2900 1003 2900 1516 
L 2900 3500 
L 3475 3500 
L 3475 0 
L 2900 0 
L 2900 538 
Q 2691 219 2414 64 
Q 2138 -91 1772 -91 
Q 1169 -91 856 284 
Q 544 659 544 1381 
z
M 1991 3584 
L 1991 3584 
z
" transform="scale(0.015625)"/>
       <path id="DejaVuSans-69" d="M 603 3500 
L 1178 3500 
L 1178 0 
L 603 0 
L 603 3500 
z
M 603 4863 
L 1178 4863 
L 1178 4134 
L 603 4134 
L 603 4863 
z
" transform="scale(0.015625)"/>
       <path id="DejaVuSans-73" d="M 2834 3397 
L 2834 2853 
Q 2591 2978 2328 3040 
Q 2066 3103 1784 3103 
Q 1356 3103 1142 2972 
Q 928 2841 928 2578 
Q 928 2378 1081 2264 
Q 1234 2150 1697 2047 
L 1894 2003 
Q 2506 1872 2764 1633 
Q 3022 1394 3022 966 
Q 3022 478 2636 193 
Q 2250 -91 1575 -91 
Q 1294 -91 989 -36 
Q 684 19 347 128 
L 347 722 
Q 666 556 975 473 
Q 1284 391 1588 391 
Q 1994 391 2212 530 
Q 2431 669 2431 922 
Q 2431 1156 2273 1281 
Q 2116 1406 1581 1522 
L 1381 1569 
Q 847 1681 609 1914 
Q 372 2147 372 2553 
Q 372 3047 722 3315 
Q 1072 3584 1716 3584 
Q 2034 3584 2315 3537 
Q 2597 3491 2834 3397 
z
" transform="scale(0.015625)"/>
       <path id="DejaVuSans-e7" d="M 3122 3366 
L 3122 2828 
Q 2878 2963 2633 3030 
Q 2388 3097 2138 3097 
Q 1578 3097 1268 2742 
Q 959 2388 959 1747 
Q 959 1106 1268 751 
Q 1578 397 2138 397 
Q 2388 397 2633 464 
Q 2878 531 3122 666 
L 3122 134 
Q 2881 22 2623 -34 
Q 2366 -91 2075 -91 
Q 1284 -91 818 406 
Q 353 903 353 1747 
Q 353 2603 823 3093 
Q 1294 3584 2113 3584 
Q 2378 3584 2631 3529 
Q 2884 3475 3122 3366 
z
M 2311 0 
Q 2482 -194 2566 -358 
Q 2651 -522 2651 -672 
Q 2651 -950 2463 -1092 
Q 2276 -1234 1907 -1234 
Q 1764 -1234 1628 -1215 
Q 1492 -1197 1357 -1159 
L 1357 -750 
Q 1464 -803 1579 -826 
Q 1695 -850 1842 -850 
Q 2026 -850 2120 -775 
Q 2214 -700 2214 -556 
Q 2214 -463 2146 -327 
Q 2079 -191 1939 0 
L 2311 0 
z
" transform="scale(0.015625)"/>
       <path id="DejaVuSans-f5" d="M 1959 3097 
Q 1497 3097 1228 2736 
Q 959 2375 959 1747 
Q 959 1119 1226 758 
Q 1494 397 1959 397 
Q 2419 397 2687 759 
Q 2956 1122 2956 1747 
Q 2956 2369 2687 2733 
Q 2419 3097 1959 3097 
z
M 1959 3584 
Q 2709 3584 3137 3096 
Q 3566 2609 3566 1747 
Q 3566 888 3137 398 
Q 2709 -91 1959 -91 
Q 1206 -91 779 398 
Q 353 888 353 1747 
Q 353 2609 779 3096 
Q 1206 3584 1959 3584 
z
M 1948 4281 
L 1769 4453 
Q 1701 4516 1649 4545 
Q 1598 4575 1557 4575 
Q 1438 4575 1382 4461 
Q 1326 4347 1319 4091 
L 929 4091 
Q 935 4513 1094 4742 
Q 1254 4972 1538 4972 
Q 1657 4972 1757 4928 
Q 1857 4884 1973 4781 
L 2151 4609 
Q 2219 4547 2271 4517 
Q 2323 4488 2363 4488 
Q 2482 4488 2538 4602 
Q 2594 4716 2601 4972 
L 2991 4972 
Q 2985 4550 2825 4320 
Q 2666 4091 2382 4091 
Q 2263 4091 2163 4134 
Q 2063 4178 1948 4281 
z
" transform="scale(0.015625)"/>
      </defs>
      <use xlink:href="#DejaVuSans-52"/>
      <use xlink:href="#DejaVuSans-65" x="64.982422"/>
      <use xlink:href="#DejaVuSans-71" x="126.505859"/>
      <use xlink:href="#DejaVuSans-75" x="189.982422"/>
      <use xlink:href="#DejaVuSans-69" x="253.361328"/>
      <use xlink:href="#DejaVuSans-73" x="281.144531"/>
      <use xlink:href="#DejaVuSans-69" x="333.244141"/>
      <use xlink:href="#DejaVuSans-e7" x="361.027344"/>
      <use xlink:href="#DejaVuSans-f5" x="416.007812"/>
      <use xlink:href="#DejaVuSans-65" x="477.189453"/>
      <use xlink:href="#DejaVuSans-73" x="538.712891"/>
     </g>
    </g>
   </g>
   <g id="matplotlib.axis_2">
    <g id="ytick_1">
     <g id="line2d_7">
      <defs>
       <path id="m25b24c03e3" d="M 0 0 
L -3.5 0 
" style="stroke: #000000; stroke-width: 0.8"/>
      </defs>
      <g>
       <use xlink:href="#m25b24c03e3" x="57.6" y="290.966668" style="stroke: #000000; stroke-width: 0.8"/>
      </g>
     </g>
     <g id="text_8">
      <!-- 0.700 -->
      <g transform="translate(21.971875 294.765887) scale(0.1 -0.1)">
       <defs>
        <path id="DejaVuSans-2e" d="M 684 794 
L 1344 794 
L 1344 0 
L 684 0 
L 684 794 
z
" transform="scale(0.015625)"/>
        <path id="DejaVuSans-37" d="M 525 4666 
L 3525 4666 
L 3525 4397 
L 1831 0 
L 1172 0 
L 2766 4134 
L 525 4134 
L 525 4666 
z
" transform="scale(0.015625)"/>
       </defs>
       <use xlink:href="#DejaVuSans-30"/>
       <use xlink:href="#DejaVuSans-2e" x="63.623047"/>
       <use xlink:href="#DejaVuSans-37" x="95.410156"/>
       <use xlink:href="#DejaVuSans-30" x="159.033203"/>
       <use xlink:href="#DejaVuSans-30" x="222.65625"/>
      </g>
     </g>
    </g>
    <g id="ytick_2">
     <g id="line2d_8">
      <g>
       <use xlink:href="#m25b24c03e3" x="57.6" y="257.748447" style="stroke: #000000; stroke-width: 0.8"/>
      </g>
     </g>
     <g id="text_9">
      <!-- 0.725 -->
      <g transform="translate(21.971875 261.547666) scale(0.1 -0.1)">
       <defs>
        <path id="DejaVuSans-35" d="M 691 4666 
L 3169 4666 
L 3169 4134 
L 1269 4134 
L 1269 2991 
Q 1406 3038 1543 3061 
Q 1681 3084 1819 3084 
Q 2600 3084 3056 2656 
Q 3513 2228 3513 1497 
Q 3513 744 3044 326 
Q 2575 -91 1722 -91 
Q 1428 -91 1123 -41 
Q 819 9 494 109 
L 494 744 
Q 775 591 1075 516 
Q 1375 441 1709 441 
Q 2250 441 2565 725 
Q 2881 1009 2881 1497 
Q 2881 1984 2565 2268 
Q 2250 2553 1709 2553 
Q 1456 2553 1204 2497 
Q 953 2441 691 2322 
L 691 4666 
z
" transform="scale(0.015625)"/>
       </defs>
       <use xlink:href="#DejaVuSans-30"/>
       <use xlink:href="#DejaVuSans-2e" x="63.623047"/>
       <use xlink:href="#DejaVuSans-37" x="95.410156"/>
       <use xlink:href="#DejaVuSans-32" x="159.033203"/>
       <use xlink:href="#DejaVuSans-35" x="222.65625"/>
      </g>
     </g>
    </g>
    <g id="ytick_3">
     <g id="line2d_9">
      <g>
       <use xlink:href="#m25b24c03e3" x="57.6" y="224.530226" style="stroke: #000000; stroke-width: 0.8"/>
      </g>
     </g>
     <g id="text_10">
      <!-- 0.750 -->
      <g transform="translate(21.971875 228.329444) scale(0.1 -0.1)">
       <use xlink:href="#DejaVuSans-30"/>
       <use xlink:href="#DejaVuSans-2e" x="63.623047"/>
       <use xlink:href="#DejaVuSans-37" x="95.410156"/>
       <use xlink:href="#DejaVuSans-35" x="159.033203"/>
       <use xlink:href="#DejaVuSans-30" x="222.65625"/>
      </g>
     </g>
    </g>
    <g id="ytick_4">
     <g id="line2d_10">
      <g>
       <use xlink:href="#m25b24c03e3" x="57.6" y="191.312005" style="stroke: #000000; stroke-width: 0.8"/>
      </g>
     </g>
     <g id="text_11">
      <!-- 0.775 -->
      <g transform="translate(21.971875 195.111223) scale(0.1 -0.1)">
       <use xlink:href="#DejaVuSans-30"/>
       <use xlink:href="#DejaVuSans-2e" x="63.623047"/>
       <use xlink:href="#DejaVuSans-37" x="95.410156"/>
       <use xlink:href="#DejaVuSans-37" x="159.033203"/>
       <use xlink:href="#DejaVuSans-35" x="222.65625"/>
      </g>
     </g>
    </g>
    <g id="ytick_5">
     <g id="line2d_11">
      <g>
       <use xlink:href="#m25b24c03e3" x="57.6" y="158.093783" style="stroke: #000000; stroke-width: 0.8"/>
      </g>
     </g>
     <g id="text_12">
      <!-- 0.800 -->
      <g transform="translate(21.971875 161.893002) scale(0.1 -0.1)">
       <use xlink:href="#DejaVuSans-30"/>
       <use xlink:href="#DejaVuSans-2e" x="63.623047"/>
       <use xlink:href="#DejaVuSans-38" x="95.410156"/>
       <use xlink:href="#DejaVuSans-30" x="159.033203"/>
       <use xlink:href="#DejaVuSans-30" x="222.65625"/>
      </g>
     </g>
    </g>
    <g id="ytick_6">
     <g id="line2d_12">
      <g>
       <use xlink:href="#m25b24c03e3" x="57.6" y="124.875562" style="stroke: #000000; stroke-width: 0.8"/>
      </g>
     </g>
     <g id="text_13">
      <!-- 0.825 -->
      <g transform="translate(21.971875 128.674781) scale(0.1 -0.1)">
       <use xlink:href="#DejaVuSans-30"/>
       <use xlink:href="#DejaVuSans-2e" x="63.623047"/>
       <use xlink:href="#DejaVuSans-38" x="95.410156"/>
       <use xlink:href="#DejaVuSans-32" x="159.033203"/>
       <use xlink:href="#DejaVuSans-35" x="222.65625"/>
      </g>
     </g>
    </g>
    <g id="ytick_7">
     <g id="line2d_13">
      <g>
       <use xlink:href="#m25b24c03e3" x="57.6" y="91.657341" style="stroke: #000000; stroke-width: 0.8"/>
      </g>
     </g>
     <g id="text_14">
      <!-- 0.850 -->
      <g transform="translate(21.971875 95.45656) scale(0.1 -0.1)">
       <use xlink:href="#DejaVuSans-30"/>
       <use xlink:href="#DejaVuSans-2e" x="63.623047"/>
       <use xlink:href="#DejaVuSans-38" x="95.410156"/>
       <use xlink:href="#DejaVuSans-35" x="159.033203"/>
       <use xlink:href="#DejaVuSans-30" x="222.65625"/>
      </g>
     </g>
    </g>
    <g id="ytick_8">
     <g id="line2d_14">
      <g>
       <use xlink:href="#m25b24c03e3" x="57.6" y="58.43912" style="stroke: #000000; stroke-width: 0.8"/>
      </g>
     </g>
     <g id="text_15">
      <!-- 0.875 -->
      <g transform="translate(21.971875 62.238339) scale(0.1 -0.1)">
       <use xlink:href="#DejaVuSans-30"/>
       <use xlink:href="#DejaVuSans-2e" x="63.623047"/>
       <use xlink:href="#DejaVuSans-38" x="95.410156"/>
       <use xlink:href="#DejaVuSans-37" x="159.033203"/>
       <use xlink:href="#DejaVuSans-35" x="222.65625"/>
      </g>
     </g>
    </g>
    <g id="text_16">
     <!-- Tempo -->
     <g transform="translate(15.892187 190.912375) rotate(-90) scale(0.1 -0.1)">
      <defs>
       <path id="DejaVuSans-54" d="M -19 4666 
L 3928 4666 
L 3928 4134 
L 2272 4134 
L 2272 0 
L 1638 0 
L 1638 4134 
L -19 4134 
L -19 4666 
z
" transform="scale(0.015625)"/>
       <path id="DejaVuSans-6d" d="M 3328 2828 
Q 3544 3216 3844 3400 
Q 4144 3584 4550 3584 
Q 5097 3584 5394 3201 
Q 5691 2819 5691 2113 
L 5691 0 
L 5113 0 
L 5113 2094 
Q 5113 2597 4934 2840 
Q 4756 3084 4391 3084 
Q 3944 3084 3684 2787 
Q 3425 2491 3425 1978 
L 3425 0 
L 2847 0 
L 2847 2094 
Q 2847 2600 2669 2842 
Q 2491 3084 2119 3084 
Q 1678 3084 1418 2786 
Q 1159 2488 1159 1978 
L 1159 0 
L 581 0 
L 581 3500 
L 1159 3500 
L 1159 2956 
Q 1356 3278 1631 3431 
Q 1906 3584 2284 3584 
Q 2666 3584 2933 3390 
Q 3200 3197 3328 2828 
z
" transform="scale(0.015625)"/>
       <path id="DejaVuSans-70" d="M 1159 525 
L 1159 -1331 
L 581 -1331 
L 581 3500 
L 1159 3500 
L 1159 2969 
Q 1341 3281 1617 3432 
Q 1894 3584 2278 3584 
Q 2916 3584 3314 3078 
Q 3713 2572 3713 1747 
Q 3713 922 3314 415 
Q 2916 -91 2278 -91 
Q 1894 -91 1617 61 
Q 1341 213 1159 525 
z
M 3116 1747 
Q 3116 2381 2855 2742 
Q 2594 3103 2138 3103 
Q 1681 3103 1420 2742 
Q 1159 2381 1159 1747 
Q 1159 1113 1420 752 
Q 1681 391 2138 391 
Q 2594 391 2855 752 
Q 3116 1113 3116 1747 
z
" transform="scale(0.015625)"/>
       <path id="DejaVuSans-6f" d="M 1959 3097 
Q 1497 3097 1228 2736 
Q 959 2375 959 1747 
Q 959 1119 1226 758 
Q 1494 397 1959 397 
Q 2419 397 2687 759 
Q 2956 1122 2956 1747 
Q 2956 2369 2687 2733 
Q 2419 3097 1959 3097 
z
M 1959 3584 
Q 2709 3584 3137 3096 
Q 3566 2609 3566 1747 
Q 3566 888 3137 398 
Q 2709 -91 1959 -91 
Q 1206 -91 779 398 
Q 353 888 353 1747 
Q 353 2609 779 3096 
Q 1206 3584 1959 3584 
z
" transform="scale(0.015625)"/>
      </defs>
      <use xlink:href="#DejaVuSans-54"/>
      <use xlink:href="#DejaVuSans-65" x="44.083984"/>
      <use xlink:href="#DejaVuSans-6d" x="105.607422"/>
      <use xlink:href="#DejaVuSans-70" x="203.019531"/>
      <use xlink:href="#DejaVuSans-6f" x="266.496094"/>
     </g>
    </g>
   </g>
   <g id="line2d_15">
    <path d="M 73.832727 53.568 
L 74.157707 232.157129 
L 74.482686 255.751367 
L 74.807666 295.488 
L 75.132645 243.396049 
L 75.457625 269.538701 
L 76.107584 212.483638 
L 76.432563 234.265527 
L 76.757543 227.411707 
L 77.082523 245.855961 
L 77.407502 232.896456 
L 78.057461 260.983807 
L 78.70742 279.469509 
L 79.0324 270.749042 
L 79.357379 282.231678 
L 79.682359 274.645332 
L 80.332318 287.093803 
L 80.657297 279.846717 
L 80.982277 283.524053 
L 81.957215 267.201279 
L 82.282195 270.44578 
L 82.932154 261.22014 
L 83.582113 271.247089 
L 83.907093 275.022337 
L 84.232072 270.886314 
L 84.557052 268.283977 
L 84.882031 263.856234 
L 85.207011 266.987689 
L 85.53199 263.882829 
L 85.85697 268.90914 
L 86.831908 258.319897 
L 87.156888 262.499317 
L 87.481867 259.112433 
L 87.806847 231.397459 
L 88.131826 229.778203 
L 88.456806 232.576054 
L 88.781785 230.349804 
L 89.106765 233.978097 
L 89.431744 215.658059 
L 89.756724 214.436564 
L 90.731663 225.339196 
L 91.056642 223.56296 
L 91.381622 226.768457 
L 91.706601 225.030777 
L 92.031581 221.836286 
L 92.35656 219.817224 
L 92.68154 223.012817 
L 93.006519 221.707784 
L 93.331499 224.976134 
L 93.656478 223.549431 
L 94.306437 217.373048 
L 94.631417 220.646024 
L 94.956396 218.704837 
L 95.281376 217.455677 
L 95.606355 219.335091 
L 95.931335 222.793096 
L 96.256314 220.671996 
L 96.581294 224.053231 
L 96.906274 223.057625 
L 97.231253 224.920453 
L 97.881212 231.773286 
L 98.206192 234.121445 
L 98.531171 232.77416 
L 98.856151 235.740541 
L 99.18113 232.821477 
L 99.50611 234.857887 
L 99.831089 233.164667 
L 100.156069 236.002033 
L 100.481048 234.531696 
L 101.131007 232.884225 
L 101.455987 234.854356 
L 101.780966 233.727366 
L 102.105946 236.174526 
L 102.430925 236.901751 
L 103.080885 240.954073 
L 103.405864 239.976684 
L 104.055823 243.420354 
L 104.380803 241.977652 
L 104.705782 242.737216 
L 105.030762 241.355604 
L 105.680721 243.303057 
L 106.0057 242.063494 
L 107.305618 248.427938 
L 108.280557 253.776231 
L 108.930516 256.659986 
L 109.580475 254.11812 
L 109.905455 254.571966 
L 110.230434 255.88832 
L 110.555414 254.872821 
L 110.880393 255.893819 
L 111.530352 259.34852 
L 111.855332 258.288474 
L 112.180311 259.968619 
L 112.505291 260.427773 
L 112.83027 259.271785 
L 113.15525 260.907521 
L 113.480229 259.935318 
L 113.805209 261.075037 
L 114.130188 262.848395 
L 114.780147 260.782395 
L 115.105127 261.647114 
L 115.430106 263.351779 
L 115.755086 264.155465 
L 116.405045 262.371336 
L 117.379984 265.992077 
L 117.704963 264.946591 
L 118.029943 265.211441 
L 118.354922 266.242298 
L 118.679902 265.088326 
L 119.004881 266.370492 
L 119.65484 264.05669 
L 120.629779 267.748167 
L 120.954758 264.845342 
L 121.279738 265.833536 
L 121.604717 265.065595 
L 122.254676 267.295789 
L 122.579656 266.47552 
L 122.904636 267.153426 
L 123.229615 268.208556 
L 123.879574 266.560988 
L 124.529533 268.916066 
L 124.854513 268.005872 
L 125.179492 268.898045 
L 125.504472 267.50233 
L 125.829451 266.773759 
L 126.154431 266.978798 
L 126.47941 266.286011 
L 126.80439 267.099376 
L 127.779328 264.773587 
L 128.429287 266.833626 
L 129.079247 264.945503 
L 129.729206 266.626091 
L 130.054185 265.933164 
L 130.379165 267.169863 
L 130.704144 266.281347 
L 131.029124 267.306151 
L 131.679083 265.8342 
L 132.004062 266.930354 
L 132.654021 265.415366 
L 132.979001 264.806146 
L 133.30398 265.318446 
L 133.62896 266.3842 
L 133.953939 265.751716 
L 134.928878 263.201093 
L 135.253857 263.414475 
L 135.903817 264.977133 
L 136.228796 265.346394 
L 136.553776 264.575462 
L 136.878755 265.609295 
L 137.203735 264.499704 
L 137.528714 265.20238 
L 137.853694 264.340042 
L 138.503653 265.771325 
L 139.153612 266.661955 
L 139.478591 267.616464 
L 140.12855 266.385126 
L 140.45353 265.659311 
L 140.778509 264.616903 
L 141.103489 265.318362 
L 141.428468 264.332972 
L 141.753448 263.734142 
L 142.403407 265.457932 
L 143.378346 267.527866 
L 143.703325 266.839259 
L 144.028305 265.706565 
L 144.353284 265.238973 
L 145.003243 263.809606 
L 145.328223 264.500975 
L 145.653202 264.046508 
L 145.978182 263.385749 
L 147.2781 266.06163 
L 147.928059 264.956963 
L 148.253038 265.607664 
L 149.227977 264.021518 
L 149.552957 264.813412 
L 149.877936 264.28568 
L 150.527895 265.677987 
L 150.852875 265.159387 
L 151.502834 266.658382 
L 152.152793 265.117143 
L 152.477772 265.792577 
L 152.802752 265.396545 
L 153.452711 263.915888 
L 153.77769 264.500902 
L 154.10267 264.065481 
L 154.427649 264.678584 
L 154.752629 264.827903 
L 155.402588 266.024893 
L 155.727568 265.563085 
L 156.052547 265.915667 
L 156.377527 265.32996 
L 156.702506 265.599412 
L 157.027486 264.993106 
L 157.352465 265.526892 
L 157.677445 264.971848 
L 158.002424 265.534512 
L 158.327404 264.782707 
L 158.977363 263.937398 
L 159.627322 264.897921 
L 159.952301 264.365222 
L 160.277281 264.886796 
L 160.60226 264.540527 
L 161.252219 265.633001 
L 161.577199 265.191456 
L 162.227158 266.500847 
L 162.552138 267.02473 
L 163.852056 265.072171 
L 164.826994 266.997591 
L 165.151974 267.773211 
L 166.451892 265.658147 
L 166.776871 266.038701 
L 167.101851 265.614074 
L 167.75181 266.4753 
L 168.07679 265.950316 
L 168.401769 266.391209 
L 169.376708 265.206687 
L 169.701687 264.378189 
L 170.676626 263.017897 
L 171.326585 264.150095 
L 171.651564 263.708733 
L 171.976544 262.963659 
L 172.951482 261.657346 
L 173.276462 262.134282 
L 173.601441 262.852862 
L 173.926421 262.194103 
L 174.90136 263.814775 
L 175.226339 263.344866 
L 175.876298 264.612027 
L 176.851237 263.178285 
L 177.176216 263.646287 
L 178.151155 262.199482 
L 178.801114 262.801065 
L 179.126093 262.972927 
L 179.451073 263.577959 
L 180.101032 262.860735 
L 180.750991 262.224673 
L 181.40095 262.97533 
L 181.72593 262.401879 
L 182.050909 262.131756 
L 183.025848 260.869173 
L 183.350827 261.43931 
L 183.675807 260.870187 
L 184.650745 262.031942 
L 185.300704 261.357522 
L 185.950663 262.050276 
L 186.600622 261.263507 
L 187.575561 262.62682 
L 187.900541 262.320354 
L 188.5505 263.151253 
L 189.525438 262.1536 
L 190.175397 263.075458 
L 190.825356 262.424155 
L 191.475315 263.419568 
L 191.800295 262.944762 
L 192.450254 263.939002 
L 192.775233 263.618908 
L 193.100213 263.063846 
L 193.425192 263.594047 
L 193.750172 263.27138 
L 194.075152 263.69963 
L 194.400131 263.941798 
L 194.725111 264.327603 
L 196.025029 262.906893 
L 196.999967 264.32991 
L 197.974906 263.330773 
L 198.299885 263.840842 
L 198.949844 263.227512 
L 199.274824 263.650173 
L 199.599803 263.318684 
L 199.924783 263.738527 
L 200.249762 263.73174 
L 200.574742 264.154153 
L 200.899722 263.714287 
L 201.87466 264.937563 
L 202.19964 264.644872 
L 202.849599 265.219145 
L 203.499558 266.07579 
L 204.149517 265.255973 
L 205.449435 266.755209 
L 206.424373 268.156773 
L 206.749353 268.244209 
L 207.074333 268.587777 
L 207.399312 269.110843 
L 207.724292 268.634439 
L 208.049271 268.696412 
L 208.374251 268.102168 
L 209.02421 267.426962 
L 209.674169 268.281781 
L 209.999148 268.006746 
L 210.324128 268.293381 
L 210.974087 267.756263 
L 211.624046 268.517012 
L 212.274005 267.810419 
L 212.923964 268.495611 
L 213.248943 268.574883 
L 213.898903 269.279955 
L 214.223882 268.994228 
L 214.873841 269.862306 
L 215.198821 269.605231 
L 215.5238 269.068876 
L 215.84878 269.433853 
L 216.498739 269.796074 
L 216.823718 270.234334 
L 217.473677 269.644718 
L 217.798657 269.151897 
L 218.123636 269.585605 
L 218.773595 268.879238 
L 219.098575 269.292283 
L 219.423554 268.953617 
L 219.748534 269.338435 
L 220.398493 268.835942 
L 221.048452 269.46607 
L 221.698411 268.875009 
L 222.023391 269.111128 
L 222.34837 268.771361 
L 223.323309 269.7459 
L 223.648288 269.489963 
L 224.298247 269.833817 
L 224.623227 270.282703 
L 225.273186 269.374764 
L 225.598165 269.58394 
L 225.923145 269.194304 
L 226.248124 269.639609 
L 226.573104 269.326462 
L 226.898084 268.855508 
L 227.223063 269.138207 
L 227.873022 268.263433 
L 228.198002 268.593105 
L 228.847961 268.064895 
L 229.49792 268.760533 
L 230.147879 268.297647 
L 231.447797 269.603059 
L 231.772776 270.037153 
L 232.097756 270.245106 
L 232.422735 269.922652 
L 233.072695 270.713858 
L 234.047633 269.664694 
L 234.372613 269.915134 
L 234.697592 269.644194 
L 235.347551 270.237999 
L 235.672531 270.608473 
L 236.32249 270.143988 
L 237.297428 270.862647 
L 238.272367 270.013039 
L 238.597346 270.25863 
L 239.247305 269.72601 
L 239.572285 270.016938 
L 239.897265 269.818679 
L 240.547224 270.417651 
L 240.872203 270.059767 
L 241.197183 270.321005 
L 241.522162 270.38546 
L 242.172121 270.977471 
L 242.82208 270.224423 
L 243.14706 270.591001 
L 243.472039 270.659423 
L 244.446978 271.427867 
L 245.421916 270.659193 
L 245.746896 270.934125 
L 246.071876 271.053912 
L 247.371794 269.706746 
L 247.696773 269.998372 
L 248.996691 268.879811 
L 249.321671 269.233615 
L 249.64665 269.38515 
L 249.97163 269.197083 
L 250.296609 268.825898 
L 250.621589 269.113362 
L 250.946568 268.909767 
L 251.271548 269.188931 
L 252.246486 268.262342 
L 252.571466 268.609947 
L 253.221425 267.961835 
L 253.546405 267.711637 
L 253.871384 267.961808 
L 254.196364 267.649917 
L 254.846323 267.898335 
L 255.171302 267.556976 
L 256.146241 268.316269 
L 256.7962 268.981424 
L 257.121179 268.73825 
L 257.771138 269.19269 
L 258.746077 269.940424 
L 259.071057 269.736816 
L 259.396036 269.853798 
L 259.721016 267.826243 
L 260.045995 267.501099 
L 260.695954 268.186299 
L 261.670893 269.050229 
L 261.995872 268.812481 
L 262.320852 269.052023 
L 262.970811 268.595093 
L 263.29579 268.666912 
L 263.945749 269.182138 
L 264.595708 268.513514 
L 264.920688 268.574875 
L 265.245667 268.337738 
L 265.570647 268.602223 
L 266.545586 267.87039 
L 267.520524 268.381418 
L 267.845504 267.992897 
L 268.170483 268.169361 
L 268.820442 267.814178 
L 269.470401 268.260323 
L 270.44534 269.071218 
L 272.070238 268.071119 
L 272.395217 268.184357 
L 272.720197 267.992842 
L 273.045176 267.585741 
L 273.370156 267.829355 
L 273.695135 267.568215 
L 274.345094 268.137156 
L 274.670074 267.940561 
L 274.995053 268.163291 
L 275.320033 266.631566 
L 275.645012 266.688113 
L 275.969992 266.939162 
L 277.26991 265.922187 
L 277.594889 266.047156 
L 278.244848 266.546884 
L 278.569828 266.384955 
L 278.894808 266.028433 
L 279.219787 266.288926 
L 279.544767 266.12035 
L 279.869746 266.350809 
L 280.194726 266.140527 
L 280.519705 266.251523 
L 280.844685 265.880928 
L 281.169664 266.024298 
L 281.494644 265.790935 
L 282.469582 266.325538 
L 282.794562 266.113133 
L 283.444521 266.644685 
L 283.7695 266.810718 
L 284.09448 266.65165 
L 284.419459 266.882467 
L 285.069419 266.476916 
L 285.394398 266.805686 
L 285.719378 266.595954 
L 286.044357 266.829321 
L 286.369337 266.545459 
L 286.694316 266.786906 
L 287.994234 265.58208 
L 288.319214 265.910957 
L 288.644193 265.699771 
L 289.619132 266.602552 
L 289.944111 266.766364 
L 290.91905 267.633133 
L 291.244029 267.957328 
L 292.543948 267.061068 
L 292.868927 267.221535 
L 293.518886 267.776905 
L 294.168845 267.401153 
L 294.493825 267.725557 
L 295.143784 268.118737 
L 295.468763 267.944645 
L 296.118722 268.250475 
L 297.093661 269.10284 
L 297.74362 268.753091 
L 298.0686 268.994429 
L 298.393579 268.688125 
L 298.718559 268.905098 
L 299.693497 268.37599 
L 300.668436 269.05297 
L 300.993415 268.865454 
L 301.318395 269.155165 
L 301.643374 268.968087 
L 302.618313 269.584935 
L 302.943292 269.418226 
L 303.593251 268.820682 
L 304.56819 268.193683 
L 304.89317 268.282307 
L 306.193088 269.167188 
L 306.843047 268.804307 
L 307.168026 269.054893 
L 307.817985 268.689445 
L 308.142965 268.808988 
L 308.467944 268.630791 
L 308.792924 268.680141 
L 309.117903 268.916779 
L 309.767862 268.587767 
L 310.092842 268.745972 
L 310.417821 268.590393 
L 311.39276 268.988632 
L 312.042719 268.655804 
L 312.692678 269.088613 
L 313.017658 268.922943 
L 314.642555 269.916328 
L 315.617494 269.367551 
L 315.942473 269.41815 
L 316.267453 269.246733 
L 316.592432 269.437054 
L 316.917412 269.274802 
L 317.242391 269.490656 
L 317.567371 269.165271 
L 317.892351 269.245902 
L 318.54231 269.777922 
L 318.867289 269.628511 
L 319.192269 269.907455 
L 319.842228 269.477094 
L 320.167207 269.679924 
L 320.817166 269.335849 
L 321.142146 269.510987 
L 321.467125 269.352391 
L 321.792105 269.557944 
L 322.442064 269.166937 
L 322.767043 269.35928 
L 323.092023 269.22852 
L 323.417002 269.419159 
L 324.066962 268.921566 
L 324.716921 268.583488 
L 325.691859 269.105945 
L 326.991777 268.211549 
L 327.641736 267.859397 
L 327.966716 268.058395 
L 328.616675 267.734921 
L 328.941654 268.025329 
L 329.916593 267.340827 
L 330.566552 267.888722 
L 331.216511 267.460791 
L 331.541491 267.629726 
L 331.86647 267.420812 
L 332.19145 267.546864 
L 332.841409 268.013741 
L 333.166388 268.135925 
L 333.491368 267.993974 
L 334.141327 268.438627 
L 335.116265 267.970559 
L 335.441245 267.798657 
L 336.416183 268.517515 
L 337.716102 269.124338 
L 338.69104 268.642813 
L 339.01602 268.406867 
L 339.665979 268.838736 
L 340.315938 268.443895 
L 340.965897 268.73902 
L 341.290876 268.449395 
L 341.615856 268.679414 
L 342.265815 268.350901 
L 342.590794 268.530568 
L 343.240753 268.260919 
L 343.565733 268.441834 
L 344.865651 267.882436 
L 345.190631 268.113598 
L 345.51561 267.890458 
L 345.84059 268.070188 
L 346.490549 267.665815 
L 346.815528 267.834475 
L 347.140508 267.525876 
L 347.465487 267.387519 
L 348.115446 267.728315 
L 348.440426 267.58872 
L 348.765405 267.750595 
L 349.415364 267.443673 
L 350.065324 267.68768 
L 350.390303 267.536979 
L 351.040262 268.016611 
L 352.015201 267.392776 
L 352.66516 267.761019 
L 352.990139 267.560114 
L 353.640098 267.907219 
L 354.615037 267.493621 
L 354.940016 267.723269 
L 355.914955 267.265769 
L 356.889894 267.635914 
L 357.539853 267.334736 
L 358.189812 267.743019 
L 359.48973 268.476732 
L 360.139689 268.13802 
L 360.464668 268.316416 
L 360.789648 268.038799 
L 362.089566 268.726005 
L 362.739525 268.459012 
L 363.714464 269.046816 
L 364.039443 268.795209 
L 365.014382 269.053141 
L 365.339361 269.285289 
L 365.664341 269.36231 
L 365.98932 269.23358 
L 366.3143 269.440231 
L 366.964259 269.175381 
L 367.289238 269.386899 
L 367.614218 269.265146 
L 368.589156 269.716231 
L 369.239115 269.381544 
L 369.889075 269.693796 
L 370.214054 269.450684 
L 370.539034 269.663638 
L 371.188993 269.40357 
L 371.513972 269.566938 
L 372.163931 269.246997 
L 373.463849 269.970992 
L 373.788829 269.839987 
L 374.438788 269.340939 
L 375.413726 268.988559 
L 376.063686 269.271679 
L 376.713645 268.926215 
L 377.363604 269.238168 
L 377.688583 269.044813 
L 378.338542 269.320453 
L 378.663522 269.554481 
L 378.988501 269.452238 
L 379.63846 269.866197 
L 379.96344 269.974357 
L 380.288419 269.812657 
L 381.263358 270.308069 
L 382.238296 269.734666 
L 382.563276 269.894978 
L 383.213235 269.588005 
L 383.863194 269.922683 
L 384.513153 269.576835 
L 384.838133 269.454853 
L 385.488092 269.780127 
L 385.813071 269.640744 
L 386.78801 270.233744 
L 387.112989 270.029658 
L 387.762948 270.245576 
L 388.087928 270.346287 
L 388.412907 270.569077 
L 388.737887 270.651127 
L 389.712826 270.237541 
L 390.687764 270.654344 
L 391.012744 270.487386 
L 391.987682 271.10345 
L 392.637641 270.754566 
L 392.962621 270.615911 
L 393.61258 270.872393 
L 393.937559 270.926181 
L 394.587518 270.648594 
L 394.912498 270.702819 
L 395.562457 271.03313 
L 396.212416 270.770885 
L 397.187355 271.141552 
L 398.162293 270.785703 
L 398.487273 270.951174 
L 398.487273 270.951174 
" clip-path="url(#p0271980bcd)" style="fill: none; stroke: #1f77b4; stroke-width: 1.5; stroke-linecap: square"/>
   </g>
   <g id="patch_3">
    <path d="M 57.6 307.584 
L 57.6 41.472 
" style="fill: none; stroke: #000000; stroke-width: 0.8; stroke-linejoin: miter; stroke-linecap: square"/>
   </g>
   <g id="patch_4">
    <path d="M 414.72 307.584 
L 414.72 41.472 
" style="fill: none; stroke: #000000; stroke-width: 0.8; stroke-linejoin: miter; stroke-linecap: square"/>
   </g>
   <g id="patch_5">
    <path d="M 57.6 307.584 
L 414.72 307.584 
" style="fill: none; stroke: #000000; stroke-width: 0.8; stroke-linejoin: miter; stroke-linecap: square"/>
   </g>
   <g id="patch_6">
    <path d="M 57.6 41.472 
L 414.72 41.472 
" style="fill: none; stroke: #000000; stroke-width: 0.8; stroke-linejoin: miter; stroke-linecap: square"/>
   </g>
   <g id="text_17">
    <!-- Tempo x Requisição -->
    <g transform="translate(176.824687 35.472) scale(0.12 -0.12)">
     <defs>
      <path id="DejaVuSans-20" transform="scale(0.015625)"/>
      <path id="DejaVuSans-78" d="M 3513 3500 
L 2247 1797 
L 3578 0 
L 2900 0 
L 1881 1375 
L 863 0 
L 184 0 
L 1544 1831 
L 300 3500 
L 978 3500 
L 1906 2253 
L 2834 3500 
L 3513 3500 
z
" transform="scale(0.015625)"/>
      <path id="DejaVuSans-e3" d="M 2194 1759 
Q 1497 1759 1228 1600 
Q 959 1441 959 1056 
Q 959 750 1161 570 
Q 1363 391 1709 391 
Q 2188 391 2477 730 
Q 2766 1069 2766 1631 
L 2766 1759 
L 2194 1759 
z
M 3341 1997 
L 3341 0 
L 2766 0 
L 2766 531 
Q 2569 213 2275 61 
Q 1981 -91 1556 -91 
Q 1019 -91 701 211 
Q 384 513 384 1019 
Q 384 1609 779 1909 
Q 1175 2209 1959 2209 
L 2766 2209 
L 2766 2266 
Q 2766 2663 2505 2880 
Q 2244 3097 1772 3097 
Q 1472 3097 1187 3025 
Q 903 2953 641 2809 
L 641 3341 
Q 956 3463 1253 3523 
Q 1550 3584 1831 3584 
Q 2591 3584 2966 3190 
Q 3341 2797 3341 1997 
z
M 1844 4281 
L 1665 4453 
Q 1597 4516 1545 4545 
Q 1494 4575 1453 4575 
Q 1334 4575 1278 4461 
Q 1222 4347 1215 4091 
L 825 4091 
Q 831 4513 990 4742 
Q 1150 4972 1434 4972 
Q 1553 4972 1653 4928 
Q 1753 4884 1869 4781 
L 2047 4609 
Q 2115 4547 2167 4517 
Q 2219 4488 2259 4488 
Q 2378 4488 2434 4602 
Q 2490 4716 2497 4972 
L 2887 4972 
Q 2881 4550 2721 4320 
Q 2562 4091 2278 4091 
Q 2159 4091 2059 4134 
Q 1959 4178 1844 4281 
z
" transform="scale(0.015625)"/>
     </defs>
     <use xlink:href="#DejaVuSans-54"/>
     <use xlink:href="#DejaVuSans-65" x="44.083984"/>
     <use xlink:href="#DejaVuSans-6d" x="105.607422"/>
     <use xlink:href="#DejaVuSans-70" x="203.019531"/>
     <use xlink:href="#DejaVuSans-6f" x="266.496094"/>
     <use xlink:href="#DejaVuSans-20" x="327.677734"/>
     <use xlink:href="#DejaVuSans-78" x="359.464844"/>
     <use xlink:href="#DejaVuSans-20" x="418.644531"/>
     <use xlink:href="#DejaVuSans-52" x="450.431641"/>
     <use xlink:href="#DejaVuSans-65" x="515.414062"/>
     <use xlink:href="#DejaVuSans-71" x="576.9375"/>
     <use xlink:href="#DejaVuSans-75" x="640.414062"/>
     <use xlink:href="#DejaVuSans-69" x="703.792969"/>
     <use xlink:href="#DejaVuSans-73" x="731.576172"/>
     <use xlink:href="#DejaVuSans-69" x="783.675781"/>
     <use xlink:href="#DejaVuSans-e7" x="811.458984"/>
     <use xlink:href="#DejaVuSans-e3" x="866.439453"/>
     <use xlink:href="#DejaVuSans-6f" x="927.71875"/>
    </g>
   </g>
  </g>
 </g>
 <defs>
  <clipPath id="p0271980bcd">
   <rect x="57.6" y="41.472" width="357.12" height="266.112"/>
  </clipPath>
 </defs>
</svg>
