<?xml version="1.0" encoding="utf-8" standalone="no"?>
<!DOCTYPE svg PUBLIC "-//W3C//DTD SVG 1.1//EN"
  "http://www.w3.org/Graphics/SVG/1.1/DTD/svg11.dtd">
<svg xmlns:xlink="http://www.w3.org/1999/xlink" width="460.8pt" height="345.6pt" viewBox="0 0 460.8 345.6" xmlns="http://www.w3.org/2000/svg" version="1.1">
 <metadata>
  <rdf:RDF xmlns:dc="http://purl.org/dc/elements/1.1/" xmlns:cc="http://creativecommons.org/ns#" xmlns:rdf="http://www.w3.org/1999/02/22-rdf-syntax-ns#">
   <cc:Work>
    <dc:type rdf:resource="http://purl.org/dc/dcmitype/StillImage"/>
    <dc:date>2023-03-03T21:30:08.513753</dc:date>
    <dc:format>image/svg+xml</dc:format>
    <dc:creator>
     <cc:Agent>
      <dc:title>Matplotlib v3.6.3, https://matplotlib.org/</dc:title>
     </cc:Agent>
    </dc:creator>
   </cc:Work>
  </rdf:RDF>
 </metadata>
 <defs>
  <style type="text/css">*{stroke-linejoin: round; stroke-linecap: butt}</style>
 </defs>
 <g id="figure_1">
  <g id="patch_1">
   <path d="M 0 345.6 
L 460.8 345.6 
L 460.8 0 
L 0 0 
z
" style="fill: #ffffff"/>
  </g>
  <g id="axes_1">
   <g id="patch_2">
    <path d="M 57.6 307.584 
L 414.72 307.584 
L 414.72 41.472 
L 57.6 41.472 
z
" style="fill: #ffffff"/>
   </g>
   <g id="matplotlib.axis_1">
    <g id="xtick_1">
     <g id="line2d_1">
      <defs>
       <path id="m3708b80531" d="M 0 0 
L 0 3.5 
" style="stroke: #000000; stroke-width: 0.8"/>
      </defs>
      <g>
       <use xlink:href="#m3708b80531" x="73.832727" y="307.584" style="stroke: #000000; stroke-width: 0.8"/>
      </g>
     </g>
     <g id="text_1">
      <!-- 0 -->
      <g transform="translate(70.651477 322.182437) scale(0.1 -0.1)">
       <defs>
        <path id="DejaVuSans-30" d="M 2034 4250 
Q 1547 4250 1301 3770 
Q 1056 3291 1056 2328 
Q 1056 1369 1301 889 
Q 1547 409 2034 409 
Q 2525 409 2770 889 
Q 3016 1369 3016 2328 
Q 3016 3291 2770 3770 
Q 2525 4250 2034 4250 
z
M 2034 4750 
Q 2819 4750 3233 4129 
Q 3647 3509 3647 2328 
Q 3647 1150 3233 529 
Q 2819 -91 2034 -91 
Q 1250 -91 836 529 
Q 422 1150 422 2328 
Q 422 3509 836 4129 
Q 1250 4750 2034 4750 
z
" transform="scale(0.015625)"/>
       </defs>
       <use xlink:href="#DejaVuSans-30"/>
      </g>
     </g>
    </g>
    <g id="xtick_2">
     <g id="line2d_2">
      <g>
       <use xlink:href="#m3708b80531" x="138.828632" y="307.584" style="stroke: #000000; stroke-width: 0.8"/>
      </g>
     </g>
     <g id="text_2">
      <!-- 200 -->
      <g transform="translate(129.284882 322.182437) scale(0.1 -0.1)">
       <defs>
        <path id="DejaVuSans-32" d="M 1228 531 
L 3431 531 
L 3431 0 
L 469 0 
L 469 531 
Q 828 903 1448 1529 
Q 2069 2156 2228 2338 
Q 2531 2678 2651 2914 
Q 2772 3150 2772 3378 
Q 2772 3750 2511 3984 
Q 2250 4219 1831 4219 
Q 1534 4219 1204 4116 
Q 875 4013 500 3803 
L 500 4441 
Q 881 4594 1212 4672 
Q 1544 4750 1819 4750 
Q 2544 4750 2975 4387 
Q 3406 4025 3406 3419 
Q 3406 3131 3298 2873 
Q 3191 2616 2906 2266 
Q 2828 2175 2409 1742 
Q 1991 1309 1228 531 
z
" transform="scale(0.015625)"/>
       </defs>
       <use xlink:href="#DejaVuSans-32"/>
       <use xlink:href="#DejaVuSans-30" x="63.623047"/>
       <use xlink:href="#DejaVuSans-30" x="127.246094"/>
      </g>
     </g>
    </g>
    <g id="xtick_3">
     <g id="line2d_3">
      <g>
       <use xlink:href="#m3708b80531" x="203.824537" y="307.584" style="stroke: #000000; stroke-width: 0.8"/>
      </g>
     </g>
     <g id="text_3">
      <!-- 400 -->
      <g transform="translate(194.280787 322.182437) scale(0.1 -0.1)">
       <defs>
        <path id="DejaVuSans-34" d="M 2419 4116 
L 825 1625 
L 2419 1625 
L 2419 4116 
z
M 2253 4666 
L 3047 4666 
L 3047 1625 
L 3713 1625 
L 3713 1100 
L 3047 1100 
L 3047 0 
L 2419 0 
L 2419 1100 
L 313 1100 
L 313 1709 
L 2253 4666 
z
" transform="scale(0.015625)"/>
       </defs>
       <use xlink:href="#DejaVuSans-34"/>
       <use xlink:href="#DejaVuSans-30" x="63.623047"/>
       <use xlink:href="#DejaVuSans-30" x="127.246094"/>
      </g>
     </g>
    </g>
    <g id="xtick_4">
     <g id="line2d_4">
      <g>
       <use xlink:href="#m3708b80531" x="268.820442" y="307.584" style="stroke: #000000; stroke-width: 0.8"/>
      </g>
     </g>
     <g id="text_4">
      <!-- 600 -->
      <g transform="translate(259.276692 322.182437) scale(0.1 -0.1)">
       <defs>
        <path id="DejaVuSans-36" d="M 2113 2584 
Q 1688 2584 1439 2293 
Q 1191 2003 1191 1497 
Q 1191 994 1439 701 
Q 1688 409 2113 409 
Q 2538 409 2786 701 
Q 3034 994 3034 1497 
Q 3034 2003 2786 2293 
Q 2538 2584 2113 2584 
z
M 3366 4563 
L 3366 3988 
Q 3128 4100 2886 4159 
Q 2644 4219 2406 4219 
Q 1781 4219 1451 3797 
Q 1122 3375 1075 2522 
Q 1259 2794 1537 2939 
Q 1816 3084 2150 3084 
Q 2853 3084 3261 2657 
Q 3669 2231 3669 1497 
Q 3669 778 3244 343 
Q 2819 -91 2113 -91 
Q 1303 -91 875 529 
Q 447 1150 447 2328 
Q 447 3434 972 4092 
Q 1497 4750 2381 4750 
Q 2619 4750 2861 4703 
Q 3103 4656 3366 4563 
z
" transform="scale(0.015625)"/>
       </defs>
       <use xlink:href="#DejaVuSans-36"/>
       <use xlink:href="#DejaVuSans-30" x="63.623047"/>
       <use xlink:href="#DejaVuSans-30" x="127.246094"/>
      </g>
     </g>
    </g>
    <g id="xtick_5">
     <g id="line2d_5">
      <g>
       <use xlink:href="#m3708b80531" x="333.816347" y="307.584" style="stroke: #000000; stroke-width: 0.8"/>
      </g>
     </g>
     <g id="text_5">
      <!-- 800 -->
      <g transform="translate(324.272597 322.182437) scale(0.1 -0.1)">
       <defs>
        <path id="DejaVuSans-38" d="M 2034 2216 
Q 1584 2216 1326 1975 
Q 1069 1734 1069 1313 
Q 1069 891 1326 650 
Q 1584 409 2034 409 
Q 2484 409 2743 651 
Q 3003 894 3003 1313 
Q 3003 1734 2745 1975 
Q 2488 2216 2034 2216 
z
M 1403 2484 
Q 997 2584 770 2862 
Q 544 3141 544 3541 
Q 544 4100 942 4425 
Q 1341 4750 2034 4750 
Q 2731 4750 3128 4425 
Q 3525 4100 3525 3541 
Q 3525 3141 3298 2862 
Q 3072 2584 2669 2484 
Q 3125 2378 3379 2068 
Q 3634 1759 3634 1313 
Q 3634 634 3220 271 
Q 2806 -91 2034 -91 
Q 1263 -91 848 271 
Q 434 634 434 1313 
Q 434 1759 690 2068 
Q 947 2378 1403 2484 
z
M 1172 3481 
Q 1172 3119 1398 2916 
Q 1625 2713 2034 2713 
Q 2441 2713 2670 2916 
Q 2900 3119 2900 3481 
Q 2900 3844 2670 4047 
Q 2441 4250 2034 4250 
Q 1625 4250 1398 4047 
Q 1172 3844 1172 3481 
z
" transform="scale(0.015625)"/>
       </defs>
       <use xlink:href="#DejaVuSans-38"/>
       <use xlink:href="#DejaVuSans-30" x="63.623047"/>
       <use xlink:href="#DejaVuSans-30" x="127.246094"/>
      </g>
     </g>
    </g>
    <g id="xtick_6">
     <g id="line2d_6">
      <g>
       <use xlink:href="#m3708b80531" x="398.812252" y="307.584" style="stroke: #000000; stroke-width: 0.8"/>
      </g>
     </g>
     <g id="text_6">
      <!-- 1000 -->
      <g transform="translate(386.087252 322.182437) scale(0.1 -0.1)">
       <defs>
        <path id="DejaVuSans-31" d="M 794 531 
L 1825 531 
L 1825 4091 
L 703 3866 
L 703 4441 
L 1819 4666 
L 2450 4666 
L 2450 531 
L 3481 531 
L 3481 0 
L 794 0 
L 794 531 
z
" transform="scale(0.015625)"/>
       </defs>
       <use xlink:href="#DejaVuSans-31"/>
       <use xlink:href="#DejaVuSans-30" x="63.623047"/>
       <use xlink:href="#DejaVuSans-30" x="127.246094"/>
       <use xlink:href="#DejaVuSans-30" x="190.869141"/>
      </g>
     </g>
    </g>
    <g id="text_7">
     <!-- Requisições -->
     <g transform="translate(206.618594 336.030875) scale(0.1 -0.1)">
      <defs>
       <path id="DejaVuSans-52" d="M 2841 2188 
Q 3044 2119 3236 1894 
Q 3428 1669 3622 1275 
L 4263 0 
L 3584 0 
L 2988 1197 
Q 2756 1666 2539 1819 
Q 2322 1972 1947 1972 
L 1259 1972 
L 1259 0 
L 628 0 
L 628 4666 
L 2053 4666 
Q 2853 4666 3247 4331 
Q 3641 3997 3641 3322 
Q 3641 2881 3436 2590 
Q 3231 2300 2841 2188 
z
M 1259 4147 
L 1259 2491 
L 2053 2491 
Q 2509 2491 2742 2702 
Q 2975 2913 2975 3322 
Q 2975 3731 2742 3939 
Q 2509 4147 2053 4147 
L 1259 4147 
z
" transform="scale(0.015625)"/>
       <path id="DejaVuSans-65" d="M 3597 1894 
L 3597 1613 
L 953 1613 
Q 991 1019 1311 708 
Q 1631 397 2203 397 
Q 2534 397 2845 478 
Q 3156 559 3463 722 
L 3463 178 
Q 3153 47 2828 -22 
Q 2503 -91 2169 -91 
Q 1331 -91 842 396 
Q 353 884 353 1716 
Q 353 2575 817 3079 
Q 1281 3584 2069 3584 
Q 2775 3584 3186 3129 
Q 3597 2675 3597 1894 
z
M 3022 2063 
Q 3016 2534 2758 2815 
Q 2500 3097 2075 3097 
Q 1594 3097 1305 2825 
Q 1016 2553 972 2059 
L 3022 2063 
z
" transform="scale(0.015625)"/>
       <path id="DejaVuSans-71" d="M 947 1747 
Q 947 1113 1208 752 
Q 1469 391 1925 391 
Q 2381 391 2643 752 
Q 2906 1113 2906 1747 
Q 2906 2381 2643 2742 
Q 2381 3103 1925 3103 
Q 1469 3103 1208 2742 
Q 947 2381 947 1747 
z
M 2906 525 
Q 2725 213 2448 61 
Q 2172 -91 1784 -91 
Q 1150 -91 751 415 
Q 353 922 353 1747 
Q 353 2572 751 3078 
Q 1150 3584 1784 3584 
Q 2172 3584 2448 3432 
Q 2725 3281 2906 2969 
L 2906 3500 
L 3481 3500 
L 3481 -1331 
L 2906 -1331 
L 2906 525 
z
" transform="scale(0.015625)"/>
       <path id="DejaVuSans-75" d="M 544 1381 
L 544 3500 
L 1119 3500 
L 1119 1403 
Q 1119 906 1312 657 
Q 1506 409 1894 409 
Q 2359 409 2629 706 
Q 2900 1003 2900 1516 
L 2900 3500 
L 3475 3500 
L 3475 0 
L 2900 0 
L 2900 538 
Q 2691 219 2414 64 
Q 2138 -91 1772 -91 
Q 1169 -91 856 284 
Q 544 659 544 1381 
z
M 1991 3584 
L 1991 3584 
z
" transform="scale(0.015625)"/>
       <path id="DejaVuSans-69" d="M 603 3500 
L 1178 3500 
L 1178 0 
L 603 0 
L 603 3500 
z
M 603 4863 
L 1178 4863 
L 1178 4134 
L 603 4134 
L 603 4863 
z
" transform="scale(0.015625)"/>
       <path id="DejaVuSans-73" d="M 2834 3397 
L 2834 2853 
Q 2591 2978 2328 3040 
Q 2066 3103 1784 3103 
Q 1356 3103 1142 2972 
Q 928 2841 928 2578 
Q 928 2378 1081 2264 
Q 1234 2150 1697 2047 
L 1894 2003 
Q 2506 1872 2764 1633 
Q 3022 1394 3022 966 
Q 3022 478 2636 193 
Q 2250 -91 1575 -91 
Q 1294 -91 989 -36 
Q 684 19 347 128 
L 347 722 
Q 666 556 975 473 
Q 1284 391 1588 391 
Q 1994 391 2212 530 
Q 2431 669 2431 922 
Q 2431 1156 2273 1281 
Q 2116 1406 1581 1522 
L 1381 1569 
Q 847 1681 609 1914 
Q 372 2147 372 2553 
Q 372 3047 722 3315 
Q 1072 3584 1716 3584 
Q 2034 3584 2315 3537 
Q 2597 3491 2834 3397 
z
" transform="scale(0.015625)"/>
       <path id="DejaVuSans-e7" d="M 3122 3366 
L 3122 2828 
Q 2878 2963 2633 3030 
Q 2388 3097 2138 3097 
Q 1578 3097 1268 2742 
Q 959 2388 959 1747 
Q 959 1106 1268 751 
Q 1578 397 2138 397 
Q 2388 397 2633 464 
Q 2878 531 3122 666 
L 3122 134 
Q 2881 22 2623 -34 
Q 2366 -91 2075 -91 
Q 1284 -91 818 406 
Q 353 903 353 1747 
Q 353 2603 823 3093 
Q 1294 3584 2113 3584 
Q 2378 3584 2631 3529 
Q 2884 3475 3122 3366 
z
M 2311 0 
Q 2482 -194 2566 -358 
Q 2651 -522 2651 -672 
Q 2651 -950 2463 -1092 
Q 2276 -1234 1907 -1234 
Q 1764 -1234 1628 -1215 
Q 1492 -1197 1357 -1159 
L 1357 -750 
Q 1464 -803 1579 -826 
Q 1695 -850 1842 -850 
Q 2026 -850 2120 -775 
Q 2214 -700 2214 -556 
Q 2214 -463 2146 -327 
Q 2079 -191 1939 0 
L 2311 0 
z
" transform="scale(0.015625)"/>
       <path id="DejaVuSans-f5" d="M 1959 3097 
Q 1497 3097 1228 2736 
Q 959 2375 959 1747 
Q 959 1119 1226 758 
Q 1494 397 1959 397 
Q 2419 397 2687 759 
Q 2956 1122 2956 1747 
Q 2956 2369 2687 2733 
Q 2419 3097 1959 3097 
z
M 1959 3584 
Q 2709 3584 3137 3096 
Q 3566 2609 3566 1747 
Q 3566 888 3137 398 
Q 2709 -91 1959 -91 
Q 1206 -91 779 398 
Q 353 888 353 1747 
Q 353 2609 779 3096 
Q 1206 3584 1959 3584 
z
M 1948 4281 
L 1769 4453 
Q 1701 4516 1649 4545 
Q 1598 4575 1557 4575 
Q 1438 4575 1382 4461 
Q 1326 4347 1319 4091 
L 929 4091 
Q 935 4513 1094 4742 
Q 1254 4972 1538 4972 
Q 1657 4972 1757 4928 
Q 1857 4884 1973 4781 
L 2151 4609 
Q 2219 4547 2271 4517 
Q 2323 4488 2363 4488 
Q 2482 4488 2538 4602 
Q 2594 4716 2601 4972 
L 2991 4972 
Q 2985 4550 2825 4320 
Q 2666 4091 2382 4091 
Q 2263 4091 2163 4134 
Q 2063 4178 1948 4281 
z
" transform="scale(0.015625)"/>
      </defs>
      <use xlink:href="#DejaVuSans-52"/>
      <use xlink:href="#DejaVuSans-65" x="64.982422"/>
      <use xlink:href="#DejaVuSans-71" x="126.505859"/>
      <use xlink:href="#DejaVuSans-75" x="189.982422"/>
      <use xlink:href="#DejaVuSans-69" x="253.361328"/>
      <use xlink:href="#DejaVuSans-73" x="281.144531"/>
      <use xlink:href="#DejaVuSans-69" x="333.244141"/>
      <use xlink:href="#DejaVuSans-e7" x="361.027344"/>
      <use xlink:href="#DejaVuSans-f5" x="416.007812"/>
      <use xlink:href="#DejaVuSans-65" x="477.189453"/>
      <use xlink:href="#DejaVuSans-73" x="538.712891"/>
     </g>
    </g>
   </g>
   <g id="matplotlib.axis_2">
    <g id="ytick_1">
     <g id="line2d_7">
      <defs>
       <path id="mfc9cea6cdf" d="M 0 0 
L -3.5 0 
" style="stroke: #000000; stroke-width: 0.8"/>
      </defs>
      <g>
       <use xlink:href="#mfc9cea6cdf" x="57.6" y="292.757912" style="stroke: #000000; stroke-width: 0.8"/>
      </g>
     </g>
     <g id="text_8">
      <!-- 0.75 -->
      <g transform="translate(28.334375 296.557131) scale(0.1 -0.1)">
       <defs>
        <path id="DejaVuSans-2e" d="M 684 794 
L 1344 794 
L 1344 0 
L 684 0 
L 684 794 
z
" transform="scale(0.015625)"/>
        <path id="DejaVuSans-37" d="M 525 4666 
L 3525 4666 
L 3525 4397 
L 1831 0 
L 1172 0 
L 2766 4134 
L 525 4134 
L 525 4666 
z
" transform="scale(0.015625)"/>
        <path id="DejaVuSans-35" d="M 691 4666 
L 3169 4666 
L 3169 4134 
L 1269 4134 
L 1269 2991 
Q 1406 3038 1543 3061 
Q 1681 3084 1819 3084 
Q 2600 3084 3056 2656 
Q 3513 2228 3513 1497 
Q 3513 744 3044 326 
Q 2575 -91 1722 -91 
Q 1428 -91 1123 -41 
Q 819 9 494 109 
L 494 744 
Q 775 591 1075 516 
Q 1375 441 1709 441 
Q 2250 441 2565 725 
Q 2881 1009 2881 1497 
Q 2881 1984 2565 2268 
Q 2250 2553 1709 2553 
Q 1456 2553 1204 2497 
Q 953 2441 691 2322 
L 691 4666 
z
" transform="scale(0.015625)"/>
       </defs>
       <use xlink:href="#DejaVuSans-30"/>
       <use xlink:href="#DejaVuSans-2e" x="63.623047"/>
       <use xlink:href="#DejaVuSans-37" x="95.410156"/>
       <use xlink:href="#DejaVuSans-35" x="159.033203"/>
      </g>
     </g>
    </g>
    <g id="ytick_2">
     <g id="line2d_8">
      <g>
       <use xlink:href="#mfc9cea6cdf" x="57.6" y="243.377279" style="stroke: #000000; stroke-width: 0.8"/>
      </g>
     </g>
     <g id="text_9">
      <!-- 0.80 -->
      <g transform="translate(28.334375 247.176497) scale(0.1 -0.1)">
       <use xlink:href="#DejaVuSans-30"/>
       <use xlink:href="#DejaVuSans-2e" x="63.623047"/>
       <use xlink:href="#DejaVuSans-38" x="95.410156"/>
       <use xlink:href="#DejaVuSans-30" x="159.033203"/>
      </g>
     </g>
    </g>
    <g id="ytick_3">
     <g id="line2d_9">
      <g>
       <use xlink:href="#mfc9cea6cdf" x="57.6" y="193.996645" style="stroke: #000000; stroke-width: 0.8"/>
      </g>
     </g>
     <g id="text_10">
      <!-- 0.85 -->
      <g transform="translate(28.334375 197.795864) scale(0.1 -0.1)">
       <use xlink:href="#DejaVuSans-30"/>
       <use xlink:href="#DejaVuSans-2e" x="63.623047"/>
       <use xlink:href="#DejaVuSans-38" x="95.410156"/>
       <use xlink:href="#DejaVuSans-35" x="159.033203"/>
      </g>
     </g>
    </g>
    <g id="ytick_4">
     <g id="line2d_10">
      <g>
       <use xlink:href="#mfc9cea6cdf" x="57.6" y="144.616012" style="stroke: #000000; stroke-width: 0.8"/>
      </g>
     </g>
     <g id="text_11">
      <!-- 0.90 -->
      <g transform="translate(28.334375 148.415231) scale(0.1 -0.1)">
       <defs>
        <path id="DejaVuSans-39" d="M 703 97 
L 703 672 
Q 941 559 1184 500 
Q 1428 441 1663 441 
Q 2288 441 2617 861 
Q 2947 1281 2994 2138 
Q 2813 1869 2534 1725 
Q 2256 1581 1919 1581 
Q 1219 1581 811 2004 
Q 403 2428 403 3163 
Q 403 3881 828 4315 
Q 1253 4750 1959 4750 
Q 2769 4750 3195 4129 
Q 3622 3509 3622 2328 
Q 3622 1225 3098 567 
Q 2575 -91 1691 -91 
Q 1453 -91 1209 -44 
Q 966 3 703 97 
z
M 1959 2075 
Q 2384 2075 2632 2365 
Q 2881 2656 2881 3163 
Q 2881 3666 2632 3958 
Q 2384 4250 1959 4250 
Q 1534 4250 1286 3958 
Q 1038 3666 1038 3163 
Q 1038 2656 1286 2365 
Q 1534 2075 1959 2075 
z
" transform="scale(0.015625)"/>
       </defs>
       <use xlink:href="#DejaVuSans-30"/>
       <use xlink:href="#DejaVuSans-2e" x="63.623047"/>
       <use xlink:href="#DejaVuSans-39" x="95.410156"/>
       <use xlink:href="#DejaVuSans-30" x="159.033203"/>
      </g>
     </g>
    </g>
    <g id="ytick_5">
     <g id="line2d_11">
      <g>
       <use xlink:href="#mfc9cea6cdf" x="57.6" y="95.235378" style="stroke: #000000; stroke-width: 0.8"/>
      </g>
     </g>
     <g id="text_12">
      <!-- 0.95 -->
      <g transform="translate(28.334375 99.034597) scale(0.1 -0.1)">
       <use xlink:href="#DejaVuSans-30"/>
       <use xlink:href="#DejaVuSans-2e" x="63.623047"/>
       <use xlink:href="#DejaVuSans-39" x="95.410156"/>
       <use xlink:href="#DejaVuSans-35" x="159.033203"/>
      </g>
     </g>
    </g>
    <g id="ytick_6">
     <g id="line2d_12">
      <g>
       <use xlink:href="#mfc9cea6cdf" x="57.6" y="45.854745" style="stroke: #000000; stroke-width: 0.8"/>
      </g>
     </g>
     <g id="text_13">
      <!-- 1.00 -->
      <g transform="translate(28.334375 49.653964) scale(0.1 -0.1)">
       <use xlink:href="#DejaVuSans-31"/>
       <use xlink:href="#DejaVuSans-2e" x="63.623047"/>
       <use xlink:href="#DejaVuSans-30" x="95.410156"/>
       <use xlink:href="#DejaVuSans-30" x="159.033203"/>
      </g>
     </g>
    </g>
    <g id="text_14">
     <!-- Tempo -->
     <g transform="translate(22.254687 190.912375) rotate(-90) scale(0.1 -0.1)">
      <defs>
       <path id="DejaVuSans-54" d="M -19 4666 
L 3928 4666 
L 3928 4134 
L 2272 4134 
L 2272 0 
L 1638 0 
L 1638 4134 
L -19 4134 
L -19 4666 
z
" transform="scale(0.015625)"/>
       <path id="DejaVuSans-6d" d="M 3328 2828 
Q 3544 3216 3844 3400 
Q 4144 3584 4550 3584 
Q 5097 3584 5394 3201 
Q 5691 2819 5691 2113 
L 5691 0 
L 5113 0 
L 5113 2094 
Q 5113 2597 4934 2840 
Q 4756 3084 4391 3084 
Q 3944 3084 3684 2787 
Q 3425 2491 3425 1978 
L 3425 0 
L 2847 0 
L 2847 2094 
Q 2847 2600 2669 2842 
Q 2491 3084 2119 3084 
Q 1678 3084 1418 2786 
Q 1159 2488 1159 1978 
L 1159 0 
L 581 0 
L 581 3500 
L 1159 3500 
L 1159 2956 
Q 1356 3278 1631 3431 
Q 1906 3584 2284 3584 
Q 2666 3584 2933 3390 
Q 3200 3197 3328 2828 
z
" transform="scale(0.015625)"/>
       <path id="DejaVuSans-70" d="M 1159 525 
L 1159 -1331 
L 581 -1331 
L 581 3500 
L 1159 3500 
L 1159 2969 
Q 1341 3281 1617 3432 
Q 1894 3584 2278 3584 
Q 2916 3584 3314 3078 
Q 3713 2572 3713 1747 
Q 3713 922 3314 415 
Q 2916 -91 2278 -91 
Q 1894 -91 1617 61 
Q 1341 213 1159 525 
z
M 3116 1747 
Q 3116 2381 2855 2742 
Q 2594 3103 2138 3103 
Q 1681 3103 1420 2742 
Q 1159 2381 1159 1747 
Q 1159 1113 1420 752 
Q 1681 391 2138 391 
Q 2594 391 2855 752 
Q 3116 1113 3116 1747 
z
" transform="scale(0.015625)"/>
       <path id="DejaVuSans-6f" d="M 1959 3097 
Q 1497 3097 1228 2736 
Q 959 2375 959 1747 
Q 959 1119 1226 758 
Q 1494 397 1959 397 
Q 2419 397 2687 759 
Q 2956 1122 2956 1747 
Q 2956 2369 2687 2733 
Q 2419 3097 1959 3097 
z
M 1959 3584 
Q 2709 3584 3137 3096 
Q 3566 2609 3566 1747 
Q 3566 888 3137 398 
Q 2709 -91 1959 -91 
Q 1206 -91 779 398 
Q 353 888 353 1747 
Q 353 2609 779 3096 
Q 1206 3584 1959 3584 
z
" transform="scale(0.015625)"/>
      </defs>
      <use xlink:href="#DejaVuSans-54"/>
      <use xlink:href="#DejaVuSans-65" x="44.083984"/>
      <use xlink:href="#DejaVuSans-6d" x="105.607422"/>
      <use xlink:href="#DejaVuSans-70" x="203.019531"/>
      <use xlink:href="#DejaVuSans-6f" x="266.496094"/>
     </g>
    </g>
   </g>
   <g id="line2d_13">
    <path d="M 73.832727 53.568 
L 74.157707 194.645507 
L 74.482686 184.188005 
L 74.807666 211.825523 
L 75.132645 211.633037 
L 75.457625 236.763401 
L 75.782604 221.769019 
L 76.107584 220.906498 
L 76.432563 211.061385 
L 76.757543 206.850227 
L 77.082523 224.510106 
L 77.407502 217.486025 
L 77.732482 204.981633 
L 78.382441 196.907469 
L 78.70742 195.003948 
L 79.0324 197.163048 
L 79.357379 196.773483 
L 79.682359 197.296155 
L 80.007338 211.670715 
L 80.332318 221.074821 
L 80.657297 219.676729 
L 80.982277 226.702684 
L 81.307256 230.40548 
L 81.632236 236.704098 
L 81.957215 236.167934 
L 82.607174 246.291089 
L 82.932154 245.735017 
L 83.257133 241.043418 
L 83.582113 246.12332 
L 83.907093 245.394508 
L 84.232072 243.089943 
L 85.207011 257.655936 
L 85.53199 256.597595 
L 85.85697 253.959574 
L 86.831908 264.542661 
L 87.156888 266.313266 
L 87.481867 265.438318 
L 87.806847 263.961887 
L 88.456806 271.544207 
L 88.781785 268.960901 
L 89.106765 273.059669 
L 89.431744 269.813634 
L 89.756724 273.767582 
L 90.081704 271.332236 
L 90.406683 272.583017 
L 90.731663 270.930498 
L 91.056642 274.118808 
L 91.706601 270.772031 
L 92.031581 269.844605 
L 92.35656 271.314236 
L 92.68154 270.072784 
L 93.006519 273.073985 
L 93.331499 274.954445 
L 93.656478 276.001884 
L 93.981458 274.427021 
L 94.306437 271.830106 
L 94.631417 274.152474 
L 94.956396 273.624742 
L 95.281376 272.077951 
L 95.606355 272.533957 
L 95.931335 271.46703 
L 96.256314 270.01442 
L 96.581294 272.210992 
L 97.231253 268.935531 
L 97.556233 266.21119 
L 97.881212 265.538622 
L 98.206192 267.276738 
L 98.531171 269.799906 
L 98.856151 268.577824 
L 99.18113 269.296911 
L 99.50611 267.851148 
L 99.831089 270.217665 
L 100.156069 271.580124 
L 100.481048 271.210952 
L 101.131007 268.327035 
L 102.105946 273.737401 
L 102.755905 272.945546 
L 103.080885 274.654635 
L 103.405864 272.666188 
L 103.730844 273.880174 
L 104.055823 273.525185 
L 104.380803 274.358189 
L 104.705782 274.058166 
L 105.030762 274.313971 
L 105.355741 273.395121 
L 105.680721 275.109184 
L 106.980639 271.850209 
L 107.305618 272.590073 
L 107.955577 275.139619 
L 108.280557 274.042652 
L 108.930516 275.813704 
L 109.255495 274.339645 
L 109.580475 276.2158 
L 109.905455 275.035414 
L 110.555414 277.331108 
L 110.880393 277.68489 
L 111.205373 276.813765 
L 111.530352 277.605815 
L 111.855332 277.157356 
L 112.180311 278.398447 
L 112.505291 278.539738 
L 112.83027 278.899511 
L 113.15525 279.916543 
L 113.480229 279.407581 
L 113.805209 280.232204 
L 114.130188 281.400493 
L 114.455168 282.138356 
L 114.780147 281.812597 
L 115.105127 282.596566 
L 115.430106 283.06196 
L 115.755086 282.073956 
L 117.379984 286.063237 
L 117.704963 286.244512 
L 118.354922 284.433962 
L 118.679902 284.07399 
L 119.004881 284.759688 
L 119.329861 284.664895 
L 119.65484 284.00653 
L 120.304799 282.109699 
L 120.629779 282.212599 
L 121.604717 284.034216 
L 121.929697 283.490102 
L 122.254676 282.553312 
L 122.579656 282.256188 
L 122.904636 283.17354 
L 123.229615 282.23142 
L 123.554595 281.925238 
L 123.879574 280.611073 
L 124.529533 281.880893 
L 124.854513 282.183581 
L 125.179492 281.389378 
L 125.504472 282.224418 
L 125.829451 281.929218 
L 126.47941 279.391235 
L 126.80439 279.104871 
L 127.129369 278.335343 
L 127.454349 278.326588 
L 128.429287 280.089834 
L 128.754267 279.34992 
L 129.404226 281.152401 
L 130.054185 279.722498 
L 130.379165 279.080221 
L 130.704144 278.935061 
L 131.029124 279.765304 
L 131.354103 279.236784 
L 131.679083 280.049919 
L 132.004062 279.04091 
L 132.329042 279.622527 
L 132.654021 278.87866 
L 132.979001 279.219448 
L 133.30398 278.920015 
L 133.62896 279.714848 
L 133.953939 278.696479 
L 134.278919 279.311618 
L 134.603898 278.785431 
L 134.928878 278.597694 
L 135.253857 279.027622 
L 135.903817 280.462021 
L 137.528714 283.191244 
L 137.853694 282.688328 
L 138.178673 283.018691 
L 138.503653 282.502873 
L 138.828632 282.199448 
L 139.153612 282.958003 
L 139.478591 282.999759 
L 139.803571 283.704505 
L 140.12855 283.19521 
L 140.45353 283.529132 
L 140.778509 282.85824 
L 141.103489 283.355573 
L 141.428468 284.316082 
L 141.753448 284.077135 
L 142.078428 284.63293 
L 142.403407 283.83676 
L 142.728387 284.512348 
L 143.053366 283.465331 
L 144.028305 285.412486 
L 144.353284 285.19993 
L 144.678264 286.043756 
L 145.003243 286.156942 
L 145.653202 286.85698 
L 145.978182 287.742912 
L 146.303161 288.163692 
L 146.628141 287.238215 
L 146.95312 286.920055 
L 147.928059 288.860749 
L 148.253038 289.458105 
L 148.578018 289.217171 
L 148.902998 289.635766 
L 149.227977 290.405457 
L 149.877936 291.266848 
L 150.202916 290.813893 
L 150.852875 289.640708 
L 151.177854 289.404566 
L 151.502834 289.46203 
L 152.152793 290.440516 
L 152.477772 290.856656 
L 152.802752 291.595553 
L 153.127731 291.568036 
L 153.452711 291.128447 
L 153.77769 291.846725 
L 154.10267 291.535622 
L 154.752629 290.413418 
L 155.077609 291.134328 
L 155.402588 290.648512 
L 155.727568 290.918903 
L 156.052547 291.452898 
L 157.352465 290.073868 
L 157.677445 290.609355 
L 158.002424 290.261546 
L 158.977363 290.876224 
L 159.627322 292.313594 
L 159.952301 292.666517 
L 160.277281 292.269258 
L 160.60226 292.46402 
L 160.92724 292.277774 
L 161.252219 292.754232 
L 161.577199 292.467488 
L 161.902179 292.812369 
L 162.227158 292.407074 
L 162.552138 292.932236 
L 163.202097 291.858311 
L 163.527076 292.473572 
L 163.852056 292.78915 
L 164.502015 291.833147 
L 164.826994 292.317823 
L 165.801933 290.845866 
L 166.126912 290.942195 
L 167.101851 292.618954 
L 167.42683 292.996077 
L 167.75181 292.533196 
L 168.07679 292.729407 
L 169.051728 294.034946 
L 169.376708 293.610506 
L 170.026667 294.20678 
L 170.351646 293.569 
L 170.676626 293.85622 
L 171.001605 293.359095 
L 171.326585 293.506493 
L 171.651564 294.153464 
L 171.976544 293.629182 
L 172.301523 293.40692 
L 172.951482 294.441669 
L 173.276462 294.069716 
L 173.601441 294.258753 
L 173.926421 294.744305 
L 174.2514 294.303768 
L 174.57638 294.507625 
L 174.90136 294.026694 
L 175.226339 294.479772 
L 175.551319 294.309392 
L 176.201278 295.256503 
L 176.851237 294.670675 
L 177.176216 295.107495 
L 178.151155 294.308004 
L 178.476134 293.879549 
L 178.801114 293.689904 
L 180.101032 294.946212 
L 180.426011 294.57843 
L 181.075971 293.443545 
L 181.72593 292.754098 
L 182.700868 293.896427 
L 183.025848 293.710592 
L 183.350827 293.314432 
L 183.675807 293.807995 
L 184.000786 294.023854 
L 184.650745 293.296923 
L 184.975725 293.492008 
L 185.300704 293.922637 
L 185.625684 293.57139 
L 185.950663 294.049507 
L 186.600622 294.524391 
L 186.925602 293.937905 
L 187.250581 294.311204 
L 187.575561 293.958835 
L 187.900541 294.15769 
L 188.22552 293.841452 
L 188.875479 294.387643 
L 189.200459 294.211509 
L 189.525438 294.571321 
L 189.850418 294.237921 
L 190.175397 294.60255 
L 190.500377 294.260633 
L 190.825356 294.10953 
L 191.150336 294.121873 
L 191.800295 293.619854 
L 192.450254 294.436044 
L 192.775233 294.250103 
L 193.100213 293.876687 
L 193.425192 294.265897 
L 194.075152 294.006254 
L 195.05009 294.80771 
L 195.37507 295.039882 
L 195.700049 294.720199 
L 196.025029 294.972753 
L 196.350008 294.692159 
L 197.324947 295.488 
L 197.649926 295.123128 
L 197.974906 295.306982 
L 198.624865 294.513174 
L 198.949844 294.904268 
L 199.274824 295.027293 
L 199.599803 295.402601 
L 199.924783 294.974884 
L 200.574742 295.359999 
L 201.224701 294.724131 
L 201.549681 294.865999 
L 202.19964 294.289113 
L 202.524619 294.22902 
L 202.849599 294.46734 
L 205.124455 292.630212 
L 205.449435 293.004764 
L 206.424373 293.51961 
L 207.074333 294.063012 
L 207.399312 293.822288 
L 207.724292 294.020641 
L 208.049271 293.662766 
L 208.69923 293.910907 
L 209.349189 293.481766 
L 209.674169 293.689735 
L 210.324128 293.346074 
L 210.974087 294.145774 
L 211.299066 294.305722 
L 211.624046 294.063957 
L 211.949025 294.119978 
L 212.598984 294.512295 
L 212.923964 294.329957 
L 213.248943 294.490991 
L 213.573923 294.842682 
L 213.898903 294.52163 
L 214.223882 294.863112 
L 214.548862 294.980134 
L 214.873841 294.939623 
L 215.198821 295.256164 
L 215.5238 294.951569 
L 215.84878 295.271149 
L 216.173759 292.669877 
L 216.498739 292.364993 
L 216.823718 292.664216 
L 217.148698 292.346301 
L 217.473677 292.448484 
L 218.123636 291.88765 
L 218.448616 292.023398 
L 218.773595 291.74305 
L 219.098575 292.042969 
L 219.423554 292.069018 
L 219.748534 292.33925 
L 220.073514 292.152072 
L 220.398493 292.361139 
L 221.048452 292.104356 
L 221.373432 292.312661 
L 222.023391 291.768465 
L 222.34837 292.074305 
L 222.998329 291.858416 
L 223.323309 292.276013 
L 223.648288 291.910275 
L 223.973268 291.790662 
L 224.298247 292.107484 
L 224.623227 291.746112 
L 225.273186 292.331333 
L 225.598165 291.820003 
L 225.923145 292.110076 
L 226.248124 291.842656 
L 226.573104 292.051851 
L 226.898084 292.024344 
L 227.548043 292.42991 
L 227.873022 292.118956 
L 228.198002 292.449694 
L 228.522981 292.301556 
L 228.847961 292.421155 
L 230.147879 291.767281 
L 231.122817 292.700649 
L 231.447797 292.526124 
L 231.772776 292.877306 
L 232.097756 292.729822 
L 232.747715 293.220822 
L 233.072695 292.867054 
L 233.397674 293.083075 
L 233.722654 292.777063 
L 234.047633 292.95246 
L 234.697592 293.6115 
L 235.347551 293.153506 
L 235.672531 293.066833 
L 235.99751 292.785976 
L 236.647469 293.362339 
L 237.297428 292.950655 
L 237.947387 292.461144 
L 238.272367 292.561572 
L 238.922326 292.4389 
L 239.247305 292.462718 
L 239.897265 292.110437 
L 240.222244 292.386198 
L 240.547224 292.273692 
L 240.872203 292.470384 
L 241.522162 293.214604 
L 241.847142 293.3743 
L 242.172121 293.39041 
L 242.497101 293.216354 
L 243.14706 293.561778 
L 244.446978 292.63956 
L 244.771957 292.742412 
L 245.096937 292.634651 
L 245.421916 292.941824 
L 245.746896 292.682598 
L 246.071876 292.795958 
L 246.396855 292.485962 
L 247.046814 292.921118 
L 248.021753 292.528376 
L 248.346732 292.161148 
L 248.671712 292.432051 
L 248.996691 292.306397 
L 249.64665 292.832726 
L 249.97163 292.703435 
L 250.296609 292.808968 
L 250.621589 292.589913 
L 250.946568 292.943245 
L 251.271548 293.015107 
L 251.921507 292.394181 
L 252.246486 292.264025 
L 252.571466 292.404762 
L 252.896446 292.214696 
L 253.546405 292.543108 
L 253.871384 292.627784 
L 255.171302 292.146422 
L 255.821261 292.4947 
L 256.146241 292.238509 
L 256.47122 292.338194 
L 257.121179 292.010936 
L 258.421097 292.951 
L 258.746077 292.83685 
L 260.045995 293.372804 
L 260.370975 293.17324 
L 261.020934 293.46673 
L 261.345913 293.070787 
L 261.670893 293.291572 
L 261.995872 293.187462 
L 262.645831 292.739088 
L 263.29579 292.415706 
L 263.945749 292.008351 
L 264.270729 292.110492 
L 264.920688 291.659132 
L 265.245667 291.849879 
L 266.220606 290.954541 
L 266.545586 291.185184 
L 267.195545 290.815578 
L 267.520524 290.980696 
L 268.170483 290.667105 
L 268.495463 290.832938 
L 269.145422 290.430859 
L 270.12036 290.77162 
L 271.420278 290.138269 
L 271.745258 290.30164 
L 272.070238 290.107462 
L 272.395217 290.106577 
L 272.720197 289.959377 
L 273.695135 290.537024 
L 274.020115 290.425917 
L 274.345094 290.567873 
L 274.995053 291.186421 
L 275.320033 290.965484 
L 275.645012 290.884252 
L 275.969992 290.580497 
L 276.294971 290.793277 
L 276.619951 290.840836 
L 277.26991 290.553789 
L 277.919869 290.949317 
L 278.244848 290.863157 
L 278.569828 291.151146 
L 279.219787 290.945186 
L 279.869746 291.491794 
L 280.519705 291.17717 
L 281.494644 291.562279 
L 282.144603 291.357019 
L 282.794562 291.625088 
L 283.444521 291.307728 
L 283.7695 291.331866 
L 284.09448 291.165768 
L 284.419459 291.248942 
L 285.069419 290.998282 
L 285.394398 290.789777 
L 286.369337 291.175996 
L 286.694316 291.083097 
L 287.019296 290.856006 
L 287.669255 291.165528 
L 287.994234 290.962377 
L 288.319214 291.163452 
L 288.644193 290.809136 
L 289.294152 290.536243 
L 289.619132 290.64441 
L 289.944111 290.530549 
L 290.59407 290.847028 
L 291.244029 291.180437 
L 291.569009 291.257926 
L 291.893989 291.081867 
L 292.543948 291.414892 
L 292.868927 291.173635 
L 293.193907 291.396017 
L 293.518886 291.247791 
L 293.843866 291.39121 
L 294.818804 290.891716 
L 295.143784 291.169285 
L 295.468763 291.080304 
L 295.793743 291.27717 
L 296.118722 290.993099 
L 297.093661 291.247841 
L 297.41864 288.495533 
L 298.0686 288.100395 
L 298.393579 288.224148 
L 298.718559 287.419685 
L 299.043538 287.623709 
L 299.368518 287.414792 
L 299.693497 287.59166 
L 300.668436 287.160597 
L 301.643374 286.57721 
L 301.968354 286.049467 
L 302.618313 286.356941 
L 302.943292 286.240614 
L 303.268272 286.511902 
L 303.918231 286.219124 
L 304.24321 286.001912 
L 304.56819 286.16196 
L 305.218149 285.77418 
L 305.543129 285.946502 
L 306.518067 285.908662 
L 306.843047 286.176552 
L 307.168026 286.098925 
L 307.817985 286.339191 
L 308.142965 286.041906 
L 308.467944 286.159493 
L 308.792924 285.927851 
L 309.767862 285.90169 
L 310.092842 285.636682 
L 310.417821 285.831004 
L 310.742801 285.830734 
L 311.067781 285.963942 
L 312.042719 285.966318 
L 313.017658 285.677831 
L 313.342637 285.774534 
L 314.317576 285.377734 
L 314.967535 285.64619 
L 315.617494 285.92062 
L 315.942473 285.780415 
L 316.267453 285.898643 
L 316.917412 285.579207 
L 317.242391 285.748177 
L 317.567371 285.658886 
L 317.892351 285.31264 
L 318.21733 285.232532 
L 318.54231 285.317203 
L 318.867289 285.210622 
L 319.192269 285.341975 
L 319.517248 285.199784 
L 319.842228 285.424199 
L 320.167207 285.423457 
L 320.492187 285.204025 
L 320.817166 285.376787 
L 321.142146 285.224115 
L 321.792105 285.386116 
L 322.117084 285.251768 
L 323.092023 285.705055 
L 324.066962 285.122763 
L 325.36688 285.743793 
L 325.691859 285.624342 
L 326.341818 285.806741 
L 326.666798 285.659421 
L 329.591613 286.751432 
L 330.241572 286.351425 
L 330.566552 286.438502 
L 330.891532 286.236164 
L 331.541491 286.010928 
L 331.86647 285.715516 
L 332.19145 285.77938 
L 332.516429 285.681455 
L 332.841409 285.743376 
L 333.491368 286.093465 
L 334.141327 285.814813 
L 334.466306 285.994342 
L 334.791286 285.84616 
L 335.116265 285.990417 
L 335.441245 285.687332 
L 335.766224 285.580543 
L 336.091204 285.742518 
L 336.416183 285.729515 
L 337.716102 286.311632 
L 338.69104 286.888155 
L 339.01602 287.00328 
L 339.340999 286.9143 
L 339.665979 287.018323 
L 340.315938 286.687733 
L 341.290876 287.117692 
L 342.590794 286.427452 
L 342.915774 286.218728 
L 343.565733 286.298966 
L 344.215692 286.518627 
L 344.540672 286.310493 
L 345.51561 286.74252 
L 346.165569 286.355391 
L 346.815528 286.608702 
L 347.790467 287.025384 
L 348.115446 287.127696 
L 348.440426 287.34878 
L 348.765405 287.228509 
L 349.090385 287.278968 
L 349.415364 287.066741 
L 349.740344 287.216966 
L 350.065324 287.024704 
L 350.390303 287.122664 
L 350.715283 286.976759 
L 351.365242 287.256012 
L 351.690221 287.099343 
L 352.66516 287.442897 
L 352.990139 287.252064 
L 353.315119 287.193234 
L 353.640098 287.248019 
L 354.615037 286.764949 
L 354.940016 286.773934 
L 355.264996 286.518987 
L 355.589975 286.627751 
L 356.239934 286.315446 
L 356.564914 286.247208 
L 357.214873 286.47172 
L 357.864832 286.71649 
L 358.839771 286.549051 
L 360.139689 286.903746 
L 360.464668 286.758271 
L 360.789648 286.823122 
L 361.114627 286.660343 
L 363.064505 287.516259 
L 363.714464 287.232789 
L 364.039443 287.051706 
L 364.364423 287.133885 
L 366.964259 286.37459 
L 367.289238 286.249582 
L 367.614218 286.392048 
L 368.914136 285.960844 
L 369.239115 286.042808 
L 369.889075 285.682828 
L 370.539034 285.96263 
L 370.864013 286.096782 
L 371.513972 285.819247 
L 373.463849 284.911804 
L 374.113808 284.644905 
L 374.438788 284.792319 
L 376.713645 284.423643 
L 377.363604 284.67208 
L 377.688583 284.4469 
L 378.013563 284.538355 
L 378.338542 284.352292 
L 378.663522 284.403386 
L 378.988501 284.59551 
L 379.63846 284.417168 
L 380.288419 284.61941 
L 381.588337 284.131983 
L 382.563276 284.504677 
L 382.888256 284.348622 
L 383.213235 284.481328 
L 383.538215 284.410289 
L 383.863194 284.542377 
L 384.513153 284.31711 
L 385.813071 283.751729 
L 386.78801 284.126045 
L 387.437969 283.962009 
L 388.412907 284.098577 
L 388.737887 283.861007 
L 390.362785 284.200552 
L 390.687764 284.357773 
L 391.337723 284.141709 
L 391.662703 284.037758 
L 391.987682 284.223304 
L 392.312662 284.078236 
L 392.637641 284.130878 
L 392.962621 284.046046 
L 394.262539 284.603433 
L 395.237477 284.225782 
L 395.887437 284.507688 
L 396.862375 284.23393 
L 397.512334 284.361207 
L 398.162293 284.132762 
L 398.487273 284.037407 
L 398.487273 284.037407 
" clip-path="url(#pbd06f65c7f)" style="fill: none; stroke: #1f77b4; stroke-width: 1.5; stroke-linecap: square"/>
   </g>
   <g id="patch_3">
    <path d="M 57.6 307.584 
L 57.6 41.472 
" style="fill: none; stroke: #000000; stroke-width: 0.8; stroke-linejoin: miter; stroke-linecap: square"/>
   </g>
   <g id="patch_4">
    <path d="M 414.72 307.584 
L 414.72 41.472 
" style="fill: none; stroke: #000000; stroke-width: 0.8; stroke-linejoin: miter; stroke-linecap: square"/>
   </g>
   <g id="patch_5">
    <path d="M 57.6 307.584 
L 414.72 307.584 
" style="fill: none; stroke: #000000; stroke-width: 0.8; stroke-linejoin: miter; stroke-linecap: square"/>
   </g>
   <g id="patch_6">
    <path d="M 57.6 41.472 
L 414.72 41.472 
" style="fill: none; stroke: #000000; stroke-width: 0.8; stroke-linejoin: miter; stroke-linecap: square"/>
   </g>
   <g id="text_15">
    <!-- Tempo x Requisição -->
    <g transform="translate(176.824687 35.472) scale(0.12 -0.12)">
     <defs>
      <path id="DejaVuSans-20" transform="scale(0.015625)"/>
      <path id="DejaVuSans-78" d="M 3513 3500 
L 2247 1797 
L 3578 0 
L 2900 0 
L 1881 1375 
L 863 0 
L 184 0 
L 1544 1831 
L 300 3500 
L 978 3500 
L 1906 2253 
L 2834 3500 
L 3513 3500 
z
" transform="scale(0.015625)"/>
      <path id="DejaVuSans-e3" d="M 2194 1759 
Q 1497 1759 1228 1600 
Q 959 1441 959 1056 
Q 959 750 1161 570 
Q 1363 391 1709 391 
Q 2188 391 2477 730 
Q 2766 1069 2766 1631 
L 2766 1759 
L 2194 1759 
z
M 3341 1997 
L 3341 0 
L 2766 0 
L 2766 531 
Q 2569 213 2275 61 
Q 1981 -91 1556 -91 
Q 1019 -91 701 211 
Q 384 513 384 1019 
Q 384 1609 779 1909 
Q 1175 2209 1959 2209 
L 2766 2209 
L 2766 2266 
Q 2766 2663 2505 2880 
Q 2244 3097 1772 3097 
Q 1472 3097 1187 3025 
Q 903 2953 641 2809 
L 641 3341 
Q 956 3463 1253 3523 
Q 1550 3584 1831 3584 
Q 2591 3584 2966 3190 
Q 3341 2797 3341 1997 
z
M 1844 4281 
L 1665 4453 
Q 1597 4516 1545 4545 
Q 1494 4575 1453 4575 
Q 1334 4575 1278 4461 
Q 1222 4347 1215 4091 
L 825 4091 
Q 831 4513 990 4742 
Q 1150 4972 1434 4972 
Q 1553 4972 1653 4928 
Q 1753 4884 1869 4781 
L 2047 4609 
Q 2115 4547 2167 4517 
Q 2219 4488 2259 4488 
Q 2378 4488 2434 4602 
Q 2490 4716 2497 4972 
L 2887 4972 
Q 2881 4550 2721 4320 
Q 2562 4091 2278 4091 
Q 2159 4091 2059 4134 
Q 1959 4178 1844 4281 
z
" transform="scale(0.015625)"/>
     </defs>
     <use xlink:href="#DejaVuSans-54"/>
     <use xlink:href="#DejaVuSans-65" x="44.083984"/>
     <use xlink:href="#DejaVuSans-6d" x="105.607422"/>
     <use xlink:href="#DejaVuSans-70" x="203.019531"/>
     <use xlink:href="#DejaVuSans-6f" x="266.496094"/>
     <use xlink:href="#DejaVuSans-20" x="327.677734"/>
     <use xlink:href="#DejaVuSans-78" x="359.464844"/>
     <use xlink:href="#DejaVuSans-20" x="418.644531"/>
     <use xlink:href="#DejaVuSans-52" x="450.431641"/>
     <use xlink:href="#DejaVuSans-65" x="515.414062"/>
     <use xlink:href="#DejaVuSans-71" x="576.9375"/>
     <use xlink:href="#DejaVuSans-75" x="640.414062"/>
     <use xlink:href="#DejaVuSans-69" x="703.792969"/>
     <use xlink:href="#DejaVuSans-73" x="731.576172"/>
     <use xlink:href="#DejaVuSans-69" x="783.675781"/>
     <use xlink:href="#DejaVuSans-e7" x="811.458984"/>
     <use xlink:href="#DejaVuSans-e3" x="866.439453"/>
     <use xlink:href="#DejaVuSans-6f" x="927.71875"/>
    </g>
   </g>
  </g>
 </g>
 <defs>
  <clipPath id="pbd06f65c7f">
   <rect x="57.6" y="41.472" width="357.12" height="266.112"/>
  </clipPath>
 </defs>
</svg>
