<?xml version="1.0" encoding="utf-8" standalone="no"?>
<!DOCTYPE svg PUBLIC "-//W3C//DTD SVG 1.1//EN"
  "http://www.w3.org/Graphics/SVG/1.1/DTD/svg11.dtd">
<svg xmlns:xlink="http://www.w3.org/1999/xlink" width="460.8pt" height="345.6pt" viewBox="0 0 460.8 345.6" xmlns="http://www.w3.org/2000/svg" version="1.1">
 <metadata>
  <rdf:RDF xmlns:dc="http://purl.org/dc/elements/1.1/" xmlns:cc="http://creativecommons.org/ns#" xmlns:rdf="http://www.w3.org/1999/02/22-rdf-syntax-ns#">
   <cc:Work>
    <dc:type rdf:resource="http://purl.org/dc/dcmitype/StillImage"/>
    <dc:date>2023-03-14T00:22:14.731672</dc:date>
    <dc:format>image/svg+xml</dc:format>
    <dc:creator>
     <cc:Agent>
      <dc:title>Matplotlib v3.7.0, https://matplotlib.org/</dc:title>
     </cc:Agent>
    </dc:creator>
   </cc:Work>
  </rdf:RDF>
 </metadata>
 <defs>
  <style type="text/css">*{stroke-linejoin: round; stroke-linecap: butt}</style>
 </defs>
 <g id="figure_1">
  <g id="patch_1">
   <path d="M 0 345.6 
L 460.8 345.6 
L 460.8 0 
L 0 0 
z
" style="fill: #ffffff"/>
  </g>
  <g id="axes_1">
   <g id="patch_2">
    <path d="M 57.6 307.584 
L 414.72 307.584 
L 414.72 41.472 
L 57.6 41.472 
z
" style="fill: #ffffff"/>
   </g>
   <g id="matplotlib.axis_1">
    <g id="xtick_1">
     <g id="line2d_1">
      <defs>
       <path id="mf52c4c3aa8" d="M 0 0 
L 0 3.5 
" style="stroke: #000000; stroke-width: 0.8"/>
      </defs>
      <g>
       <use xlink:href="#mf52c4c3aa8" x="73.832727" y="307.584" style="stroke: #000000; stroke-width: 0.8"/>
      </g>
     </g>
     <g id="text_1">
      <!-- 0 -->
      <g transform="translate(70.651477 322.182437) scale(0.1 -0.1)">
       <defs>
        <path id="DejaVuSans-30" d="M 2034 4250 
Q 1547 4250 1301 3770 
Q 1056 3291 1056 2328 
Q 1056 1369 1301 889 
Q 1547 409 2034 409 
Q 2525 409 2770 889 
Q 3016 1369 3016 2328 
Q 3016 3291 2770 3770 
Q 2525 4250 2034 4250 
z
M 2034 4750 
Q 2819 4750 3233 4129 
Q 3647 3509 3647 2328 
Q 3647 1150 3233 529 
Q 2819 -91 2034 -91 
Q 1250 -91 836 529 
Q 422 1150 422 2328 
Q 422 3509 836 4129 
Q 1250 4750 2034 4750 
z
" transform="scale(0.015625)"/>
       </defs>
       <use xlink:href="#DejaVuSans-30"/>
      </g>
     </g>
    </g>
    <g id="xtick_2">
     <g id="line2d_2">
      <g>
       <use xlink:href="#mf52c4c3aa8" x="138.893758" y="307.584" style="stroke: #000000; stroke-width: 0.8"/>
      </g>
     </g>
     <g id="text_2">
      <!-- 100 -->
      <g transform="translate(129.350008 322.182437) scale(0.1 -0.1)">
       <defs>
        <path id="DejaVuSans-31" d="M 794 531 
L 1825 531 
L 1825 4091 
L 703 3866 
L 703 4441 
L 1819 4666 
L 2450 4666 
L 2450 531 
L 3481 531 
L 3481 0 
L 794 0 
L 794 531 
z
" transform="scale(0.015625)"/>
       </defs>
       <use xlink:href="#DejaVuSans-31"/>
       <use xlink:href="#DejaVuSans-30" x="63.623047"/>
       <use xlink:href="#DejaVuSans-30" x="127.246094"/>
      </g>
     </g>
    </g>
    <g id="xtick_3">
     <g id="line2d_3">
      <g>
       <use xlink:href="#mf52c4c3aa8" x="203.95479" y="307.584" style="stroke: #000000; stroke-width: 0.8"/>
      </g>
     </g>
     <g id="text_3">
      <!-- 200 -->
      <g transform="translate(194.41104 322.182437) scale(0.1 -0.1)">
       <defs>
        <path id="DejaVuSans-32" d="M 1228 531 
L 3431 531 
L 3431 0 
L 469 0 
L 469 531 
Q 828 903 1448 1529 
Q 2069 2156 2228 2338 
Q 2531 2678 2651 2914 
Q 2772 3150 2772 3378 
Q 2772 3750 2511 3984 
Q 2250 4219 1831 4219 
Q 1534 4219 1204 4116 
Q 875 4013 500 3803 
L 500 4441 
Q 881 4594 1212 4672 
Q 1544 4750 1819 4750 
Q 2544 4750 2975 4387 
Q 3406 4025 3406 3419 
Q 3406 3131 3298 2873 
Q 3191 2616 2906 2266 
Q 2828 2175 2409 1742 
Q 1991 1309 1228 531 
z
" transform="scale(0.015625)"/>
       </defs>
       <use xlink:href="#DejaVuSans-32"/>
       <use xlink:href="#DejaVuSans-30" x="63.623047"/>
       <use xlink:href="#DejaVuSans-30" x="127.246094"/>
      </g>
     </g>
    </g>
    <g id="xtick_4">
     <g id="line2d_4">
      <g>
       <use xlink:href="#mf52c4c3aa8" x="269.015821" y="307.584" style="stroke: #000000; stroke-width: 0.8"/>
      </g>
     </g>
     <g id="text_4">
      <!-- 300 -->
      <g transform="translate(259.472071 322.182437) scale(0.1 -0.1)">
       <defs>
        <path id="DejaVuSans-33" d="M 2597 2516 
Q 3050 2419 3304 2112 
Q 3559 1806 3559 1356 
Q 3559 666 3084 287 
Q 2609 -91 1734 -91 
Q 1441 -91 1130 -33 
Q 819 25 488 141 
L 488 750 
Q 750 597 1062 519 
Q 1375 441 1716 441 
Q 2309 441 2620 675 
Q 2931 909 2931 1356 
Q 2931 1769 2642 2001 
Q 2353 2234 1838 2234 
L 1294 2234 
L 1294 2753 
L 1863 2753 
Q 2328 2753 2575 2939 
Q 2822 3125 2822 3475 
Q 2822 3834 2567 4026 
Q 2313 4219 1838 4219 
Q 1578 4219 1281 4162 
Q 984 4106 628 3988 
L 628 4550 
Q 988 4650 1302 4700 
Q 1616 4750 1894 4750 
Q 2613 4750 3031 4423 
Q 3450 4097 3450 3541 
Q 3450 3153 3228 2886 
Q 3006 2619 2597 2516 
z
" transform="scale(0.015625)"/>
       </defs>
       <use xlink:href="#DejaVuSans-33"/>
       <use xlink:href="#DejaVuSans-30" x="63.623047"/>
       <use xlink:href="#DejaVuSans-30" x="127.246094"/>
      </g>
     </g>
    </g>
    <g id="xtick_5">
     <g id="line2d_5">
      <g>
       <use xlink:href="#mf52c4c3aa8" x="334.076852" y="307.584" style="stroke: #000000; stroke-width: 0.8"/>
      </g>
     </g>
     <g id="text_5">
      <!-- 400 -->
      <g transform="translate(324.533102 322.182437) scale(0.1 -0.1)">
       <defs>
        <path id="DejaVuSans-34" d="M 2419 4116 
L 825 1625 
L 2419 1625 
L 2419 4116 
z
M 2253 4666 
L 3047 4666 
L 3047 1625 
L 3713 1625 
L 3713 1100 
L 3047 1100 
L 3047 0 
L 2419 0 
L 2419 1100 
L 313 1100 
L 313 1709 
L 2253 4666 
z
" transform="scale(0.015625)"/>
       </defs>
       <use xlink:href="#DejaVuSans-34"/>
       <use xlink:href="#DejaVuSans-30" x="63.623047"/>
       <use xlink:href="#DejaVuSans-30" x="127.246094"/>
      </g>
     </g>
    </g>
    <g id="xtick_6">
     <g id="line2d_6">
      <g>
       <use xlink:href="#mf52c4c3aa8" x="399.137883" y="307.584" style="stroke: #000000; stroke-width: 0.8"/>
      </g>
     </g>
     <g id="text_6">
      <!-- 500 -->
      <g transform="translate(389.594133 322.182437) scale(0.1 -0.1)">
       <defs>
        <path id="DejaVuSans-35" d="M 691 4666 
L 3169 4666 
L 3169 4134 
L 1269 4134 
L 1269 2991 
Q 1406 3038 1543 3061 
Q 1681 3084 1819 3084 
Q 2600 3084 3056 2656 
Q 3513 2228 3513 1497 
Q 3513 744 3044 326 
Q 2575 -91 1722 -91 
Q 1428 -91 1123 -41 
Q 819 9 494 109 
L 494 744 
Q 775 591 1075 516 
Q 1375 441 1709 441 
Q 2250 441 2565 725 
Q 2881 1009 2881 1497 
Q 2881 1984 2565 2268 
Q 2250 2553 1709 2553 
Q 1456 2553 1204 2497 
Q 953 2441 691 2322 
L 691 4666 
z
" transform="scale(0.015625)"/>
       </defs>
       <use xlink:href="#DejaVuSans-35"/>
       <use xlink:href="#DejaVuSans-30" x="63.623047"/>
       <use xlink:href="#DejaVuSans-30" x="127.246094"/>
      </g>
     </g>
    </g>
    <g id="text_7">
     <!-- Requisições -->
     <g transform="translate(206.618594 336.030875) scale(0.1 -0.1)">
      <defs>
       <path id="DejaVuSans-52" d="M 2841 2188 
Q 3044 2119 3236 1894 
Q 3428 1669 3622 1275 
L 4263 0 
L 3584 0 
L 2988 1197 
Q 2756 1666 2539 1819 
Q 2322 1972 1947 1972 
L 1259 1972 
L 1259 0 
L 628 0 
L 628 4666 
L 2053 4666 
Q 2853 4666 3247 4331 
Q 3641 3997 3641 3322 
Q 3641 2881 3436 2590 
Q 3231 2300 2841 2188 
z
M 1259 4147 
L 1259 2491 
L 2053 2491 
Q 2509 2491 2742 2702 
Q 2975 2913 2975 3322 
Q 2975 3731 2742 3939 
Q 2509 4147 2053 4147 
L 1259 4147 
z
" transform="scale(0.015625)"/>
       <path id="DejaVuSans-65" d="M 3597 1894 
L 3597 1613 
L 953 1613 
Q 991 1019 1311 708 
Q 1631 397 2203 397 
Q 2534 397 2845 478 
Q 3156 559 3463 722 
L 3463 178 
Q 3153 47 2828 -22 
Q 2503 -91 2169 -91 
Q 1331 -91 842 396 
Q 353 884 353 1716 
Q 353 2575 817 3079 
Q 1281 3584 2069 3584 
Q 2775 3584 3186 3129 
Q 3597 2675 3597 1894 
z
M 3022 2063 
Q 3016 2534 2758 2815 
Q 2500 3097 2075 3097 
Q 1594 3097 1305 2825 
Q 1016 2553 972 2059 
L 3022 2063 
z
" transform="scale(0.015625)"/>
       <path id="DejaVuSans-71" d="M 947 1747 
Q 947 1113 1208 752 
Q 1469 391 1925 391 
Q 2381 391 2643 752 
Q 2906 1113 2906 1747 
Q 2906 2381 2643 2742 
Q 2381 3103 1925 3103 
Q 1469 3103 1208 2742 
Q 947 2381 947 1747 
z
M 2906 525 
Q 2725 213 2448 61 
Q 2172 -91 1784 -91 
Q 1150 -91 751 415 
Q 353 922 353 1747 
Q 353 2572 751 3078 
Q 1150 3584 1784 3584 
Q 2172 3584 2448 3432 
Q 2725 3281 2906 2969 
L 2906 3500 
L 3481 3500 
L 3481 -1331 
L 2906 -1331 
L 2906 525 
z
" transform="scale(0.015625)"/>
       <path id="DejaVuSans-75" d="M 544 1381 
L 544 3500 
L 1119 3500 
L 1119 1403 
Q 1119 906 1312 657 
Q 1506 409 1894 409 
Q 2359 409 2629 706 
Q 2900 1003 2900 1516 
L 2900 3500 
L 3475 3500 
L 3475 0 
L 2900 0 
L 2900 538 
Q 2691 219 2414 64 
Q 2138 -91 1772 -91 
Q 1169 -91 856 284 
Q 544 659 544 1381 
z
M 1991 3584 
L 1991 3584 
z
" transform="scale(0.015625)"/>
       <path id="DejaVuSans-69" d="M 603 3500 
L 1178 3500 
L 1178 0 
L 603 0 
L 603 3500 
z
M 603 4863 
L 1178 4863 
L 1178 4134 
L 603 4134 
L 603 4863 
z
" transform="scale(0.015625)"/>
       <path id="DejaVuSans-73" d="M 2834 3397 
L 2834 2853 
Q 2591 2978 2328 3040 
Q 2066 3103 1784 3103 
Q 1356 3103 1142 2972 
Q 928 2841 928 2578 
Q 928 2378 1081 2264 
Q 1234 2150 1697 2047 
L 1894 2003 
Q 2506 1872 2764 1633 
Q 3022 1394 3022 966 
Q 3022 478 2636 193 
Q 2250 -91 1575 -91 
Q 1294 -91 989 -36 
Q 684 19 347 128 
L 347 722 
Q 666 556 975 473 
Q 1284 391 1588 391 
Q 1994 391 2212 530 
Q 2431 669 2431 922 
Q 2431 1156 2273 1281 
Q 2116 1406 1581 1522 
L 1381 1569 
Q 847 1681 609 1914 
Q 372 2147 372 2553 
Q 372 3047 722 3315 
Q 1072 3584 1716 3584 
Q 2034 3584 2315 3537 
Q 2597 3491 2834 3397 
z
" transform="scale(0.015625)"/>
       <path id="DejaVuSans-e7" d="M 3122 3366 
L 3122 2828 
Q 2878 2963 2633 3030 
Q 2388 3097 2138 3097 
Q 1578 3097 1268 2742 
Q 959 2388 959 1747 
Q 959 1106 1268 751 
Q 1578 397 2138 397 
Q 2388 397 2633 464 
Q 2878 531 3122 666 
L 3122 134 
Q 2881 22 2623 -34 
Q 2366 -91 2075 -91 
Q 1284 -91 818 406 
Q 353 903 353 1747 
Q 353 2603 823 3093 
Q 1294 3584 2113 3584 
Q 2378 3584 2631 3529 
Q 2884 3475 3122 3366 
z
M 2311 0 
Q 2482 -194 2566 -358 
Q 2651 -522 2651 -672 
Q 2651 -950 2463 -1092 
Q 2276 -1234 1907 -1234 
Q 1764 -1234 1628 -1215 
Q 1492 -1197 1357 -1159 
L 1357 -750 
Q 1464 -803 1579 -826 
Q 1695 -850 1842 -850 
Q 2026 -850 2120 -775 
Q 2214 -700 2214 -556 
Q 2214 -463 2146 -327 
Q 2079 -191 1939 0 
L 2311 0 
z
" transform="scale(0.015625)"/>
       <path id="DejaVuSans-f5" d="M 1959 3097 
Q 1497 3097 1228 2736 
Q 959 2375 959 1747 
Q 959 1119 1226 758 
Q 1494 397 1959 397 
Q 2419 397 2687 759 
Q 2956 1122 2956 1747 
Q 2956 2369 2687 2733 
Q 2419 3097 1959 3097 
z
M 1959 3584 
Q 2709 3584 3137 3096 
Q 3566 2609 3566 1747 
Q 3566 888 3137 398 
Q 2709 -91 1959 -91 
Q 1206 -91 779 398 
Q 353 888 353 1747 
Q 353 2609 779 3096 
Q 1206 3584 1959 3584 
z
M 1948 4281 
L 1769 4453 
Q 1701 4516 1649 4545 
Q 1598 4575 1557 4575 
Q 1438 4575 1382 4461 
Q 1326 4347 1319 4091 
L 929 4091 
Q 935 4513 1094 4742 
Q 1254 4972 1538 4972 
Q 1657 4972 1757 4928 
Q 1857 4884 1973 4781 
L 2151 4609 
Q 2219 4547 2271 4517 
Q 2323 4488 2363 4488 
Q 2482 4488 2538 4602 
Q 2594 4716 2601 4972 
L 2991 4972 
Q 2985 4550 2825 4320 
Q 2666 4091 2382 4091 
Q 2263 4091 2163 4134 
Q 2063 4178 1948 4281 
z
" transform="scale(0.015625)"/>
      </defs>
      <use xlink:href="#DejaVuSans-52"/>
      <use xlink:href="#DejaVuSans-65" x="64.982422"/>
      <use xlink:href="#DejaVuSans-71" x="126.505859"/>
      <use xlink:href="#DejaVuSans-75" x="189.982422"/>
      <use xlink:href="#DejaVuSans-69" x="253.361328"/>
      <use xlink:href="#DejaVuSans-73" x="281.144531"/>
      <use xlink:href="#DejaVuSans-69" x="333.244141"/>
      <use xlink:href="#DejaVuSans-e7" x="361.027344"/>
      <use xlink:href="#DejaVuSans-f5" x="416.007812"/>
      <use xlink:href="#DejaVuSans-65" x="477.189453"/>
      <use xlink:href="#DejaVuSans-73" x="538.712891"/>
     </g>
    </g>
   </g>
   <g id="matplotlib.axis_2">
    <g id="ytick_1">
     <g id="line2d_7">
      <defs>
       <path id="mc718c1b14f" d="M 0 0 
L -3.5 0 
" style="stroke: #000000; stroke-width: 0.8"/>
      </defs>
      <g>
       <use xlink:href="#mc718c1b14f" x="57.6" y="306.2167" style="stroke: #000000; stroke-width: 0.8"/>
      </g>
     </g>
     <g id="text_8">
      <!-- 0.625 -->
      <g transform="translate(21.971875 310.015918) scale(0.1 -0.1)">
       <defs>
        <path id="DejaVuSans-2e" d="M 684 794 
L 1344 794 
L 1344 0 
L 684 0 
L 684 794 
z
" transform="scale(0.015625)"/>
        <path id="DejaVuSans-36" d="M 2113 2584 
Q 1688 2584 1439 2293 
Q 1191 2003 1191 1497 
Q 1191 994 1439 701 
Q 1688 409 2113 409 
Q 2538 409 2786 701 
Q 3034 994 3034 1497 
Q 3034 2003 2786 2293 
Q 2538 2584 2113 2584 
z
M 3366 4563 
L 3366 3988 
Q 3128 4100 2886 4159 
Q 2644 4219 2406 4219 
Q 1781 4219 1451 3797 
Q 1122 3375 1075 2522 
Q 1259 2794 1537 2939 
Q 1816 3084 2150 3084 
Q 2853 3084 3261 2657 
Q 3669 2231 3669 1497 
Q 3669 778 3244 343 
Q 2819 -91 2113 -91 
Q 1303 -91 875 529 
Q 447 1150 447 2328 
Q 447 3434 972 4092 
Q 1497 4750 2381 4750 
Q 2619 4750 2861 4703 
Q 3103 4656 3366 4563 
z
" transform="scale(0.015625)"/>
       </defs>
       <use xlink:href="#DejaVuSans-30"/>
       <use xlink:href="#DejaVuSans-2e" x="63.623047"/>
       <use xlink:href="#DejaVuSans-36" x="95.410156"/>
       <use xlink:href="#DejaVuSans-32" x="159.033203"/>
       <use xlink:href="#DejaVuSans-35" x="222.65625"/>
      </g>
     </g>
    </g>
    <g id="ytick_2">
     <g id="line2d_8">
      <g>
       <use xlink:href="#mc718c1b14f" x="57.6" y="272.545006" style="stroke: #000000; stroke-width: 0.8"/>
      </g>
     </g>
     <g id="text_9">
      <!-- 0.650 -->
      <g transform="translate(21.971875 276.344224) scale(0.1 -0.1)">
       <use xlink:href="#DejaVuSans-30"/>
       <use xlink:href="#DejaVuSans-2e" x="63.623047"/>
       <use xlink:href="#DejaVuSans-36" x="95.410156"/>
       <use xlink:href="#DejaVuSans-35" x="159.033203"/>
       <use xlink:href="#DejaVuSans-30" x="222.65625"/>
      </g>
     </g>
    </g>
    <g id="ytick_3">
     <g id="line2d_9">
      <g>
       <use xlink:href="#mc718c1b14f" x="57.6" y="238.873312" style="stroke: #000000; stroke-width: 0.8"/>
      </g>
     </g>
     <g id="text_10">
      <!-- 0.675 -->
      <g transform="translate(21.971875 242.67253) scale(0.1 -0.1)">
       <defs>
        <path id="DejaVuSans-37" d="M 525 4666 
L 3525 4666 
L 3525 4397 
L 1831 0 
L 1172 0 
L 2766 4134 
L 525 4134 
L 525 4666 
z
" transform="scale(0.015625)"/>
       </defs>
       <use xlink:href="#DejaVuSans-30"/>
       <use xlink:href="#DejaVuSans-2e" x="63.623047"/>
       <use xlink:href="#DejaVuSans-36" x="95.410156"/>
       <use xlink:href="#DejaVuSans-37" x="159.033203"/>
       <use xlink:href="#DejaVuSans-35" x="222.65625"/>
      </g>
     </g>
    </g>
    <g id="ytick_4">
     <g id="line2d_10">
      <g>
       <use xlink:href="#mc718c1b14f" x="57.6" y="205.201617" style="stroke: #000000; stroke-width: 0.8"/>
      </g>
     </g>
     <g id="text_11">
      <!-- 0.700 -->
      <g transform="translate(21.971875 209.000836) scale(0.1 -0.1)">
       <use xlink:href="#DejaVuSans-30"/>
       <use xlink:href="#DejaVuSans-2e" x="63.623047"/>
       <use xlink:href="#DejaVuSans-37" x="95.410156"/>
       <use xlink:href="#DejaVuSans-30" x="159.033203"/>
       <use xlink:href="#DejaVuSans-30" x="222.65625"/>
      </g>
     </g>
    </g>
    <g id="ytick_5">
     <g id="line2d_11">
      <g>
       <use xlink:href="#mc718c1b14f" x="57.6" y="171.529923" style="stroke: #000000; stroke-width: 0.8"/>
      </g>
     </g>
     <g id="text_12">
      <!-- 0.725 -->
      <g transform="translate(21.971875 175.329142) scale(0.1 -0.1)">
       <use xlink:href="#DejaVuSans-30"/>
       <use xlink:href="#DejaVuSans-2e" x="63.623047"/>
       <use xlink:href="#DejaVuSans-37" x="95.410156"/>
       <use xlink:href="#DejaVuSans-32" x="159.033203"/>
       <use xlink:href="#DejaVuSans-35" x="222.65625"/>
      </g>
     </g>
    </g>
    <g id="ytick_6">
     <g id="line2d_12">
      <g>
       <use xlink:href="#mc718c1b14f" x="57.6" y="137.858229" style="stroke: #000000; stroke-width: 0.8"/>
      </g>
     </g>
     <g id="text_13">
      <!-- 0.750 -->
      <g transform="translate(21.971875 141.657448) scale(0.1 -0.1)">
       <use xlink:href="#DejaVuSans-30"/>
       <use xlink:href="#DejaVuSans-2e" x="63.623047"/>
       <use xlink:href="#DejaVuSans-37" x="95.410156"/>
       <use xlink:href="#DejaVuSans-35" x="159.033203"/>
       <use xlink:href="#DejaVuSans-30" x="222.65625"/>
      </g>
     </g>
    </g>
    <g id="ytick_7">
     <g id="line2d_13">
      <g>
       <use xlink:href="#mc718c1b14f" x="57.6" y="104.186535" style="stroke: #000000; stroke-width: 0.8"/>
      </g>
     </g>
     <g id="text_14">
      <!-- 0.775 -->
      <g transform="translate(21.971875 107.985754) scale(0.1 -0.1)">
       <use xlink:href="#DejaVuSans-30"/>
       <use xlink:href="#DejaVuSans-2e" x="63.623047"/>
       <use xlink:href="#DejaVuSans-37" x="95.410156"/>
       <use xlink:href="#DejaVuSans-37" x="159.033203"/>
       <use xlink:href="#DejaVuSans-35" x="222.65625"/>
      </g>
     </g>
    </g>
    <g id="ytick_8">
     <g id="line2d_14">
      <g>
       <use xlink:href="#mc718c1b14f" x="57.6" y="70.514841" style="stroke: #000000; stroke-width: 0.8"/>
      </g>
     </g>
     <g id="text_15">
      <!-- 0.800 -->
      <g transform="translate(21.971875 74.31406) scale(0.1 -0.1)">
       <defs>
        <path id="DejaVuSans-38" d="M 2034 2216 
Q 1584 2216 1326 1975 
Q 1069 1734 1069 1313 
Q 1069 891 1326 650 
Q 1584 409 2034 409 
Q 2484 409 2743 651 
Q 3003 894 3003 1313 
Q 3003 1734 2745 1975 
Q 2488 2216 2034 2216 
z
M 1403 2484 
Q 997 2584 770 2862 
Q 544 3141 544 3541 
Q 544 4100 942 4425 
Q 1341 4750 2034 4750 
Q 2731 4750 3128 4425 
Q 3525 4100 3525 3541 
Q 3525 3141 3298 2862 
Q 3072 2584 2669 2484 
Q 3125 2378 3379 2068 
Q 3634 1759 3634 1313 
Q 3634 634 3220 271 
Q 2806 -91 2034 -91 
Q 1263 -91 848 271 
Q 434 634 434 1313 
Q 434 1759 690 2068 
Q 947 2378 1403 2484 
z
M 1172 3481 
Q 1172 3119 1398 2916 
Q 1625 2713 2034 2713 
Q 2441 2713 2670 2916 
Q 2900 3119 2900 3481 
Q 2900 3844 2670 4047 
Q 2441 4250 2034 4250 
Q 1625 4250 1398 4047 
Q 1172 3844 1172 3481 
z
" transform="scale(0.015625)"/>
       </defs>
       <use xlink:href="#DejaVuSans-30"/>
       <use xlink:href="#DejaVuSans-2e" x="63.623047"/>
       <use xlink:href="#DejaVuSans-38" x="95.410156"/>
       <use xlink:href="#DejaVuSans-30" x="159.033203"/>
       <use xlink:href="#DejaVuSans-30" x="222.65625"/>
      </g>
     </g>
    </g>
    <g id="text_16">
     <!-- Tempo -->
     <g transform="translate(15.892187 190.912375) rotate(-90) scale(0.1 -0.1)">
      <defs>
       <path id="DejaVuSans-54" d="M -19 4666 
L 3928 4666 
L 3928 4134 
L 2272 4134 
L 2272 0 
L 1638 0 
L 1638 4134 
L -19 4134 
L -19 4666 
z
" transform="scale(0.015625)"/>
       <path id="DejaVuSans-6d" d="M 3328 2828 
Q 3544 3216 3844 3400 
Q 4144 3584 4550 3584 
Q 5097 3584 5394 3201 
Q 5691 2819 5691 2113 
L 5691 0 
L 5113 0 
L 5113 2094 
Q 5113 2597 4934 2840 
Q 4756 3084 4391 3084 
Q 3944 3084 3684 2787 
Q 3425 2491 3425 1978 
L 3425 0 
L 2847 0 
L 2847 2094 
Q 2847 2600 2669 2842 
Q 2491 3084 2119 3084 
Q 1678 3084 1418 2786 
Q 1159 2488 1159 1978 
L 1159 0 
L 581 0 
L 581 3500 
L 1159 3500 
L 1159 2956 
Q 1356 3278 1631 3431 
Q 1906 3584 2284 3584 
Q 2666 3584 2933 3390 
Q 3200 3197 3328 2828 
z
" transform="scale(0.015625)"/>
       <path id="DejaVuSans-70" d="M 1159 525 
L 1159 -1331 
L 581 -1331 
L 581 3500 
L 1159 3500 
L 1159 2969 
Q 1341 3281 1617 3432 
Q 1894 3584 2278 3584 
Q 2916 3584 3314 3078 
Q 3713 2572 3713 1747 
Q 3713 922 3314 415 
Q 2916 -91 2278 -91 
Q 1894 -91 1617 61 
Q 1341 213 1159 525 
z
M 3116 1747 
Q 3116 2381 2855 2742 
Q 2594 3103 2138 3103 
Q 1681 3103 1420 2742 
Q 1159 2381 1159 1747 
Q 1159 1113 1420 752 
Q 1681 391 2138 391 
Q 2594 391 2855 752 
Q 3116 1113 3116 1747 
z
" transform="scale(0.015625)"/>
       <path id="DejaVuSans-6f" d="M 1959 3097 
Q 1497 3097 1228 2736 
Q 959 2375 959 1747 
Q 959 1119 1226 758 
Q 1494 397 1959 397 
Q 2419 397 2687 759 
Q 2956 1122 2956 1747 
Q 2956 2369 2687 2733 
Q 2419 3097 1959 3097 
z
M 1959 3584 
Q 2709 3584 3137 3096 
Q 3566 2609 3566 1747 
Q 3566 888 3137 398 
Q 2709 -91 1959 -91 
Q 1206 -91 779 398 
Q 353 888 353 1747 
Q 353 2609 779 3096 
Q 1206 3584 1959 3584 
z
" transform="scale(0.015625)"/>
      </defs>
      <use xlink:href="#DejaVuSans-54"/>
      <use xlink:href="#DejaVuSans-65" x="44.083984"/>
      <use xlink:href="#DejaVuSans-6d" x="105.607422"/>
      <use xlink:href="#DejaVuSans-70" x="203.019531"/>
      <use xlink:href="#DejaVuSans-6f" x="266.496094"/>
     </g>
    </g>
   </g>
   <g id="line2d_15">
    <path d="M 73.832727 236.883988 
L 74.483338 288.116817 
L 75.133948 295.488 
L 75.784558 214.480526 
L 76.435169 226.012341 
L 77.085779 188.907885 
L 77.736389 208.606884 
L 78.386999 179.121712 
L 79.03761 192.110961 
L 79.68822 169.253582 
L 80.33883 177.198522 
L 80.989441 186.594415 
L 81.640051 173.141813 
L 82.290661 162.476663 
L 82.941272 58.813793 
L 83.591882 76.169329 
L 84.242492 70.271058 
L 85.543713 61.583123 
L 86.844934 54.879566 
L 87.495544 53.568 
L 88.146154 62.276929 
L 88.796764 59.685632 
L 89.447375 70.03568 
L 90.097985 67.065513 
L 90.748595 73.936983 
L 91.399206 71.954835 
L 92.049816 68.674277 
L 92.700426 66.060749 
L 93.351037 72.228448 
L 94.001647 68.443569 
L 95.302868 80.845872 
L 95.953478 78.504846 
L 96.604088 83.82818 
L 97.905309 96.220167 
L 98.555919 92.84584 
L 99.206529 95.504895 
L 99.85714 92.894232 
L 100.50775 89.503047 
L 101.15836 87.530542 
L 101.808971 84.97362 
L 102.459581 89.684391 
L 103.110191 95.208549 
L 103.760802 98.902859 
L 104.411412 101.939034 
L 105.712633 96.734909 
L 106.363243 99.500439 
L 108.315074 113.653694 
L 108.965684 86.641403 
L 109.616294 89.930012 
L 110.266905 94.387954 
L 110.917515 92.064377 
L 111.568125 95.616028 
L 112.218736 98.036872 
L 112.869346 96.248075 
L 113.519956 98.385967 
L 116.122398 108.755886 
L 116.773008 106.774652 
L 117.423618 109.963251 
L 118.074228 108.259073 
L 118.724839 110.155911 
L 120.026059 107.315047 
L 120.67667 105.138568 
L 121.32728 106.932689 
L 121.97789 108.336163 
L 122.628501 106.750989 
L 123.279111 108.791056 
L 123.929721 107.140803 
L 124.580332 108.908125 
L 125.881552 104.993392 
L 126.532163 103.012559 
L 127.182773 105.189643 
L 127.833383 103.895644 
L 128.483993 102.337365 
L 129.134604 104.113303 
L 129.785214 102.631352 
L 131.086435 105.957076 
L 131.737045 104.62301 
L 133.038266 108.06304 
L 134.339486 105.466962 
L 134.990097 103.942228 
L 135.640707 102.833593 
L 136.291317 101.302017 
L 136.941927 103.144321 
L 137.592538 101.847883 
L 138.243148 101.085803 
L 139.544369 105.196884 
L 140.194979 104.017601 
L 140.845589 106.150955 
L 141.4962 105.366148 
L 142.14681 104.116917 
L 142.79742 105.739147 
L 143.448031 104.64235 
L 144.098641 105.882402 
L 146.050472 103.411713 
L 146.701082 105.029317 
L 147.351692 104.165576 
L 148.652913 107.527104 
L 149.303523 106.509088 
L 149.954134 108.433666 
L 150.604744 109.559813 
L 151.255354 111.139358 
L 151.905965 111.954322 
L 152.556575 110.999114 
L 153.207185 109.565378 
L 153.857796 111.13067 
L 154.508406 109.86187 
L 155.809627 112.297553 
L 156.460237 111.295303 
L 158.412068 114.901506 
L 159.062678 115.562609 
L 159.713288 114.572638 
L 160.363899 115.802084 
L 163.61695 110.846302 
L 164.918171 112.692941 
L 165.568781 111.784321 
L 166.219392 112.657655 
L 166.870002 111.926077 
L 167.520612 113.162879 
L 168.171222 112.074319 
L 168.821833 113.235874 
L 169.472443 112.337442 
L 170.123053 113.099455 
L 170.773664 114.263557 
L 172.074884 112.481087 
L 173.376105 114.610767 
L 174.026715 115.675091 
L 175.327936 113.647895 
L 175.978546 114.401521 
L 176.629156 113.732931 
L 177.279767 114.928799 
L 177.930377 115.323768 
L 178.580987 114.595977 
L 179.231598 115.302979 
L 179.882208 114.846041 
L 180.532818 115.978077 
L 181.183429 114.993883 
L 182.484649 116.709736 
L 183.78587 118.142209 
L 185.737701 116.123591 
L 187.689532 118.386715 
L 188.340142 117.688245 
L 189.641363 116.006015 
L 190.291973 115.371269 
L 190.942583 115.988788 
L 191.593194 116.817742 
L 192.243804 117.344844 
L 192.894414 118.361037 
L 193.545025 119.025742 
L 195.496856 116.818786 
L 196.147466 117.386388 
L 196.798076 118.405078 
L 197.448686 117.541752 
L 198.749907 116.247464 
L 199.400517 115.412484 
L 200.051128 116.194621 
L 200.701738 115.526956 
L 202.002959 117.34712 
L 202.653569 116.498375 
L 203.304179 117.228337 
L 203.95479 117.492235 
L 204.6054 116.734202 
L 205.25601 116.151438 
L 205.906621 115.738429 
L 206.557231 116.321091 
L 207.207841 115.817026 
L 208.509062 114.347377 
L 209.159672 115.412523 
L 209.810282 116.24696 
L 211.111503 114.905239 
L 211.762113 114.153053 
L 213.063334 115.222043 
L 213.713944 115.867689 
L 215.015165 117.557349 
L 215.665775 118.00482 
L 216.316385 118.22342 
L 216.966996 117.318856 
L 217.617606 117.835736 
L 218.268216 117.102387 
L 218.918827 117.5958 
L 220.220047 116.369932 
L 220.870658 115.784556 
L 221.521268 116.596835 
L 222.171878 116.055375 
L 222.822489 117.027432 
L 223.473099 117.677777 
L 224.123709 117.109522 
L 225.42493 118.490599 
L 226.07554 119.044854 
L 226.72615 118.278858 
L 227.376761 118.914205 
L 228.027371 119.755398 
L 228.677981 119.319355 
L 229.328592 118.58412 
L 229.979202 119.118364 
L 231.280423 118.005132 
L 231.931033 118.844867 
L 233.232254 117.910324 
L 233.882864 118.593434 
L 234.533474 117.93767 
L 235.184085 117.476242 
L 235.834695 116.872516 
L 237.135915 118.552991 
L 237.786526 119.468688 
L 239.087746 120.618993 
L 240.388967 121.528087 
L 241.039577 122.014303 
L 241.690188 122.875724 
L 242.340798 123.389026 
L 242.991408 124.131691 
L 243.642019 123.515871 
L 244.943239 124.501352 
L 245.59385 125.028297 
L 246.24446 125.813201 
L 246.89507 126.356584 
L 247.54568 125.881077 
L 248.196291 126.450855 
L 248.846901 121.009392 
L 249.497511 120.399622 
L 250.798732 121.816255 
L 251.449342 121.124661 
L 252.750563 122.379503 
L 253.401173 122.852275 
L 254.702394 121.667749 
L 255.353004 121.183371 
L 256.654225 122.142556 
L 257.304835 121.723724 
L 258.606056 122.755437 
L 259.256666 122.221848 
L 259.907276 117.06131 
L 261.859107 115.666275 
L 262.509718 115.255604 
L 263.810938 116.25008 
L 264.461549 116.758712 
L 265.112159 116.244052 
L 265.762769 115.878035 
L 266.413379 116.355984 
L 267.06399 117.038126 
L 268.36521 116.214554 
L 269.666431 117.38348 
L 272.268872 115.630017 
L 272.919483 116.242805 
L 274.220703 115.491115 
L 276.172534 116.726211 
L 277.473755 115.668519 
L 278.124365 115.213945 
L 278.774975 115.759612 
L 280.076196 115.061052 
L 280.726806 114.672657 
L 282.028027 115.414642 
L 283.329248 116.195938 
L 285.281079 115.02761 
L 286.582299 114.22357 
L 287.232909 113.868017 
L 288.53413 114.632044 
L 289.18474 114.241138 
L 289.835351 114.765672 
L 290.485961 115.056145 
L 291.787182 115.956684 
L 292.437792 116.398158 
L 293.088402 117.06136 
L 295.040233 115.911683 
L 295.690844 116.544811 
L 296.341454 117.019114 
L 299.594505 115.189648 
L 300.245116 115.578235 
L 300.895726 116.200603 
L 301.546336 115.877125 
L 302.196947 116.331762 
L 302.847557 116.037407 
L 304.148778 115.08479 
L 304.799388 115.412145 
L 305.449998 116.060378 
L 306.100608 116.532354 
L 306.751219 116.149377 
L 307.401829 116.678281 
L 308.052439 116.18359 
L 309.35366 115.573727 
L 310.00427 115.933931 
L 310.654881 115.643192 
L 311.305491 115.986043 
L 311.956101 115.5456 
L 312.606712 115.936002 
L 313.907932 115.111726 
L 315.209153 116.22523 
L 315.859763 115.983356 
L 317.811594 117.435931 
L 321.064646 115.623277 
L 321.715256 116.058 
L 322.365866 115.658416 
L 323.016477 115.964154 
L 323.667087 115.674761 
L 325.618918 116.890352 
L 326.269528 116.569489 
L 326.920138 116.866912 
L 327.570749 117.304493 
L 328.221359 116.989541 
L 328.871969 117.342448 
L 329.52258 116.998639 
L 330.17319 117.462341 
L 331.474411 118.043453 
L 333.426242 119.066053 
L 334.076852 118.655805 
L 334.727462 118.789369 
L 336.028683 118.009299 
L 336.679293 118.308108 
L 337.980514 117.810063 
L 339.281734 118.604965 
L 340.582955 117.960428 
L 341.233565 118.177693 
L 342.534786 117.518782 
L 343.185396 117.825911 
L 344.486617 117.299423 
L 346.438448 116.308746 
L 347.739668 117.247457 
L 349.040889 117.924752 
L 350.34211 117.347109 
L 350.99272 117.691853 
L 351.64333 117.457302 
L 352.293941 117.747924 
L 352.944551 117.355497 
L 353.595161 117.125769 
L 354.245772 117.424415 
L 355.546992 116.90371 
L 356.197602 117.281356 
L 357.498823 116.531688 
L 358.149433 116.830149 
L 358.800044 116.449828 
L 359.450654 116.760571 
L 360.751875 116.143433 
L 361.402485 116.512418 
L 362.053095 116.201066 
L 362.703706 116.57382 
L 364.004926 115.895007 
L 365.306147 116.517473 
L 366.607367 117.407733 
L 367.257978 117.643037 
L 369.860419 119.267653 
L 370.511029 118.946582 
L 371.81225 119.730845 
L 373.764081 120.744231 
L 374.414691 120.392947 
L 375.715912 120.947418 
L 376.366522 121.38012 
L 377.667743 120.781158 
L 378.318353 121.235994 
L 379.619574 120.535691 
L 380.270184 120.827032 
L 380.920794 120.528851 
L 381.571405 120.652792 
L 382.222015 121.107079 
L 383.523236 120.688122 
L 384.173846 120.987124 
L 384.824456 121.438612 
L 386.125677 120.758363 
L 388.077508 121.790164 
L 390.029339 122.750947 
L 390.679949 123.001869 
L 391.330559 122.782422 
L 392.63178 123.390354 
L 393.28239 123.766223 
L 393.933001 123.501236 
L 394.583611 123.927595 
L 395.884831 123.297266 
L 397.836662 124.149653 
L 398.487273 124.512968 
L 398.487273 124.512968 
" clip-path="url(#pc5d19b9a1a)" style="fill: none; stroke: #1f77b4; stroke-width: 1.5; stroke-linecap: square"/>
   </g>
   <g id="patch_3">
    <path d="M 57.6 307.584 
L 57.6 41.472 
" style="fill: none; stroke: #000000; stroke-width: 0.8; stroke-linejoin: miter; stroke-linecap: square"/>
   </g>
   <g id="patch_4">
    <path d="M 414.72 307.584 
L 414.72 41.472 
" style="fill: none; stroke: #000000; stroke-width: 0.8; stroke-linejoin: miter; stroke-linecap: square"/>
   </g>
   <g id="patch_5">
    <path d="M 57.6 307.584 
L 414.72 307.584 
" style="fill: none; stroke: #000000; stroke-width: 0.8; stroke-linejoin: miter; stroke-linecap: square"/>
   </g>
   <g id="patch_6">
    <path d="M 57.6 41.472 
L 414.72 41.472 
" style="fill: none; stroke: #000000; stroke-width: 0.8; stroke-linejoin: miter; stroke-linecap: square"/>
   </g>
   <g id="text_17">
    <!-- Tempo x Requisição -->
    <g transform="translate(176.824687 35.472) scale(0.12 -0.12)">
     <defs>
      <path id="DejaVuSans-20" transform="scale(0.015625)"/>
      <path id="DejaVuSans-78" d="M 3513 3500 
L 2247 1797 
L 3578 0 
L 2900 0 
L 1881 1375 
L 863 0 
L 184 0 
L 1544 1831 
L 300 3500 
L 978 3500 
L 1906 2253 
L 2834 3500 
L 3513 3500 
z
" transform="scale(0.015625)"/>
      <path id="DejaVuSans-e3" d="M 2194 1759 
Q 1497 1759 1228 1600 
Q 959 1441 959 1056 
Q 959 750 1161 570 
Q 1363 391 1709 391 
Q 2188 391 2477 730 
Q 2766 1069 2766 1631 
L 2766 1759 
L 2194 1759 
z
M 3341 1997 
L 3341 0 
L 2766 0 
L 2766 531 
Q 2569 213 2275 61 
Q 1981 -91 1556 -91 
Q 1019 -91 701 211 
Q 384 513 384 1019 
Q 384 1609 779 1909 
Q 1175 2209 1959 2209 
L 2766 2209 
L 2766 2266 
Q 2766 2663 2505 2880 
Q 2244 3097 1772 3097 
Q 1472 3097 1187 3025 
Q 903 2953 641 2809 
L 641 3341 
Q 956 3463 1253 3523 
Q 1550 3584 1831 3584 
Q 2591 3584 2966 3190 
Q 3341 2797 3341 1997 
z
M 1844 4281 
L 1665 4453 
Q 1597 4516 1545 4545 
Q 1494 4575 1453 4575 
Q 1334 4575 1278 4461 
Q 1222 4347 1215 4091 
L 825 4091 
Q 831 4513 990 4742 
Q 1150 4972 1434 4972 
Q 1553 4972 1653 4928 
Q 1753 4884 1869 4781 
L 2047 4609 
Q 2115 4547 2167 4517 
Q 2219 4488 2259 4488 
Q 2378 4488 2434 4602 
Q 2490 4716 2497 4972 
L 2887 4972 
Q 2881 4550 2721 4320 
Q 2562 4091 2278 4091 
Q 2159 4091 2059 4134 
Q 1959 4178 1844 4281 
z
" transform="scale(0.015625)"/>
     </defs>
     <use xlink:href="#DejaVuSans-54"/>
     <use xlink:href="#DejaVuSans-65" x="44.083984"/>
     <use xlink:href="#DejaVuSans-6d" x="105.607422"/>
     <use xlink:href="#DejaVuSans-70" x="203.019531"/>
     <use xlink:href="#DejaVuSans-6f" x="266.496094"/>
     <use xlink:href="#DejaVuSans-20" x="327.677734"/>
     <use xlink:href="#DejaVuSans-78" x="359.464844"/>
     <use xlink:href="#DejaVuSans-20" x="418.644531"/>
     <use xlink:href="#DejaVuSans-52" x="450.431641"/>
     <use xlink:href="#DejaVuSans-65" x="515.414062"/>
     <use xlink:href="#DejaVuSans-71" x="576.9375"/>
     <use xlink:href="#DejaVuSans-75" x="640.414062"/>
     <use xlink:href="#DejaVuSans-69" x="703.792969"/>
     <use xlink:href="#DejaVuSans-73" x="731.576172"/>
     <use xlink:href="#DejaVuSans-69" x="783.675781"/>
     <use xlink:href="#DejaVuSans-e7" x="811.458984"/>
     <use xlink:href="#DejaVuSans-e3" x="866.439453"/>
     <use xlink:href="#DejaVuSans-6f" x="927.71875"/>
    </g>
   </g>
  </g>
 </g>
 <defs>
  <clipPath id="pc5d19b9a1a">
   <rect x="57.6" y="41.472" width="357.12" height="266.112"/>
  </clipPath>
 </defs>
</svg>
