<?xml version="1.0" encoding="utf-8" standalone="no"?>
<!DOCTYPE svg PUBLIC "-//W3C//DTD SVG 1.1//EN"
  "http://www.w3.org/Graphics/SVG/1.1/DTD/svg11.dtd">
<svg xmlns:xlink="http://www.w3.org/1999/xlink" width="460.8pt" height="345.6pt" viewBox="0 0 460.8 345.6" xmlns="http://www.w3.org/2000/svg" version="1.1">
 <metadata>
  <rdf:RDF xmlns:dc="http://purl.org/dc/elements/1.1/" xmlns:cc="http://creativecommons.org/ns#" xmlns:rdf="http://www.w3.org/1999/02/22-rdf-syntax-ns#">
   <cc:Work>
    <dc:type rdf:resource="http://purl.org/dc/dcmitype/StillImage"/>
    <dc:date>2023-03-09T16:49:36.426625</dc:date>
    <dc:format>image/svg+xml</dc:format>
    <dc:creator>
     <cc:Agent>
      <dc:title>Matplotlib v3.7.0, https://matplotlib.org/</dc:title>
     </cc:Agent>
    </dc:creator>
   </cc:Work>
  </rdf:RDF>
 </metadata>
 <defs>
  <style type="text/css">*{stroke-linejoin: round; stroke-linecap: butt}</style>
 </defs>
 <g id="figure_1">
  <g id="patch_1">
   <path d="M 0 345.6 
L 460.8 345.6 
L 460.8 0 
L 0 0 
z
" style="fill: #ffffff"/>
  </g>
  <g id="axes_1">
   <g id="patch_2">
    <path d="M 57.6 307.584 
L 414.72 307.584 
L 414.72 41.472 
L 57.6 41.472 
z
" style="fill: #ffffff"/>
   </g>
   <g id="matplotlib.axis_1">
    <g id="xtick_1">
     <g id="line2d_1">
      <defs>
       <path id="me096170a8d" d="M 0 0 
L 0 3.5 
" style="stroke: #000000; stroke-width: 0.8"/>
      </defs>
      <g>
       <use xlink:href="#me096170a8d" x="73.832727" y="307.584" style="stroke: #000000; stroke-width: 0.8"/>
      </g>
     </g>
     <g id="text_1">
      <!-- 0 -->
      <g transform="translate(70.651477 322.182437) scale(0.1 -0.1)">
       <defs>
        <path id="DejaVuSans-30" d="M 2034 4250 
Q 1547 4250 1301 3770 
Q 1056 3291 1056 2328 
Q 1056 1369 1301 889 
Q 1547 409 2034 409 
Q 2525 409 2770 889 
Q 3016 1369 3016 2328 
Q 3016 3291 2770 3770 
Q 2525 4250 2034 4250 
z
M 2034 4750 
Q 2819 4750 3233 4129 
Q 3647 3509 3647 2328 
Q 3647 1150 3233 529 
Q 2819 -91 2034 -91 
Q 1250 -91 836 529 
Q 422 1150 422 2328 
Q 422 3509 836 4129 
Q 1250 4750 2034 4750 
z
" transform="scale(0.015625)"/>
       </defs>
       <use xlink:href="#DejaVuSans-30"/>
      </g>
     </g>
    </g>
    <g id="xtick_2">
     <g id="line2d_2">
      <g>
       <use xlink:href="#me096170a8d" x="138.828632" y="307.584" style="stroke: #000000; stroke-width: 0.8"/>
      </g>
     </g>
     <g id="text_2">
      <!-- 200 -->
      <g transform="translate(129.284882 322.182437) scale(0.1 -0.1)">
       <defs>
        <path id="DejaVuSans-32" d="M 1228 531 
L 3431 531 
L 3431 0 
L 469 0 
L 469 531 
Q 828 903 1448 1529 
Q 2069 2156 2228 2338 
Q 2531 2678 2651 2914 
Q 2772 3150 2772 3378 
Q 2772 3750 2511 3984 
Q 2250 4219 1831 4219 
Q 1534 4219 1204 4116 
Q 875 4013 500 3803 
L 500 4441 
Q 881 4594 1212 4672 
Q 1544 4750 1819 4750 
Q 2544 4750 2975 4387 
Q 3406 4025 3406 3419 
Q 3406 3131 3298 2873 
Q 3191 2616 2906 2266 
Q 2828 2175 2409 1742 
Q 1991 1309 1228 531 
z
" transform="scale(0.015625)"/>
       </defs>
       <use xlink:href="#DejaVuSans-32"/>
       <use xlink:href="#DejaVuSans-30" x="63.623047"/>
       <use xlink:href="#DejaVuSans-30" x="127.246094"/>
      </g>
     </g>
    </g>
    <g id="xtick_3">
     <g id="line2d_3">
      <g>
       <use xlink:href="#me096170a8d" x="203.824537" y="307.584" style="stroke: #000000; stroke-width: 0.8"/>
      </g>
     </g>
     <g id="text_3">
      <!-- 400 -->
      <g transform="translate(194.280787 322.182437) scale(0.1 -0.1)">
       <defs>
        <path id="DejaVuSans-34" d="M 2419 4116 
L 825 1625 
L 2419 1625 
L 2419 4116 
z
M 2253 4666 
L 3047 4666 
L 3047 1625 
L 3713 1625 
L 3713 1100 
L 3047 1100 
L 3047 0 
L 2419 0 
L 2419 1100 
L 313 1100 
L 313 1709 
L 2253 4666 
z
" transform="scale(0.015625)"/>
       </defs>
       <use xlink:href="#DejaVuSans-34"/>
       <use xlink:href="#DejaVuSans-30" x="63.623047"/>
       <use xlink:href="#DejaVuSans-30" x="127.246094"/>
      </g>
     </g>
    </g>
    <g id="xtick_4">
     <g id="line2d_4">
      <g>
       <use xlink:href="#me096170a8d" x="268.820442" y="307.584" style="stroke: #000000; stroke-width: 0.8"/>
      </g>
     </g>
     <g id="text_4">
      <!-- 600 -->
      <g transform="translate(259.276692 322.182437) scale(0.1 -0.1)">
       <defs>
        <path id="DejaVuSans-36" d="M 2113 2584 
Q 1688 2584 1439 2293 
Q 1191 2003 1191 1497 
Q 1191 994 1439 701 
Q 1688 409 2113 409 
Q 2538 409 2786 701 
Q 3034 994 3034 1497 
Q 3034 2003 2786 2293 
Q 2538 2584 2113 2584 
z
M 3366 4563 
L 3366 3988 
Q 3128 4100 2886 4159 
Q 2644 4219 2406 4219 
Q 1781 4219 1451 3797 
Q 1122 3375 1075 2522 
Q 1259 2794 1537 2939 
Q 1816 3084 2150 3084 
Q 2853 3084 3261 2657 
Q 3669 2231 3669 1497 
Q 3669 778 3244 343 
Q 2819 -91 2113 -91 
Q 1303 -91 875 529 
Q 447 1150 447 2328 
Q 447 3434 972 4092 
Q 1497 4750 2381 4750 
Q 2619 4750 2861 4703 
Q 3103 4656 3366 4563 
z
" transform="scale(0.015625)"/>
       </defs>
       <use xlink:href="#DejaVuSans-36"/>
       <use xlink:href="#DejaVuSans-30" x="63.623047"/>
       <use xlink:href="#DejaVuSans-30" x="127.246094"/>
      </g>
     </g>
    </g>
    <g id="xtick_5">
     <g id="line2d_5">
      <g>
       <use xlink:href="#me096170a8d" x="333.816347" y="307.584" style="stroke: #000000; stroke-width: 0.8"/>
      </g>
     </g>
     <g id="text_5">
      <!-- 800 -->
      <g transform="translate(324.272597 322.182437) scale(0.1 -0.1)">
       <defs>
        <path id="DejaVuSans-38" d="M 2034 2216 
Q 1584 2216 1326 1975 
Q 1069 1734 1069 1313 
Q 1069 891 1326 650 
Q 1584 409 2034 409 
Q 2484 409 2743 651 
Q 3003 894 3003 1313 
Q 3003 1734 2745 1975 
Q 2488 2216 2034 2216 
z
M 1403 2484 
Q 997 2584 770 2862 
Q 544 3141 544 3541 
Q 544 4100 942 4425 
Q 1341 4750 2034 4750 
Q 2731 4750 3128 4425 
Q 3525 4100 3525 3541 
Q 3525 3141 3298 2862 
Q 3072 2584 2669 2484 
Q 3125 2378 3379 2068 
Q 3634 1759 3634 1313 
Q 3634 634 3220 271 
Q 2806 -91 2034 -91 
Q 1263 -91 848 271 
Q 434 634 434 1313 
Q 434 1759 690 2068 
Q 947 2378 1403 2484 
z
M 1172 3481 
Q 1172 3119 1398 2916 
Q 1625 2713 2034 2713 
Q 2441 2713 2670 2916 
Q 2900 3119 2900 3481 
Q 2900 3844 2670 4047 
Q 2441 4250 2034 4250 
Q 1625 4250 1398 4047 
Q 1172 3844 1172 3481 
z
" transform="scale(0.015625)"/>
       </defs>
       <use xlink:href="#DejaVuSans-38"/>
       <use xlink:href="#DejaVuSans-30" x="63.623047"/>
       <use xlink:href="#DejaVuSans-30" x="127.246094"/>
      </g>
     </g>
    </g>
    <g id="xtick_6">
     <g id="line2d_6">
      <g>
       <use xlink:href="#me096170a8d" x="398.812252" y="307.584" style="stroke: #000000; stroke-width: 0.8"/>
      </g>
     </g>
     <g id="text_6">
      <!-- 1000 -->
      <g transform="translate(386.087252 322.182437) scale(0.1 -0.1)">
       <defs>
        <path id="DejaVuSans-31" d="M 794 531 
L 1825 531 
L 1825 4091 
L 703 3866 
L 703 4441 
L 1819 4666 
L 2450 4666 
L 2450 531 
L 3481 531 
L 3481 0 
L 794 0 
L 794 531 
z
" transform="scale(0.015625)"/>
       </defs>
       <use xlink:href="#DejaVuSans-31"/>
       <use xlink:href="#DejaVuSans-30" x="63.623047"/>
       <use xlink:href="#DejaVuSans-30" x="127.246094"/>
       <use xlink:href="#DejaVuSans-30" x="190.869141"/>
      </g>
     </g>
    </g>
    <g id="text_7">
     <!-- Requisições -->
     <g transform="translate(206.618594 336.030875) scale(0.1 -0.1)">
      <defs>
       <path id="DejaVuSans-52" d="M 2841 2188 
Q 3044 2119 3236 1894 
Q 3428 1669 3622 1275 
L 4263 0 
L 3584 0 
L 2988 1197 
Q 2756 1666 2539 1819 
Q 2322 1972 1947 1972 
L 1259 1972 
L 1259 0 
L 628 0 
L 628 4666 
L 2053 4666 
Q 2853 4666 3247 4331 
Q 3641 3997 3641 3322 
Q 3641 2881 3436 2590 
Q 3231 2300 2841 2188 
z
M 1259 4147 
L 1259 2491 
L 2053 2491 
Q 2509 2491 2742 2702 
Q 2975 2913 2975 3322 
Q 2975 3731 2742 3939 
Q 2509 4147 2053 4147 
L 1259 4147 
z
" transform="scale(0.015625)"/>
       <path id="DejaVuSans-65" d="M 3597 1894 
L 3597 1613 
L 953 1613 
Q 991 1019 1311 708 
Q 1631 397 2203 397 
Q 2534 397 2845 478 
Q 3156 559 3463 722 
L 3463 178 
Q 3153 47 2828 -22 
Q 2503 -91 2169 -91 
Q 1331 -91 842 396 
Q 353 884 353 1716 
Q 353 2575 817 3079 
Q 1281 3584 2069 3584 
Q 2775 3584 3186 3129 
Q 3597 2675 3597 1894 
z
M 3022 2063 
Q 3016 2534 2758 2815 
Q 2500 3097 2075 3097 
Q 1594 3097 1305 2825 
Q 1016 2553 972 2059 
L 3022 2063 
z
" transform="scale(0.015625)"/>
       <path id="DejaVuSans-71" d="M 947 1747 
Q 947 1113 1208 752 
Q 1469 391 1925 391 
Q 2381 391 2643 752 
Q 2906 1113 2906 1747 
Q 2906 2381 2643 2742 
Q 2381 3103 1925 3103 
Q 1469 3103 1208 2742 
Q 947 2381 947 1747 
z
M 2906 525 
Q 2725 213 2448 61 
Q 2172 -91 1784 -91 
Q 1150 -91 751 415 
Q 353 922 353 1747 
Q 353 2572 751 3078 
Q 1150 3584 1784 3584 
Q 2172 3584 2448 3432 
Q 2725 3281 2906 2969 
L 2906 3500 
L 3481 3500 
L 3481 -1331 
L 2906 -1331 
L 2906 525 
z
" transform="scale(0.015625)"/>
       <path id="DejaVuSans-75" d="M 544 1381 
L 544 3500 
L 1119 3500 
L 1119 1403 
Q 1119 906 1312 657 
Q 1506 409 1894 409 
Q 2359 409 2629 706 
Q 2900 1003 2900 1516 
L 2900 3500 
L 3475 3500 
L 3475 0 
L 2900 0 
L 2900 538 
Q 2691 219 2414 64 
Q 2138 -91 1772 -91 
Q 1169 -91 856 284 
Q 544 659 544 1381 
z
M 1991 3584 
L 1991 3584 
z
" transform="scale(0.015625)"/>
       <path id="DejaVuSans-69" d="M 603 3500 
L 1178 3500 
L 1178 0 
L 603 0 
L 603 3500 
z
M 603 4863 
L 1178 4863 
L 1178 4134 
L 603 4134 
L 603 4863 
z
" transform="scale(0.015625)"/>
       <path id="DejaVuSans-73" d="M 2834 3397 
L 2834 2853 
Q 2591 2978 2328 3040 
Q 2066 3103 1784 3103 
Q 1356 3103 1142 2972 
Q 928 2841 928 2578 
Q 928 2378 1081 2264 
Q 1234 2150 1697 2047 
L 1894 2003 
Q 2506 1872 2764 1633 
Q 3022 1394 3022 966 
Q 3022 478 2636 193 
Q 2250 -91 1575 -91 
Q 1294 -91 989 -36 
Q 684 19 347 128 
L 347 722 
Q 666 556 975 473 
Q 1284 391 1588 391 
Q 1994 391 2212 530 
Q 2431 669 2431 922 
Q 2431 1156 2273 1281 
Q 2116 1406 1581 1522 
L 1381 1569 
Q 847 1681 609 1914 
Q 372 2147 372 2553 
Q 372 3047 722 3315 
Q 1072 3584 1716 3584 
Q 2034 3584 2315 3537 
Q 2597 3491 2834 3397 
z
" transform="scale(0.015625)"/>
       <path id="DejaVuSans-e7" d="M 3122 3366 
L 3122 2828 
Q 2878 2963 2633 3030 
Q 2388 3097 2138 3097 
Q 1578 3097 1268 2742 
Q 959 2388 959 1747 
Q 959 1106 1268 751 
Q 1578 397 2138 397 
Q 2388 397 2633 464 
Q 2878 531 3122 666 
L 3122 134 
Q 2881 22 2623 -34 
Q 2366 -91 2075 -91 
Q 1284 -91 818 406 
Q 353 903 353 1747 
Q 353 2603 823 3093 
Q 1294 3584 2113 3584 
Q 2378 3584 2631 3529 
Q 2884 3475 3122 3366 
z
M 2311 0 
Q 2482 -194 2566 -358 
Q 2651 -522 2651 -672 
Q 2651 -950 2463 -1092 
Q 2276 -1234 1907 -1234 
Q 1764 -1234 1628 -1215 
Q 1492 -1197 1357 -1159 
L 1357 -750 
Q 1464 -803 1579 -826 
Q 1695 -850 1842 -850 
Q 2026 -850 2120 -775 
Q 2214 -700 2214 -556 
Q 2214 -463 2146 -327 
Q 2079 -191 1939 0 
L 2311 0 
z
" transform="scale(0.015625)"/>
       <path id="DejaVuSans-f5" d="M 1959 3097 
Q 1497 3097 1228 2736 
Q 959 2375 959 1747 
Q 959 1119 1226 758 
Q 1494 397 1959 397 
Q 2419 397 2687 759 
Q 2956 1122 2956 1747 
Q 2956 2369 2687 2733 
Q 2419 3097 1959 3097 
z
M 1959 3584 
Q 2709 3584 3137 3096 
Q 3566 2609 3566 1747 
Q 3566 888 3137 398 
Q 2709 -91 1959 -91 
Q 1206 -91 779 398 
Q 353 888 353 1747 
Q 353 2609 779 3096 
Q 1206 3584 1959 3584 
z
M 1948 4281 
L 1769 4453 
Q 1701 4516 1649 4545 
Q 1598 4575 1557 4575 
Q 1438 4575 1382 4461 
Q 1326 4347 1319 4091 
L 929 4091 
Q 935 4513 1094 4742 
Q 1254 4972 1538 4972 
Q 1657 4972 1757 4928 
Q 1857 4884 1973 4781 
L 2151 4609 
Q 2219 4547 2271 4517 
Q 2323 4488 2363 4488 
Q 2482 4488 2538 4602 
Q 2594 4716 2601 4972 
L 2991 4972 
Q 2985 4550 2825 4320 
Q 2666 4091 2382 4091 
Q 2263 4091 2163 4134 
Q 2063 4178 1948 4281 
z
" transform="scale(0.015625)"/>
      </defs>
      <use xlink:href="#DejaVuSans-52"/>
      <use xlink:href="#DejaVuSans-65" x="64.982422"/>
      <use xlink:href="#DejaVuSans-71" x="126.505859"/>
      <use xlink:href="#DejaVuSans-75" x="189.982422"/>
      <use xlink:href="#DejaVuSans-69" x="253.361328"/>
      <use xlink:href="#DejaVuSans-73" x="281.144531"/>
      <use xlink:href="#DejaVuSans-69" x="333.244141"/>
      <use xlink:href="#DejaVuSans-e7" x="361.027344"/>
      <use xlink:href="#DejaVuSans-f5" x="416.007812"/>
      <use xlink:href="#DejaVuSans-65" x="477.189453"/>
      <use xlink:href="#DejaVuSans-73" x="538.712891"/>
     </g>
    </g>
   </g>
   <g id="matplotlib.axis_2">
    <g id="ytick_1">
     <g id="line2d_7">
      <defs>
       <path id="m5979d4a5bb" d="M 0 0 
L -3.5 0 
" style="stroke: #000000; stroke-width: 0.8"/>
      </defs>
      <g>
       <use xlink:href="#m5979d4a5bb" x="57.6" y="306.512656" style="stroke: #000000; stroke-width: 0.8"/>
      </g>
     </g>
     <g id="text_8">
      <!-- 0.70 -->
      <g transform="translate(28.334375 310.311875) scale(0.1 -0.1)">
       <defs>
        <path id="DejaVuSans-2e" d="M 684 794 
L 1344 794 
L 1344 0 
L 684 0 
L 684 794 
z
" transform="scale(0.015625)"/>
        <path id="DejaVuSans-37" d="M 525 4666 
L 3525 4666 
L 3525 4397 
L 1831 0 
L 1172 0 
L 2766 4134 
L 525 4134 
L 525 4666 
z
" transform="scale(0.015625)"/>
       </defs>
       <use xlink:href="#DejaVuSans-30"/>
       <use xlink:href="#DejaVuSans-2e" x="63.623047"/>
       <use xlink:href="#DejaVuSans-37" x="95.410156"/>
       <use xlink:href="#DejaVuSans-30" x="159.033203"/>
      </g>
     </g>
    </g>
    <g id="ytick_2">
     <g id="line2d_8">
      <g>
       <use xlink:href="#m5979d4a5bb" x="57.6" y="265.343352" style="stroke: #000000; stroke-width: 0.8"/>
      </g>
     </g>
     <g id="text_9">
      <!-- 0.75 -->
      <g transform="translate(28.334375 269.142571) scale(0.1 -0.1)">
       <defs>
        <path id="DejaVuSans-35" d="M 691 4666 
L 3169 4666 
L 3169 4134 
L 1269 4134 
L 1269 2991 
Q 1406 3038 1543 3061 
Q 1681 3084 1819 3084 
Q 2600 3084 3056 2656 
Q 3513 2228 3513 1497 
Q 3513 744 3044 326 
Q 2575 -91 1722 -91 
Q 1428 -91 1123 -41 
Q 819 9 494 109 
L 494 744 
Q 775 591 1075 516 
Q 1375 441 1709 441 
Q 2250 441 2565 725 
Q 2881 1009 2881 1497 
Q 2881 1984 2565 2268 
Q 2250 2553 1709 2553 
Q 1456 2553 1204 2497 
Q 953 2441 691 2322 
L 691 4666 
z
" transform="scale(0.015625)"/>
       </defs>
       <use xlink:href="#DejaVuSans-30"/>
       <use xlink:href="#DejaVuSans-2e" x="63.623047"/>
       <use xlink:href="#DejaVuSans-37" x="95.410156"/>
       <use xlink:href="#DejaVuSans-35" x="159.033203"/>
      </g>
     </g>
    </g>
    <g id="ytick_3">
     <g id="line2d_9">
      <g>
       <use xlink:href="#m5979d4a5bb" x="57.6" y="224.174047" style="stroke: #000000; stroke-width: 0.8"/>
      </g>
     </g>
     <g id="text_10">
      <!-- 0.80 -->
      <g transform="translate(28.334375 227.973266) scale(0.1 -0.1)">
       <use xlink:href="#DejaVuSans-30"/>
       <use xlink:href="#DejaVuSans-2e" x="63.623047"/>
       <use xlink:href="#DejaVuSans-38" x="95.410156"/>
       <use xlink:href="#DejaVuSans-30" x="159.033203"/>
      </g>
     </g>
    </g>
    <g id="ytick_4">
     <g id="line2d_10">
      <g>
       <use xlink:href="#m5979d4a5bb" x="57.6" y="183.004743" style="stroke: #000000; stroke-width: 0.8"/>
      </g>
     </g>
     <g id="text_11">
      <!-- 0.85 -->
      <g transform="translate(28.334375 186.803961) scale(0.1 -0.1)">
       <use xlink:href="#DejaVuSans-30"/>
       <use xlink:href="#DejaVuSans-2e" x="63.623047"/>
       <use xlink:href="#DejaVuSans-38" x="95.410156"/>
       <use xlink:href="#DejaVuSans-35" x="159.033203"/>
      </g>
     </g>
    </g>
    <g id="ytick_5">
     <g id="line2d_11">
      <g>
       <use xlink:href="#m5979d4a5bb" x="57.6" y="141.835438" style="stroke: #000000; stroke-width: 0.8"/>
      </g>
     </g>
     <g id="text_12">
      <!-- 0.90 -->
      <g transform="translate(28.334375 145.634657) scale(0.1 -0.1)">
       <defs>
        <path id="DejaVuSans-39" d="M 703 97 
L 703 672 
Q 941 559 1184 500 
Q 1428 441 1663 441 
Q 2288 441 2617 861 
Q 2947 1281 2994 2138 
Q 2813 1869 2534 1725 
Q 2256 1581 1919 1581 
Q 1219 1581 811 2004 
Q 403 2428 403 3163 
Q 403 3881 828 4315 
Q 1253 4750 1959 4750 
Q 2769 4750 3195 4129 
Q 3622 3509 3622 2328 
Q 3622 1225 3098 567 
Q 2575 -91 1691 -91 
Q 1453 -91 1209 -44 
Q 966 3 703 97 
z
M 1959 2075 
Q 2384 2075 2632 2365 
Q 2881 2656 2881 3163 
Q 2881 3666 2632 3958 
Q 2384 4250 1959 4250 
Q 1534 4250 1286 3958 
Q 1038 3666 1038 3163 
Q 1038 2656 1286 2365 
Q 1534 2075 1959 2075 
z
" transform="scale(0.015625)"/>
       </defs>
       <use xlink:href="#DejaVuSans-30"/>
       <use xlink:href="#DejaVuSans-2e" x="63.623047"/>
       <use xlink:href="#DejaVuSans-39" x="95.410156"/>
       <use xlink:href="#DejaVuSans-30" x="159.033203"/>
      </g>
     </g>
    </g>
    <g id="ytick_6">
     <g id="line2d_12">
      <g>
       <use xlink:href="#m5979d4a5bb" x="57.6" y="100.666133" style="stroke: #000000; stroke-width: 0.8"/>
      </g>
     </g>
     <g id="text_13">
      <!-- 0.95 -->
      <g transform="translate(28.334375 104.465352) scale(0.1 -0.1)">
       <use xlink:href="#DejaVuSans-30"/>
       <use xlink:href="#DejaVuSans-2e" x="63.623047"/>
       <use xlink:href="#DejaVuSans-39" x="95.410156"/>
       <use xlink:href="#DejaVuSans-35" x="159.033203"/>
      </g>
     </g>
    </g>
    <g id="ytick_7">
     <g id="line2d_13">
      <g>
       <use xlink:href="#m5979d4a5bb" x="57.6" y="59.496829" style="stroke: #000000; stroke-width: 0.8"/>
      </g>
     </g>
     <g id="text_14">
      <!-- 1.00 -->
      <g transform="translate(28.334375 63.296047) scale(0.1 -0.1)">
       <use xlink:href="#DejaVuSans-31"/>
       <use xlink:href="#DejaVuSans-2e" x="63.623047"/>
       <use xlink:href="#DejaVuSans-30" x="95.410156"/>
       <use xlink:href="#DejaVuSans-30" x="159.033203"/>
      </g>
     </g>
    </g>
    <g id="text_15">
     <!-- Tempo -->
     <g transform="translate(22.254687 190.912375) rotate(-90) scale(0.1 -0.1)">
      <defs>
       <path id="DejaVuSans-54" d="M -19 4666 
L 3928 4666 
L 3928 4134 
L 2272 4134 
L 2272 0 
L 1638 0 
L 1638 4134 
L -19 4134 
L -19 4666 
z
" transform="scale(0.015625)"/>
       <path id="DejaVuSans-6d" d="M 3328 2828 
Q 3544 3216 3844 3400 
Q 4144 3584 4550 3584 
Q 5097 3584 5394 3201 
Q 5691 2819 5691 2113 
L 5691 0 
L 5113 0 
L 5113 2094 
Q 5113 2597 4934 2840 
Q 4756 3084 4391 3084 
Q 3944 3084 3684 2787 
Q 3425 2491 3425 1978 
L 3425 0 
L 2847 0 
L 2847 2094 
Q 2847 2600 2669 2842 
Q 2491 3084 2119 3084 
Q 1678 3084 1418 2786 
Q 1159 2488 1159 1978 
L 1159 0 
L 581 0 
L 581 3500 
L 1159 3500 
L 1159 2956 
Q 1356 3278 1631 3431 
Q 1906 3584 2284 3584 
Q 2666 3584 2933 3390 
Q 3200 3197 3328 2828 
z
" transform="scale(0.015625)"/>
       <path id="DejaVuSans-70" d="M 1159 525 
L 1159 -1331 
L 581 -1331 
L 581 3500 
L 1159 3500 
L 1159 2969 
Q 1341 3281 1617 3432 
Q 1894 3584 2278 3584 
Q 2916 3584 3314 3078 
Q 3713 2572 3713 1747 
Q 3713 922 3314 415 
Q 2916 -91 2278 -91 
Q 1894 -91 1617 61 
Q 1341 213 1159 525 
z
M 3116 1747 
Q 3116 2381 2855 2742 
Q 2594 3103 2138 3103 
Q 1681 3103 1420 2742 
Q 1159 2381 1159 1747 
Q 1159 1113 1420 752 
Q 1681 391 2138 391 
Q 2594 391 2855 752 
Q 3116 1113 3116 1747 
z
" transform="scale(0.015625)"/>
       <path id="DejaVuSans-6f" d="M 1959 3097 
Q 1497 3097 1228 2736 
Q 959 2375 959 1747 
Q 959 1119 1226 758 
Q 1494 397 1959 397 
Q 2419 397 2687 759 
Q 2956 1122 2956 1747 
Q 2956 2369 2687 2733 
Q 2419 3097 1959 3097 
z
M 1959 3584 
Q 2709 3584 3137 3096 
Q 3566 2609 3566 1747 
Q 3566 888 3137 398 
Q 2709 -91 1959 -91 
Q 1206 -91 779 398 
Q 353 888 353 1747 
Q 353 2609 779 3096 
Q 1206 3584 1959 3584 
z
" transform="scale(0.015625)"/>
      </defs>
      <use xlink:href="#DejaVuSans-54"/>
      <use xlink:href="#DejaVuSans-65" x="44.083984"/>
      <use xlink:href="#DejaVuSans-6d" x="105.607422"/>
      <use xlink:href="#DejaVuSans-70" x="203.019531"/>
      <use xlink:href="#DejaVuSans-6f" x="266.496094"/>
     </g>
    </g>
   </g>
   <g id="line2d_14">
    <path d="M 73.832727 144.877849 
L 74.157707 160.197771 
L 74.482686 231.24858 
L 74.807666 266.981273 
L 75.132645 248.85027 
L 75.457625 273.970517 
L 75.782604 288.172319 
L 76.432563 267.414076 
L 76.757543 278.324692 
L 77.082523 269.766657 
L 77.407502 280.954409 
L 78.057461 269.273197 
L 78.382441 277.590012 
L 79.357379 262.487849 
L 79.682359 270.257363 
L 80.007338 266.601321 
L 80.332318 271.856963 
L 80.657297 268.362933 
L 81.307256 277.647313 
L 81.632236 281.164419 
L 82.282195 274.338845 
L 82.607174 277.515204 
L 82.932154 274.004351 
L 83.257133 278.429564 
L 83.907093 272.518364 
L 84.557052 279.515473 
L 84.882031 281.706363 
L 85.207011 278.658077 
L 85.85697 284.0974 
L 86.181949 281.952147 
L 87.156888 289.474838 
L 87.481867 291.462365 
L 87.806847 291.814709 
L 88.131826 293.107803 
L 88.456806 295.488 
L 88.781785 293.7552 
L 89.106765 278.178706 
L 89.431744 275.944952 
L 89.756724 277.61635 
L 90.406683 273.590751 
L 91.381622 268.539497 
L 92.031581 271.523399 
L 92.68154 274.536974 
L 93.006519 273.169815 
L 93.331499 274.518127 
L 93.981458 271.920142 
L 94.306437 270.882296 
L 94.631417 272.005077 
L 95.281376 275.124687 
L 95.606355 273.691857 
L 95.931335 275.434342 
L 97.556233 269.1425 
L 97.881212 270.920091 
L 98.206192 269.777297 
L 98.531171 271.615693 
L 99.18113 269.358891 
L 99.50611 270.99987 
L 99.831089 270.162143 
L 100.156069 271.028983 
L 100.481048 270.093684 
L 100.806028 268.809484 
L 101.131007 270.200952 
L 101.455987 269.383717 
L 101.780966 270.586485 
L 102.105946 269.708084 
L 102.430925 271.137085 
L 102.755905 270.116494 
L 103.080885 271.377632 
L 103.730844 273.013769 
L 104.380803 271.067298 
L 105.030762 273.382851 
L 105.355741 272.441385 
L 106.0057 274.530052 
L 106.655659 276.715113 
L 106.980639 277.908615 
L 107.955577 275.665289 
L 108.930516 278.274842 
L 109.255495 277.60664 
L 109.905455 278.939515 
L 110.880393 276.840836 
L 111.205373 277.923882 
L 111.855332 276.581497 
L 112.180311 275.839144 
L 112.505291 276.665027 
L 113.805209 273.976369 
L 114.780147 275.647756 
L 115.105127 274.893241 
L 115.430106 275.62424 
L 115.755086 274.87727 
L 116.080066 275.59877 
L 117.055004 273.576002 
L 117.379984 274.239203 
L 117.704963 273.622378 
L 118.354922 275.279957 
L 118.679902 274.555443 
L 119.004881 275.343623 
L 119.65484 273.904903 
L 120.304799 275.327085 
L 121.279738 277.368357 
L 121.604717 278.249311 
L 121.929697 272.026849 
L 122.254676 271.409363 
L 122.579656 271.993247 
L 122.904636 271.384259 
L 123.229615 266.61205 
L 123.554595 267.548182 
L 124.854513 265.268898 
L 125.504472 266.48774 
L 126.154431 265.489935 
L 126.80439 266.420436 
L 127.454349 265.319241 
L 128.104308 264.54926 
L 128.754267 266.067467 
L 129.079247 266.538981 
L 129.404226 265.92596 
L 129.729206 260.603837 
L 130.379165 261.942777 
L 130.704144 261.582541 
L 131.029124 262.43952 
L 131.354103 262.904663 
L 131.679083 262.455212 
L 132.004062 263.007355 
L 134.278919 260.121362 
L 135.578837 262.908612 
L 135.903817 263.501776 
L 136.228796 263.101186 
L 136.553776 263.668457 
L 137.528714 262.455156 
L 138.178673 263.445811 
L 138.828632 262.431199 
L 139.153612 262.92651 
L 139.478591 262.65827 
L 139.803571 263.044482 
L 140.12855 262.560351 
L 140.45353 263.21575 
L 140.778509 262.840413 
L 141.428468 263.897356 
L 141.753448 263.515054 
L 142.403407 264.642452 
L 144.028305 263.021274 
L 144.678264 263.911416 
L 145.978182 262.533851 
L 146.303161 262.996882 
L 146.95312 262.406917 
L 148.578018 264.701649 
L 148.902998 264.394094 
L 149.227977 264.856798 
L 149.552957 264.497952 
L 149.877936 264.875136 
L 150.202916 264.629947 
L 151.177854 265.882129 
L 151.502834 265.569958 
L 151.827813 265.947994 
L 152.477772 265.035653 
L 153.127731 264.41514 
L 153.77769 265.001303 
L 154.10267 264.525461 
L 155.077609 263.7067 
L 155.727568 264.597218 
L 156.377527 263.803581 
L 156.702506 264.194236 
L 157.027486 263.94473 
L 157.352465 264.407934 
L 158.002424 263.672654 
L 158.327404 264.065267 
L 158.977363 263.514279 
L 159.627322 262.84678 
L 160.60226 263.987106 
L 160.92724 263.687369 
L 161.252219 263.993773 
L 161.902179 263.329943 
L 162.227158 263.706973 
L 162.877117 263.073031 
L 163.527076 264.016651 
L 164.177035 263.496048 
L 164.502015 263.910728 
L 165.476953 262.937714 
L 166.126912 263.817508 
L 166.451892 263.489795 
L 166.776871 263.840707 
L 167.101851 263.523874 
L 168.07679 264.486331 
L 168.726749 263.966768 
L 169.701687 265.096842 
L 170.676626 264.255193 
L 171.001605 264.530255 
L 171.326585 264.267993 
L 171.976544 265.048802 
L 172.301523 264.771575 
L 172.951482 265.533761 
L 173.926421 266.650231 
L 174.2514 266.316013 
L 174.90136 267.115424 
L 175.226339 266.928673 
L 175.551319 267.198538 
L 175.876298 266.920369 
L 176.851237 267.913357 
L 177.176216 267.654741 
L 177.826175 268.371345 
L 178.151155 268.088314 
L 178.476134 268.367575 
L 178.801114 268.083362 
L 179.451073 268.785863 
L 179.776052 268.428396 
L 180.101032 268.697842 
L 181.40095 267.660003 
L 181.72593 268.018288 
L 182.050909 53.568 
L 182.375889 54.497413 
L 182.700868 54.889229 
L 183.350827 56.674851 
L 184.325766 57.807192 
L 184.975725 59.612842 
L 185.950663 60.636055 
L 186.600622 62.482228 
L 187.250581 63.123583 
L 187.575561 63.980633 
L 187.900541 64.12151 
L 188.22552 64.484696 
L 188.5505 65.335438 
L 188.875479 65.69883 
L 189.525438 67.387916 
L 189.850418 67.735867 
L 190.175397 68.623057 
L 190.825356 69.353203 
L 191.800295 71.878945 
L 192.775233 72.894821 
L 193.750172 75.321201 
L 194.075152 75.587819 
L 194.400131 76.448137 
L 194.725111 76.772634 
L 195.05009 77.617282 
L 195.700049 78.179529 
L 196.025029 79.012466 
L 196.350008 79.289033 
L 196.999967 80.761851 
L 197.649926 81.386893 
L 197.974906 82.167817 
L 199.274824 83.202497 
L 199.599803 83.988206 
L 199.924783 84.304577 
L 200.574742 85.736206 
L 201.549681 86.433756 
L 202.524619 88.549897 
L 203.499558 89.295972 
L 204.149517 90.686001 
L 204.474496 90.943 
L 205.124455 92.432581 
L 205.449435 92.686557 
L 206.424373 94.754885 
L 206.749353 95.498924 
L 207.074333 95.675756 
L 207.399312 96.343616 
L 207.724292 96.580509 
L 208.049271 97.196255 
L 209.02421 97.716492 
L 209.674169 98.083474 
L 210.649107 100.065684 
L 210.974087 100.283479 
L 211.624046 101.582508 
L 211.949025 101.821777 
L 212.598984 103.005312 
L 212.923964 103.220428 
L 213.248943 103.770755 
L 213.898903 104.166342 
L 214.223882 104.769104 
L 214.873841 105.191467 
L 215.198821 105.88543 
L 216.498739 106.69552 
L 216.823718 107.289294 
L 217.148698 107.443515 
L 217.473677 108.045883 
L 218.123636 108.441525 
L 219.098575 110.330638 
L 220.073514 110.882261 
L 220.723473 111.999836 
L 221.698411 112.493255 
L 222.023391 113.125383 
L 222.67335 113.434828 
L 223.648288 115.145597 
L 224.298247 115.519326 
L 224.623227 116.056174 
L 224.948206 116.128389 
L 225.598165 117.169964 
L 225.923145 117.344868 
L 227.223063 119.517915 
L 227.548043 119.646687 
L 228.522981 121.227446 
L 229.17294 121.512968 
L 230.797838 124.322555 
L 231.447797 124.632453 
L 233.722654 127.936103 
L 234.047633 128.088617 
L 235.022572 129.585459 
L 235.347551 129.711884 
L 235.99751 130.803522 
L 236.32249 130.925457 
L 236.972449 131.802575 
L 237.297428 131.890429 
L 238.597346 134.00979 
L 238.922326 134.114944 
L 239.572285 135.043299 
L 239.897265 135.537695 
L 240.222244 135.597502 
L 240.547224 136.054092 
L 240.872203 136.202999 
L 241.522162 137.085158 
L 241.847142 136.699613 
L 242.497101 136.880136 
L 242.82208 137.336485 
L 244.121998 137.656407 
L 244.771957 138.505779 
L 245.421916 138.68251 
L 245.746896 139.113229 
L 246.396855 139.276077 
L 246.721835 139.704116 
L 247.371794 139.888097 
L 248.671712 141.722938 
L 249.97163 142.068975 
L 250.296609 142.474811 
L 250.621589 142.519385 
L 251.921507 144.305092 
L 252.246486 144.364569 
L 252.571466 144.782399 
L 253.221425 144.904301 
L 253.871384 145.745885 
L 254.196364 145.806952 
L 254.521343 146.173901 
L 254.846323 146.269652 
L 255.821261 147.380366 
L 256.146241 147.83612 
L 256.47122 147.941975 
L 256.7962 147.903779 
L 257.121179 148.257399 
L 257.446159 148.314891 
L 258.096118 149.095468 
L 258.421097 149.193526 
L 258.746077 149.570847 
L 259.396036 149.666806 
L 259.721016 149.998075 
L 260.045995 150.037261 
L 260.370975 150.408554 
L 260.695954 150.502203 
L 261.995872 152.154172 
L 262.320852 152.226682 
L 263.29579 153.311977 
L 263.62077 153.354139 
L 263.945749 153.764627 
L 264.920688 153.912288 
L 265.245667 154.347631 
L 265.570647 154.371015 
L 266.870565 155.503946 
L 267.195545 155.527097 
L 267.845504 156.22864 
L 268.170483 156.285772 
L 268.495463 156.628738 
L 268.820442 155.594881 
L 269.470401 156.340464 
L 270.12036 156.422532 
L 270.770319 157.17377 
L 271.095299 157.242966 
L 271.745258 157.946743 
L 272.070238 158.003319 
L 272.720197 158.67645 
L 274.020115 158.925869 
L 275.320033 159.111084 
L 275.645012 159.424659 
L 276.619951 159.595587 
L 277.26991 160.185922 
L 277.594889 160.188226 
L 278.244848 160.964618 
L 278.569828 161.001589 
L 279.544767 162.007491 
L 279.869746 162.039259 
L 280.194726 162.412036 
L 280.519705 162.435312 
L 281.169664 163.046429 
L 281.494644 163.057881 
L 281.819623 163.334342 
L 282.144603 163.367828 
L 282.469582 163.68993 
L 282.794562 163.737003 
L 283.119541 164.039994 
L 283.444521 164.07205 
L 283.7695 164.456629 
L 284.09448 164.509876 
L 284.744439 165.103861 
L 285.069419 165.141676 
L 285.719378 165.83417 
L 286.369337 165.87173 
L 286.694316 166.209427 
L 287.019296 166.231141 
L 287.344275 166.525195 
L 287.669255 166.594614 
L 287.994234 166.900203 
L 288.644193 166.894103 
L 289.294152 167.565771 
L 290.269091 167.536358 
L 291.569009 168.603039 
L 292.218968 168.638072 
L 292.543948 168.98721 
L 292.868927 169.013462 
L 293.193907 169.284647 
L 293.843866 169.271906 
L 294.493825 169.839759 
L 295.468763 169.876377 
L 295.793743 170.168536 
L 296.118722 170.169822 
L 296.768681 170.816657 
L 297.74362 170.924599 
L 298.0686 171.176188 
L 298.393579 171.197742 
L 298.718559 171.457342 
L 300.018477 171.505155 
L 300.993415 171.500921 
L 301.318395 171.767068 
L 301.643374 171.811688 
L 302.943292 173.028872 
L 303.918231 173.119693 
L 305.868108 174.364418 
L 306.193088 174.379711 
L 306.518067 174.689235 
L 307.493006 174.7249 
L 309.442883 174.853745 
L 309.767862 175.087245 
L 310.092842 174.203616 
L 310.742801 174.7549 
L 311.39276 174.741994 
L 311.71774 174.984535 
L 312.042719 174.993477 
L 312.367699 175.220617 
L 313.342637 175.271805 
L 313.992596 175.320218 
L 314.317576 175.633675 
L 314.642555 175.637301 
L 315.292514 176.089717 
L 316.267453 176.094161 
L 317.242391 176.113135 
L 317.567371 176.155678 
L 317.892351 176.408796 
L 318.21733 176.417453 
L 319.192269 177.160424 
L 320.167207 177.145372 
L 320.492187 177.454622 
L 321.142146 177.477386 
L 321.467125 177.704661 
L 321.792105 177.71737 
L 322.442064 178.17746 
L 322.767043 178.192054 
L 323.092023 178.484118 
L 323.417002 178.485841 
L 323.741982 178.781931 
L 325.0419 178.83345 
L 325.36688 179.050212 
L 326.341818 179.036677 
L 327.316757 179.76603 
L 327.966716 180.234601 
L 328.291695 180.209777 
L 329.266634 180.948738 
L 330.241572 180.957802 
L 332.19145 182.516732 
L 332.516429 182.503033 
L 332.841409 182.732998 
L 333.166388 182.751837 
L 333.491368 182.960143 
L 333.816347 182.943426 
L 334.141327 183.153586 
L 334.466306 183.123469 
L 335.116265 183.622645 
L 335.441245 183.614793 
L 335.766224 183.886167 
L 336.091204 183.904121 
L 336.416183 184.08968 
L 336.741163 184.07926 
L 337.391122 184.536257 
L 338.041081 184.52561 
L 338.366061 184.728139 
L 338.69104 184.727077 
L 339.665979 185.434308 
L 339.990958 185.45023 
L 340.315938 185.721654 
L 340.965897 185.669911 
L 341.615856 186.156847 
L 342.590794 186.189247 
L 343.240753 186.605332 
L 345.51561 186.571389 
L 346.490549 187.291826 
L 347.140508 187.288287 
L 347.465487 187.473432 
L 347.790467 187.473323 
L 348.115446 187.731559 
L 348.440426 187.717645 
L 348.765405 187.961732 
L 349.415364 187.958258 
L 349.740344 188.147675 
L 350.390303 188.180442 
L 350.715283 188.414331 
L 351.690221 188.447096 
L 352.015201 188.656945 
L 352.66516 188.64477 
L 353.640098 189.272823 
L 353.965078 189.238533 
L 354.290057 189.047146 
L 354.615037 189.256741 
L 354.940016 188.826972 
L 355.264996 188.783278 
L 355.589975 188.966892 
L 355.914955 188.969558 
L 356.889894 189.520948 
L 357.214873 189.515613 
L 357.539853 189.704146 
L 359.48973 189.61798 
L 359.814709 189.808274 
L 360.139689 189.798594 
L 360.464668 189.400514 
L 361.114627 189.346051 
L 361.439607 188.41064 
L 362.089566 188.823754 
L 362.739525 188.836726 
L 363.064505 189.071503 
L 363.389484 189.082344 
L 366.3143 190.593705 
L 366.639279 190.579553 
L 366.964259 190.777849 
L 367.614218 190.783407 
L 368.589156 191.354516 
L 369.239115 191.283912 
L 370.539034 191.784897 
L 370.864013 191.777248 
L 371.188993 192.016004 
L 371.513972 191.989506 
L 371.838952 192.173711 
L 372.163931 192.157944 
L 372.488911 192.329447 
L 373.463849 192.283904 
L 373.788829 192.469769 
L 374.438788 192.440965 
L 374.763767 192.60548 
L 375.088747 191.708464 
L 375.738706 191.687238 
L 376.388665 192.082365 
L 377.363604 192.037767 
L 377.688583 192.262729 
L 378.338542 192.266546 
L 378.663522 192.446137 
L 378.988501 192.45516 
L 379.313481 192.634295 
L 379.63846 191.744219 
L 380.288419 191.689161 
L 381.263358 192.27047 
L 381.588337 192.240042 
L 381.913317 192.387277 
L 382.238296 192.373096 
L 382.563276 192.589555 
L 382.888256 192.594671 
L 383.213235 192.778335 
L 384.188174 192.76483 
L 384.513153 192.934969 
L 385.163112 192.878048 
L 385.813071 193.267856 
L 386.138051 193.274815 
L 386.46303 192.423071 
L 388.412907 192.388312 
L 388.737887 192.400572 
L 389.062867 192.575685 
L 389.387846 192.586741 
L 389.712826 192.778398 
L 390.037805 192.761984 
L 391.662703 193.469693 
L 392.962621 193.381953 
L 393.937559 193.935558 
L 394.587518 193.884386 
L 395.887437 194.389074 
L 396.537396 194.359469 
L 396.862375 194.532816 
L 397.187355 194.53258 
L 397.512334 194.716784 
L 398.487273 194.655572 
L 398.487273 194.655572 
" clip-path="url(#p4f41b14f82)" style="fill: none; stroke: #1f77b4; stroke-width: 1.5; stroke-linecap: square"/>
   </g>
   <g id="patch_3">
    <path d="M 57.6 307.584 
L 57.6 41.472 
" style="fill: none; stroke: #000000; stroke-width: 0.8; stroke-linejoin: miter; stroke-linecap: square"/>
   </g>
   <g id="patch_4">
    <path d="M 414.72 307.584 
L 414.72 41.472 
" style="fill: none; stroke: #000000; stroke-width: 0.8; stroke-linejoin: miter; stroke-linecap: square"/>
   </g>
   <g id="patch_5">
    <path d="M 57.6 307.584 
L 414.72 307.584 
" style="fill: none; stroke: #000000; stroke-width: 0.8; stroke-linejoin: miter; stroke-linecap: square"/>
   </g>
   <g id="patch_6">
    <path d="M 57.6 41.472 
L 414.72 41.472 
" style="fill: none; stroke: #000000; stroke-width: 0.8; stroke-linejoin: miter; stroke-linecap: square"/>
   </g>
   <g id="text_16">
    <!-- Tempo x Requisição -->
    <g transform="translate(176.824687 35.472) scale(0.12 -0.12)">
     <defs>
      <path id="DejaVuSans-20" transform="scale(0.015625)"/>
      <path id="DejaVuSans-78" d="M 3513 3500 
L 2247 1797 
L 3578 0 
L 2900 0 
L 1881 1375 
L 863 0 
L 184 0 
L 1544 1831 
L 300 3500 
L 978 3500 
L 1906 2253 
L 2834 3500 
L 3513 3500 
z
" transform="scale(0.015625)"/>
      <path id="DejaVuSans-e3" d="M 2194 1759 
Q 1497 1759 1228 1600 
Q 959 1441 959 1056 
Q 959 750 1161 570 
Q 1363 391 1709 391 
Q 2188 391 2477 730 
Q 2766 1069 2766 1631 
L 2766 1759 
L 2194 1759 
z
M 3341 1997 
L 3341 0 
L 2766 0 
L 2766 531 
Q 2569 213 2275 61 
Q 1981 -91 1556 -91 
Q 1019 -91 701 211 
Q 384 513 384 1019 
Q 384 1609 779 1909 
Q 1175 2209 1959 2209 
L 2766 2209 
L 2766 2266 
Q 2766 2663 2505 2880 
Q 2244 3097 1772 3097 
Q 1472 3097 1187 3025 
Q 903 2953 641 2809 
L 641 3341 
Q 956 3463 1253 3523 
Q 1550 3584 1831 3584 
Q 2591 3584 2966 3190 
Q 3341 2797 3341 1997 
z
M 1844 4281 
L 1665 4453 
Q 1597 4516 1545 4545 
Q 1494 4575 1453 4575 
Q 1334 4575 1278 4461 
Q 1222 4347 1215 4091 
L 825 4091 
Q 831 4513 990 4742 
Q 1150 4972 1434 4972 
Q 1553 4972 1653 4928 
Q 1753 4884 1869 4781 
L 2047 4609 
Q 2115 4547 2167 4517 
Q 2219 4488 2259 4488 
Q 2378 4488 2434 4602 
Q 2490 4716 2497 4972 
L 2887 4972 
Q 2881 4550 2721 4320 
Q 2562 4091 2278 4091 
Q 2159 4091 2059 4134 
Q 1959 4178 1844 4281 
z
" transform="scale(0.015625)"/>
     </defs>
     <use xlink:href="#DejaVuSans-54"/>
     <use xlink:href="#DejaVuSans-65" x="44.083984"/>
     <use xlink:href="#DejaVuSans-6d" x="105.607422"/>
     <use xlink:href="#DejaVuSans-70" x="203.019531"/>
     <use xlink:href="#DejaVuSans-6f" x="266.496094"/>
     <use xlink:href="#DejaVuSans-20" x="327.677734"/>
     <use xlink:href="#DejaVuSans-78" x="359.464844"/>
     <use xlink:href="#DejaVuSans-20" x="418.644531"/>
     <use xlink:href="#DejaVuSans-52" x="450.431641"/>
     <use xlink:href="#DejaVuSans-65" x="515.414062"/>
     <use xlink:href="#DejaVuSans-71" x="576.9375"/>
     <use xlink:href="#DejaVuSans-75" x="640.414062"/>
     <use xlink:href="#DejaVuSans-69" x="703.792969"/>
     <use xlink:href="#DejaVuSans-73" x="731.576172"/>
     <use xlink:href="#DejaVuSans-69" x="783.675781"/>
     <use xlink:href="#DejaVuSans-e7" x="811.458984"/>
     <use xlink:href="#DejaVuSans-e3" x="866.439453"/>
     <use xlink:href="#DejaVuSans-6f" x="927.71875"/>
    </g>
   </g>
  </g>
 </g>
 <defs>
  <clipPath id="p4f41b14f82">
   <rect x="57.6" y="41.472" width="357.12" height="266.112"/>
  </clipPath>
 </defs>
</svg>
