<?xml version="1.0" encoding="utf-8" standalone="no"?>
<!DOCTYPE svg PUBLIC "-//W3C//DTD SVG 1.1//EN"
  "http://www.w3.org/Graphics/SVG/1.1/DTD/svg11.dtd">
<svg xmlns:xlink="http://www.w3.org/1999/xlink" width="460.8pt" height="345.6pt" viewBox="0 0 460.8 345.6" xmlns="http://www.w3.org/2000/svg" version="1.1">
 <metadata>
  <rdf:RDF xmlns:dc="http://purl.org/dc/elements/1.1/" xmlns:cc="http://creativecommons.org/ns#" xmlns:rdf="http://www.w3.org/1999/02/22-rdf-syntax-ns#">
   <cc:Work>
    <dc:type rdf:resource="http://purl.org/dc/dcmitype/StillImage"/>
    <dc:date>2023-03-04T11:55:14.029773</dc:date>
    <dc:format>image/svg+xml</dc:format>
    <dc:creator>
     <cc:Agent>
      <dc:title>Matplotlib v3.7.0, https://matplotlib.org/</dc:title>
     </cc:Agent>
    </dc:creator>
   </cc:Work>
  </rdf:RDF>
 </metadata>
 <defs>
  <style type="text/css">*{stroke-linejoin: round; stroke-linecap: butt}</style>
 </defs>
 <g id="figure_1">
  <g id="patch_1">
   <path d="M 0 345.6 
L 460.8 345.6 
L 460.8 0 
L 0 0 
z
" style="fill: #ffffff"/>
  </g>
  <g id="axes_1">
   <g id="patch_2">
    <path d="M 57.6 307.584 
L 414.72 307.584 
L 414.72 41.472 
L 57.6 41.472 
z
" style="fill: #ffffff"/>
   </g>
   <g id="matplotlib.axis_1">
    <g id="xtick_1">
     <g id="line2d_1">
      <defs>
       <path id="mf09b4dd05e" d="M 0 0 
L 0 3.5 
" style="stroke: #000000; stroke-width: 0.8"/>
      </defs>
      <g>
       <use xlink:href="#mf09b4dd05e" x="73.832727" y="307.584" style="stroke: #000000; stroke-width: 0.8"/>
      </g>
     </g>
     <g id="text_1">
      <!-- 0 -->
      <g transform="translate(70.651477 322.182437) scale(0.1 -0.1)">
       <defs>
        <path id="DejaVuSans-30" d="M 2034 4250 
Q 1547 4250 1301 3770 
Q 1056 3291 1056 2328 
Q 1056 1369 1301 889 
Q 1547 409 2034 409 
Q 2525 409 2770 889 
Q 3016 1369 3016 2328 
Q 3016 3291 2770 3770 
Q 2525 4250 2034 4250 
z
M 2034 4750 
Q 2819 4750 3233 4129 
Q 3647 3509 3647 2328 
Q 3647 1150 3233 529 
Q 2819 -91 2034 -91 
Q 1250 -91 836 529 
Q 422 1150 422 2328 
Q 422 3509 836 4129 
Q 1250 4750 2034 4750 
z
" transform="scale(0.015625)"/>
       </defs>
       <use xlink:href="#DejaVuSans-30"/>
      </g>
     </g>
    </g>
    <g id="xtick_2">
     <g id="line2d_2">
      <g>
       <use xlink:href="#mf09b4dd05e" x="138.828632" y="307.584" style="stroke: #000000; stroke-width: 0.8"/>
      </g>
     </g>
     <g id="text_2">
      <!-- 200 -->
      <g transform="translate(129.284882 322.182437) scale(0.1 -0.1)">
       <defs>
        <path id="DejaVuSans-32" d="M 1228 531 
L 3431 531 
L 3431 0 
L 469 0 
L 469 531 
Q 828 903 1448 1529 
Q 2069 2156 2228 2338 
Q 2531 2678 2651 2914 
Q 2772 3150 2772 3378 
Q 2772 3750 2511 3984 
Q 2250 4219 1831 4219 
Q 1534 4219 1204 4116 
Q 875 4013 500 3803 
L 500 4441 
Q 881 4594 1212 4672 
Q 1544 4750 1819 4750 
Q 2544 4750 2975 4387 
Q 3406 4025 3406 3419 
Q 3406 3131 3298 2873 
Q 3191 2616 2906 2266 
Q 2828 2175 2409 1742 
Q 1991 1309 1228 531 
z
" transform="scale(0.015625)"/>
       </defs>
       <use xlink:href="#DejaVuSans-32"/>
       <use xlink:href="#DejaVuSans-30" x="63.623047"/>
       <use xlink:href="#DejaVuSans-30" x="127.246094"/>
      </g>
     </g>
    </g>
    <g id="xtick_3">
     <g id="line2d_3">
      <g>
       <use xlink:href="#mf09b4dd05e" x="203.824537" y="307.584" style="stroke: #000000; stroke-width: 0.8"/>
      </g>
     </g>
     <g id="text_3">
      <!-- 400 -->
      <g transform="translate(194.280787 322.182437) scale(0.1 -0.1)">
       <defs>
        <path id="DejaVuSans-34" d="M 2419 4116 
L 825 1625 
L 2419 1625 
L 2419 4116 
z
M 2253 4666 
L 3047 4666 
L 3047 1625 
L 3713 1625 
L 3713 1100 
L 3047 1100 
L 3047 0 
L 2419 0 
L 2419 1100 
L 313 1100 
L 313 1709 
L 2253 4666 
z
" transform="scale(0.015625)"/>
       </defs>
       <use xlink:href="#DejaVuSans-34"/>
       <use xlink:href="#DejaVuSans-30" x="63.623047"/>
       <use xlink:href="#DejaVuSans-30" x="127.246094"/>
      </g>
     </g>
    </g>
    <g id="xtick_4">
     <g id="line2d_4">
      <g>
       <use xlink:href="#mf09b4dd05e" x="268.820442" y="307.584" style="stroke: #000000; stroke-width: 0.8"/>
      </g>
     </g>
     <g id="text_4">
      <!-- 600 -->
      <g transform="translate(259.276692 322.182437) scale(0.1 -0.1)">
       <defs>
        <path id="DejaVuSans-36" d="M 2113 2584 
Q 1688 2584 1439 2293 
Q 1191 2003 1191 1497 
Q 1191 994 1439 701 
Q 1688 409 2113 409 
Q 2538 409 2786 701 
Q 3034 994 3034 1497 
Q 3034 2003 2786 2293 
Q 2538 2584 2113 2584 
z
M 3366 4563 
L 3366 3988 
Q 3128 4100 2886 4159 
Q 2644 4219 2406 4219 
Q 1781 4219 1451 3797 
Q 1122 3375 1075 2522 
Q 1259 2794 1537 2939 
Q 1816 3084 2150 3084 
Q 2853 3084 3261 2657 
Q 3669 2231 3669 1497 
Q 3669 778 3244 343 
Q 2819 -91 2113 -91 
Q 1303 -91 875 529 
Q 447 1150 447 2328 
Q 447 3434 972 4092 
Q 1497 4750 2381 4750 
Q 2619 4750 2861 4703 
Q 3103 4656 3366 4563 
z
" transform="scale(0.015625)"/>
       </defs>
       <use xlink:href="#DejaVuSans-36"/>
       <use xlink:href="#DejaVuSans-30" x="63.623047"/>
       <use xlink:href="#DejaVuSans-30" x="127.246094"/>
      </g>
     </g>
    </g>
    <g id="xtick_5">
     <g id="line2d_5">
      <g>
       <use xlink:href="#mf09b4dd05e" x="333.816347" y="307.584" style="stroke: #000000; stroke-width: 0.8"/>
      </g>
     </g>
     <g id="text_5">
      <!-- 800 -->
      <g transform="translate(324.272597 322.182437) scale(0.1 -0.1)">
       <defs>
        <path id="DejaVuSans-38" d="M 2034 2216 
Q 1584 2216 1326 1975 
Q 1069 1734 1069 1313 
Q 1069 891 1326 650 
Q 1584 409 2034 409 
Q 2484 409 2743 651 
Q 3003 894 3003 1313 
Q 3003 1734 2745 1975 
Q 2488 2216 2034 2216 
z
M 1403 2484 
Q 997 2584 770 2862 
Q 544 3141 544 3541 
Q 544 4100 942 4425 
Q 1341 4750 2034 4750 
Q 2731 4750 3128 4425 
Q 3525 4100 3525 3541 
Q 3525 3141 3298 2862 
Q 3072 2584 2669 2484 
Q 3125 2378 3379 2068 
Q 3634 1759 3634 1313 
Q 3634 634 3220 271 
Q 2806 -91 2034 -91 
Q 1263 -91 848 271 
Q 434 634 434 1313 
Q 434 1759 690 2068 
Q 947 2378 1403 2484 
z
M 1172 3481 
Q 1172 3119 1398 2916 
Q 1625 2713 2034 2713 
Q 2441 2713 2670 2916 
Q 2900 3119 2900 3481 
Q 2900 3844 2670 4047 
Q 2441 4250 2034 4250 
Q 1625 4250 1398 4047 
Q 1172 3844 1172 3481 
z
" transform="scale(0.015625)"/>
       </defs>
       <use xlink:href="#DejaVuSans-38"/>
       <use xlink:href="#DejaVuSans-30" x="63.623047"/>
       <use xlink:href="#DejaVuSans-30" x="127.246094"/>
      </g>
     </g>
    </g>
    <g id="xtick_6">
     <g id="line2d_6">
      <g>
       <use xlink:href="#mf09b4dd05e" x="398.812252" y="307.584" style="stroke: #000000; stroke-width: 0.8"/>
      </g>
     </g>
     <g id="text_6">
      <!-- 1000 -->
      <g transform="translate(386.087252 322.182437) scale(0.1 -0.1)">
       <defs>
        <path id="DejaVuSans-31" d="M 794 531 
L 1825 531 
L 1825 4091 
L 703 3866 
L 703 4441 
L 1819 4666 
L 2450 4666 
L 2450 531 
L 3481 531 
L 3481 0 
L 794 0 
L 794 531 
z
" transform="scale(0.015625)"/>
       </defs>
       <use xlink:href="#DejaVuSans-31"/>
       <use xlink:href="#DejaVuSans-30" x="63.623047"/>
       <use xlink:href="#DejaVuSans-30" x="127.246094"/>
       <use xlink:href="#DejaVuSans-30" x="190.869141"/>
      </g>
     </g>
    </g>
    <g id="text_7">
     <!-- Requisições -->
     <g transform="translate(206.618594 336.030875) scale(0.1 -0.1)">
      <defs>
       <path id="DejaVuSans-52" d="M 2841 2188 
Q 3044 2119 3236 1894 
Q 3428 1669 3622 1275 
L 4263 0 
L 3584 0 
L 2988 1197 
Q 2756 1666 2539 1819 
Q 2322 1972 1947 1972 
L 1259 1972 
L 1259 0 
L 628 0 
L 628 4666 
L 2053 4666 
Q 2853 4666 3247 4331 
Q 3641 3997 3641 3322 
Q 3641 2881 3436 2590 
Q 3231 2300 2841 2188 
z
M 1259 4147 
L 1259 2491 
L 2053 2491 
Q 2509 2491 2742 2702 
Q 2975 2913 2975 3322 
Q 2975 3731 2742 3939 
Q 2509 4147 2053 4147 
L 1259 4147 
z
" transform="scale(0.015625)"/>
       <path id="DejaVuSans-65" d="M 3597 1894 
L 3597 1613 
L 953 1613 
Q 991 1019 1311 708 
Q 1631 397 2203 397 
Q 2534 397 2845 478 
Q 3156 559 3463 722 
L 3463 178 
Q 3153 47 2828 -22 
Q 2503 -91 2169 -91 
Q 1331 -91 842 396 
Q 353 884 353 1716 
Q 353 2575 817 3079 
Q 1281 3584 2069 3584 
Q 2775 3584 3186 3129 
Q 3597 2675 3597 1894 
z
M 3022 2063 
Q 3016 2534 2758 2815 
Q 2500 3097 2075 3097 
Q 1594 3097 1305 2825 
Q 1016 2553 972 2059 
L 3022 2063 
z
" transform="scale(0.015625)"/>
       <path id="DejaVuSans-71" d="M 947 1747 
Q 947 1113 1208 752 
Q 1469 391 1925 391 
Q 2381 391 2643 752 
Q 2906 1113 2906 1747 
Q 2906 2381 2643 2742 
Q 2381 3103 1925 3103 
Q 1469 3103 1208 2742 
Q 947 2381 947 1747 
z
M 2906 525 
Q 2725 213 2448 61 
Q 2172 -91 1784 -91 
Q 1150 -91 751 415 
Q 353 922 353 1747 
Q 353 2572 751 3078 
Q 1150 3584 1784 3584 
Q 2172 3584 2448 3432 
Q 2725 3281 2906 2969 
L 2906 3500 
L 3481 3500 
L 3481 -1331 
L 2906 -1331 
L 2906 525 
z
" transform="scale(0.015625)"/>
       <path id="DejaVuSans-75" d="M 544 1381 
L 544 3500 
L 1119 3500 
L 1119 1403 
Q 1119 906 1312 657 
Q 1506 409 1894 409 
Q 2359 409 2629 706 
Q 2900 1003 2900 1516 
L 2900 3500 
L 3475 3500 
L 3475 0 
L 2900 0 
L 2900 538 
Q 2691 219 2414 64 
Q 2138 -91 1772 -91 
Q 1169 -91 856 284 
Q 544 659 544 1381 
z
M 1991 3584 
L 1991 3584 
z
" transform="scale(0.015625)"/>
       <path id="DejaVuSans-69" d="M 603 3500 
L 1178 3500 
L 1178 0 
L 603 0 
L 603 3500 
z
M 603 4863 
L 1178 4863 
L 1178 4134 
L 603 4134 
L 603 4863 
z
" transform="scale(0.015625)"/>
       <path id="DejaVuSans-73" d="M 2834 3397 
L 2834 2853 
Q 2591 2978 2328 3040 
Q 2066 3103 1784 3103 
Q 1356 3103 1142 2972 
Q 928 2841 928 2578 
Q 928 2378 1081 2264 
Q 1234 2150 1697 2047 
L 1894 2003 
Q 2506 1872 2764 1633 
Q 3022 1394 3022 966 
Q 3022 478 2636 193 
Q 2250 -91 1575 -91 
Q 1294 -91 989 -36 
Q 684 19 347 128 
L 347 722 
Q 666 556 975 473 
Q 1284 391 1588 391 
Q 1994 391 2212 530 
Q 2431 669 2431 922 
Q 2431 1156 2273 1281 
Q 2116 1406 1581 1522 
L 1381 1569 
Q 847 1681 609 1914 
Q 372 2147 372 2553 
Q 372 3047 722 3315 
Q 1072 3584 1716 3584 
Q 2034 3584 2315 3537 
Q 2597 3491 2834 3397 
z
" transform="scale(0.015625)"/>
       <path id="DejaVuSans-e7" d="M 3122 3366 
L 3122 2828 
Q 2878 2963 2633 3030 
Q 2388 3097 2138 3097 
Q 1578 3097 1268 2742 
Q 959 2388 959 1747 
Q 959 1106 1268 751 
Q 1578 397 2138 397 
Q 2388 397 2633 464 
Q 2878 531 3122 666 
L 3122 134 
Q 2881 22 2623 -34 
Q 2366 -91 2075 -91 
Q 1284 -91 818 406 
Q 353 903 353 1747 
Q 353 2603 823 3093 
Q 1294 3584 2113 3584 
Q 2378 3584 2631 3529 
Q 2884 3475 3122 3366 
z
M 2311 0 
Q 2482 -194 2566 -358 
Q 2651 -522 2651 -672 
Q 2651 -950 2463 -1092 
Q 2276 -1234 1907 -1234 
Q 1764 -1234 1628 -1215 
Q 1492 -1197 1357 -1159 
L 1357 -750 
Q 1464 -803 1579 -826 
Q 1695 -850 1842 -850 
Q 2026 -850 2120 -775 
Q 2214 -700 2214 -556 
Q 2214 -463 2146 -327 
Q 2079 -191 1939 0 
L 2311 0 
z
" transform="scale(0.015625)"/>
       <path id="DejaVuSans-f5" d="M 1959 3097 
Q 1497 3097 1228 2736 
Q 959 2375 959 1747 
Q 959 1119 1226 758 
Q 1494 397 1959 397 
Q 2419 397 2687 759 
Q 2956 1122 2956 1747 
Q 2956 2369 2687 2733 
Q 2419 3097 1959 3097 
z
M 1959 3584 
Q 2709 3584 3137 3096 
Q 3566 2609 3566 1747 
Q 3566 888 3137 398 
Q 2709 -91 1959 -91 
Q 1206 -91 779 398 
Q 353 888 353 1747 
Q 353 2609 779 3096 
Q 1206 3584 1959 3584 
z
M 1948 4281 
L 1769 4453 
Q 1701 4516 1649 4545 
Q 1598 4575 1557 4575 
Q 1438 4575 1382 4461 
Q 1326 4347 1319 4091 
L 929 4091 
Q 935 4513 1094 4742 
Q 1254 4972 1538 4972 
Q 1657 4972 1757 4928 
Q 1857 4884 1973 4781 
L 2151 4609 
Q 2219 4547 2271 4517 
Q 2323 4488 2363 4488 
Q 2482 4488 2538 4602 
Q 2594 4716 2601 4972 
L 2991 4972 
Q 2985 4550 2825 4320 
Q 2666 4091 2382 4091 
Q 2263 4091 2163 4134 
Q 2063 4178 1948 4281 
z
" transform="scale(0.015625)"/>
      </defs>
      <use xlink:href="#DejaVuSans-52"/>
      <use xlink:href="#DejaVuSans-65" x="64.982422"/>
      <use xlink:href="#DejaVuSans-71" x="126.505859"/>
      <use xlink:href="#DejaVuSans-75" x="189.982422"/>
      <use xlink:href="#DejaVuSans-69" x="253.361328"/>
      <use xlink:href="#DejaVuSans-73" x="281.144531"/>
      <use xlink:href="#DejaVuSans-69" x="333.244141"/>
      <use xlink:href="#DejaVuSans-e7" x="361.027344"/>
      <use xlink:href="#DejaVuSans-f5" x="416.007812"/>
      <use xlink:href="#DejaVuSans-65" x="477.189453"/>
      <use xlink:href="#DejaVuSans-73" x="538.712891"/>
     </g>
    </g>
   </g>
   <g id="matplotlib.axis_2">
    <g id="ytick_1">
     <g id="line2d_7">
      <defs>
       <path id="m2471dafb7a" d="M 0 0 
L -3.5 0 
" style="stroke: #000000; stroke-width: 0.8"/>
      </defs>
      <g>
       <use xlink:href="#m2471dafb7a" x="57.6" y="288.862831" style="stroke: #000000; stroke-width: 0.8"/>
      </g>
     </g>
     <g id="text_8">
      <!-- 0.725 -->
      <g transform="translate(21.971875 292.662049) scale(0.1 -0.1)">
       <defs>
        <path id="DejaVuSans-2e" d="M 684 794 
L 1344 794 
L 1344 0 
L 684 0 
L 684 794 
z
" transform="scale(0.015625)"/>
        <path id="DejaVuSans-37" d="M 525 4666 
L 3525 4666 
L 3525 4397 
L 1831 0 
L 1172 0 
L 2766 4134 
L 525 4134 
L 525 4666 
z
" transform="scale(0.015625)"/>
        <path id="DejaVuSans-35" d="M 691 4666 
L 3169 4666 
L 3169 4134 
L 1269 4134 
L 1269 2991 
Q 1406 3038 1543 3061 
Q 1681 3084 1819 3084 
Q 2600 3084 3056 2656 
Q 3513 2228 3513 1497 
Q 3513 744 3044 326 
Q 2575 -91 1722 -91 
Q 1428 -91 1123 -41 
Q 819 9 494 109 
L 494 744 
Q 775 591 1075 516 
Q 1375 441 1709 441 
Q 2250 441 2565 725 
Q 2881 1009 2881 1497 
Q 2881 1984 2565 2268 
Q 2250 2553 1709 2553 
Q 1456 2553 1204 2497 
Q 953 2441 691 2322 
L 691 4666 
z
" transform="scale(0.015625)"/>
       </defs>
       <use xlink:href="#DejaVuSans-30"/>
       <use xlink:href="#DejaVuSans-2e" x="63.623047"/>
       <use xlink:href="#DejaVuSans-37" x="95.410156"/>
       <use xlink:href="#DejaVuSans-32" x="159.033203"/>
       <use xlink:href="#DejaVuSans-35" x="222.65625"/>
      </g>
     </g>
    </g>
    <g id="ytick_2">
     <g id="line2d_8">
      <g>
       <use xlink:href="#m2471dafb7a" x="57.6" y="257.97338" style="stroke: #000000; stroke-width: 0.8"/>
      </g>
     </g>
     <g id="text_9">
      <!-- 0.750 -->
      <g transform="translate(21.971875 261.772599) scale(0.1 -0.1)">
       <use xlink:href="#DejaVuSans-30"/>
       <use xlink:href="#DejaVuSans-2e" x="63.623047"/>
       <use xlink:href="#DejaVuSans-37" x="95.410156"/>
       <use xlink:href="#DejaVuSans-35" x="159.033203"/>
       <use xlink:href="#DejaVuSans-30" x="222.65625"/>
      </g>
     </g>
    </g>
    <g id="ytick_3">
     <g id="line2d_9">
      <g>
       <use xlink:href="#m2471dafb7a" x="57.6" y="227.083929" style="stroke: #000000; stroke-width: 0.8"/>
      </g>
     </g>
     <g id="text_10">
      <!-- 0.775 -->
      <g transform="translate(21.971875 230.883148) scale(0.1 -0.1)">
       <use xlink:href="#DejaVuSans-30"/>
       <use xlink:href="#DejaVuSans-2e" x="63.623047"/>
       <use xlink:href="#DejaVuSans-37" x="95.410156"/>
       <use xlink:href="#DejaVuSans-37" x="159.033203"/>
       <use xlink:href="#DejaVuSans-35" x="222.65625"/>
      </g>
     </g>
    </g>
    <g id="ytick_4">
     <g id="line2d_10">
      <g>
       <use xlink:href="#m2471dafb7a" x="57.6" y="196.194479" style="stroke: #000000; stroke-width: 0.8"/>
      </g>
     </g>
     <g id="text_11">
      <!-- 0.800 -->
      <g transform="translate(21.971875 199.993697) scale(0.1 -0.1)">
       <use xlink:href="#DejaVuSans-30"/>
       <use xlink:href="#DejaVuSans-2e" x="63.623047"/>
       <use xlink:href="#DejaVuSans-38" x="95.410156"/>
       <use xlink:href="#DejaVuSans-30" x="159.033203"/>
       <use xlink:href="#DejaVuSans-30" x="222.65625"/>
      </g>
     </g>
    </g>
    <g id="ytick_5">
     <g id="line2d_11">
      <g>
       <use xlink:href="#m2471dafb7a" x="57.6" y="165.305028" style="stroke: #000000; stroke-width: 0.8"/>
      </g>
     </g>
     <g id="text_12">
      <!-- 0.825 -->
      <g transform="translate(21.971875 169.104247) scale(0.1 -0.1)">
       <use xlink:href="#DejaVuSans-30"/>
       <use xlink:href="#DejaVuSans-2e" x="63.623047"/>
       <use xlink:href="#DejaVuSans-38" x="95.410156"/>
       <use xlink:href="#DejaVuSans-32" x="159.033203"/>
       <use xlink:href="#DejaVuSans-35" x="222.65625"/>
      </g>
     </g>
    </g>
    <g id="ytick_6">
     <g id="line2d_12">
      <g>
       <use xlink:href="#m2471dafb7a" x="57.6" y="134.415577" style="stroke: #000000; stroke-width: 0.8"/>
      </g>
     </g>
     <g id="text_13">
      <!-- 0.850 -->
      <g transform="translate(21.971875 138.214796) scale(0.1 -0.1)">
       <use xlink:href="#DejaVuSans-30"/>
       <use xlink:href="#DejaVuSans-2e" x="63.623047"/>
       <use xlink:href="#DejaVuSans-38" x="95.410156"/>
       <use xlink:href="#DejaVuSans-35" x="159.033203"/>
       <use xlink:href="#DejaVuSans-30" x="222.65625"/>
      </g>
     </g>
    </g>
    <g id="ytick_7">
     <g id="line2d_13">
      <g>
       <use xlink:href="#m2471dafb7a" x="57.6" y="103.526126" style="stroke: #000000; stroke-width: 0.8"/>
      </g>
     </g>
     <g id="text_14">
      <!-- 0.875 -->
      <g transform="translate(21.971875 107.325345) scale(0.1 -0.1)">
       <use xlink:href="#DejaVuSans-30"/>
       <use xlink:href="#DejaVuSans-2e" x="63.623047"/>
       <use xlink:href="#DejaVuSans-38" x="95.410156"/>
       <use xlink:href="#DejaVuSans-37" x="159.033203"/>
       <use xlink:href="#DejaVuSans-35" x="222.65625"/>
      </g>
     </g>
    </g>
    <g id="ytick_8">
     <g id="line2d_14">
      <g>
       <use xlink:href="#m2471dafb7a" x="57.6" y="72.636676" style="stroke: #000000; stroke-width: 0.8"/>
      </g>
     </g>
     <g id="text_15">
      <!-- 0.900 -->
      <g transform="translate(21.971875 76.435894) scale(0.1 -0.1)">
       <defs>
        <path id="DejaVuSans-39" d="M 703 97 
L 703 672 
Q 941 559 1184 500 
Q 1428 441 1663 441 
Q 2288 441 2617 861 
Q 2947 1281 2994 2138 
Q 2813 1869 2534 1725 
Q 2256 1581 1919 1581 
Q 1219 1581 811 2004 
Q 403 2428 403 3163 
Q 403 3881 828 4315 
Q 1253 4750 1959 4750 
Q 2769 4750 3195 4129 
Q 3622 3509 3622 2328 
Q 3622 1225 3098 567 
Q 2575 -91 1691 -91 
Q 1453 -91 1209 -44 
Q 966 3 703 97 
z
M 1959 2075 
Q 2384 2075 2632 2365 
Q 2881 2656 2881 3163 
Q 2881 3666 2632 3958 
Q 2384 4250 1959 4250 
Q 1534 4250 1286 3958 
Q 1038 3666 1038 3163 
Q 1038 2656 1286 2365 
Q 1534 2075 1959 2075 
z
" transform="scale(0.015625)"/>
       </defs>
       <use xlink:href="#DejaVuSans-30"/>
       <use xlink:href="#DejaVuSans-2e" x="63.623047"/>
       <use xlink:href="#DejaVuSans-39" x="95.410156"/>
       <use xlink:href="#DejaVuSans-30" x="159.033203"/>
       <use xlink:href="#DejaVuSans-30" x="222.65625"/>
      </g>
     </g>
    </g>
    <g id="ytick_9">
     <g id="line2d_15">
      <g>
       <use xlink:href="#m2471dafb7a" x="57.6" y="41.747225" style="stroke: #000000; stroke-width: 0.8"/>
      </g>
     </g>
     <g id="text_16">
      <!-- 0.925 -->
      <g transform="translate(21.971875 45.546444) scale(0.1 -0.1)">
       <use xlink:href="#DejaVuSans-30"/>
       <use xlink:href="#DejaVuSans-2e" x="63.623047"/>
       <use xlink:href="#DejaVuSans-39" x="95.410156"/>
       <use xlink:href="#DejaVuSans-32" x="159.033203"/>
       <use xlink:href="#DejaVuSans-35" x="222.65625"/>
      </g>
     </g>
    </g>
    <g id="text_17">
     <!-- Tempo -->
     <g transform="translate(15.892187 190.912375) rotate(-90) scale(0.1 -0.1)">
      <defs>
       <path id="DejaVuSans-54" d="M -19 4666 
L 3928 4666 
L 3928 4134 
L 2272 4134 
L 2272 0 
L 1638 0 
L 1638 4134 
L -19 4134 
L -19 4666 
z
" transform="scale(0.015625)"/>
       <path id="DejaVuSans-6d" d="M 3328 2828 
Q 3544 3216 3844 3400 
Q 4144 3584 4550 3584 
Q 5097 3584 5394 3201 
Q 5691 2819 5691 2113 
L 5691 0 
L 5113 0 
L 5113 2094 
Q 5113 2597 4934 2840 
Q 4756 3084 4391 3084 
Q 3944 3084 3684 2787 
Q 3425 2491 3425 1978 
L 3425 0 
L 2847 0 
L 2847 2094 
Q 2847 2600 2669 2842 
Q 2491 3084 2119 3084 
Q 1678 3084 1418 2786 
Q 1159 2488 1159 1978 
L 1159 0 
L 581 0 
L 581 3500 
L 1159 3500 
L 1159 2956 
Q 1356 3278 1631 3431 
Q 1906 3584 2284 3584 
Q 2666 3584 2933 3390 
Q 3200 3197 3328 2828 
z
" transform="scale(0.015625)"/>
       <path id="DejaVuSans-70" d="M 1159 525 
L 1159 -1331 
L 581 -1331 
L 581 3500 
L 1159 3500 
L 1159 2969 
Q 1341 3281 1617 3432 
Q 1894 3584 2278 3584 
Q 2916 3584 3314 3078 
Q 3713 2572 3713 1747 
Q 3713 922 3314 415 
Q 2916 -91 2278 -91 
Q 1894 -91 1617 61 
Q 1341 213 1159 525 
z
M 3116 1747 
Q 3116 2381 2855 2742 
Q 2594 3103 2138 3103 
Q 1681 3103 1420 2742 
Q 1159 2381 1159 1747 
Q 1159 1113 1420 752 
Q 1681 391 2138 391 
Q 2594 391 2855 752 
Q 3116 1113 3116 1747 
z
" transform="scale(0.015625)"/>
       <path id="DejaVuSans-6f" d="M 1959 3097 
Q 1497 3097 1228 2736 
Q 959 2375 959 1747 
Q 959 1119 1226 758 
Q 1494 397 1959 397 
Q 2419 397 2687 759 
Q 2956 1122 2956 1747 
Q 2956 2369 2687 2733 
Q 2419 3097 1959 3097 
z
M 1959 3584 
Q 2709 3584 3137 3096 
Q 3566 2609 3566 1747 
Q 3566 888 3137 398 
Q 2709 -91 1959 -91 
Q 1206 -91 779 398 
Q 353 888 353 1747 
Q 353 2609 779 3096 
Q 1206 3584 1959 3584 
z
" transform="scale(0.015625)"/>
      </defs>
      <use xlink:href="#DejaVuSans-54"/>
      <use xlink:href="#DejaVuSans-65" x="44.083984"/>
      <use xlink:href="#DejaVuSans-6d" x="105.607422"/>
      <use xlink:href="#DejaVuSans-70" x="203.019531"/>
      <use xlink:href="#DejaVuSans-6f" x="266.496094"/>
     </g>
    </g>
   </g>
   <g id="line2d_16">
    <path d="M 73.832727 53.568 
L 74.157707 54.831379 
L 74.482686 82.461992 
L 75.457625 255.822239 
L 75.782604 279.088349 
L 76.107584 272.802324 
L 76.432563 261.104609 
L 76.757543 280.719383 
L 77.407502 243.548006 
L 78.382441 280.134296 
L 78.70742 285.617894 
L 79.0324 294.483984 
L 79.357379 286.283424 
L 79.682359 293.321121 
L 80.007338 284.449161 
L 80.657297 295.488 
L 81.307256 286.201807 
L 81.632236 278.353597 
L 81.957215 278.059221 
L 82.282195 268.771142 
L 82.607174 274.401316 
L 82.932154 265.250934 
L 83.257133 259.565134 
L 83.582113 264.692692 
L 83.907093 261.118042 
L 84.232072 265.932225 
L 85.207011 248.529171 
L 85.53199 244.644832 
L 85.85697 250.528567 
L 86.181949 245.63946 
L 86.506929 243.680152 
L 86.831908 246.375491 
L 87.156888 241.218206 
L 87.806847 250.848869 
L 88.456806 259.338291 
L 88.781785 260.335884 
L 89.106765 263.988045 
L 89.431744 266.273842 
L 90.081704 261.279787 
L 90.406683 259.3333 
L 90.731663 262.714339 
L 91.056642 264.643694 
L 91.706601 256.638029 
L 92.031581 254.494816 
L 92.35656 256.481036 
L 93.331499 264.498711 
L 93.656478 261.947218 
L 94.306437 255.511568 
L 94.631417 254.106857 
L 94.956396 255.60137 
L 95.281376 254.231183 
L 95.606355 257.429453 
L 95.931335 258.249648 
L 96.256314 254.626464 
L 96.581294 257.477878 
L 96.906274 256.313398 
L 97.231253 257.055532 
L 97.556233 255.621474 
L 98.531171 260.480624 
L 98.856151 257.131935 
L 99.50611 261.277316 
L 100.156069 256.512565 
L 100.481048 257.506376 
L 100.806028 255.822268 
L 101.131007 254.861337 
L 101.455987 255.628842 
L 101.780966 256.958516 
L 102.105946 255.592126 
L 102.430925 253.515123 
L 102.755905 252.682745 
L 104.055823 248.415382 
L 104.380803 249.631004 
L 105.030762 246.268163 
L 105.355741 245.219744 
L 105.680721 242.705779 
L 106.33068 240.817098 
L 106.655659 239.072246 
L 106.980639 240.38645 
L 107.305618 241.000149 
L 107.955577 240.029663 
L 108.280557 240.716708 
L 108.605536 239.618537 
L 108.930516 240.62286 
L 109.255495 238.600449 
L 109.905455 241.024702 
L 110.230434 243.051228 
L 110.555414 242.213506 
L 110.880393 243.529022 
L 111.530352 241.261849 
L 111.855332 241.945619 
L 112.180311 243.545431 
L 112.505291 244.531074 
L 112.83027 243.042451 
L 113.15525 244.906413 
L 113.805209 247.501328 
L 114.130188 246.369908 
L 114.455168 247.467358 
L 114.780147 247.996866 
L 115.105127 246.574313 
L 115.430106 244.480054 
L 116.080066 242.80184 
L 116.730025 244.123535 
L 117.055004 242.978967 
L 117.704963 244.861499 
L 118.029943 244.070331 
L 118.679902 247.380272 
L 119.004881 248.269724 
L 119.329861 249.532761 
L 119.65484 248.501482 
L 119.97982 249.354402 
L 120.304799 247.799047 
L 120.629779 248.92347 
L 121.279738 249.24761 
L 121.604717 250.430619 
L 121.929697 249.417732 
L 122.254676 249.89994 
L 122.579656 249.223057 
L 122.904636 250.365381 
L 123.229615 249.920803 
L 123.554595 250.525957 
L 123.879574 249.392825 
L 124.529533 251.010315 
L 124.854513 250.368984 
L 125.179492 251.127345 
L 125.504472 249.994975 
L 125.829451 250.725303 
L 126.80439 248.985077 
L 127.129369 247.597003 
L 127.454349 248.771584 
L 127.779328 249.398202 
L 128.429287 247.413326 
L 128.754267 247.010765 
L 129.079247 248.137189 
L 129.404226 247.301017 
L 130.054185 249.189989 
L 130.379165 249.541287 
L 131.029124 248.274127 
L 131.354103 248.76039 
L 131.679083 247.73284 
L 132.004062 247.450744 
L 132.329042 246.959178 
L 132.654021 247.638571 
L 132.979001 246.871333 
L 133.30398 247.833307 
L 133.953939 246.065556 
L 134.278919 247.016049 
L 134.928878 247.729183 
L 135.253857 246.795314 
L 135.578837 247.372095 
L 136.228796 245.144168 
L 136.553776 246.409166 
L 136.878755 246.177912 
L 137.203735 246.79387 
L 137.528714 247.727428 
L 137.853694 247.327814 
L 138.178673 248.029224 
L 138.503653 246.953346 
L 138.828632 247.82854 
L 139.478591 246.686375 
L 140.12855 248.505694 
L 140.45353 248.93028 
L 140.778509 248.119705 
L 141.428468 249.167415 
L 141.753448 249.762817 
L 142.403407 248.648251 
L 142.728387 247.355083 
L 143.053366 248.190541 
L 143.703325 247.257195 
L 144.028305 246.878823 
L 144.678264 247.728277 
L 145.328223 249.311083 
L 146.303161 247.632375 
L 146.95312 248.820098 
L 147.928059 247.008952 
L 148.253038 247.277948 
L 148.578018 247.897177 
L 148.902998 248.167199 
L 149.227977 247.671242 
L 149.552957 248.272403 
L 149.877936 248.054559 
L 150.202916 247.606472 
L 151.177854 244.559335 
L 151.827813 245.843454 
L 152.152793 245.327024 
L 152.477772 244.087685 
L 152.802752 244.753374 
L 153.127731 244.500814 
L 153.452711 244.050153 
L 153.77769 243.174462 
L 154.10267 243.251458 
L 154.427649 243.513336 
L 155.727568 245.91679 
L 156.052547 246.205832 
L 157.027486 248.425693 
L 157.352465 248.58428 
L 157.677445 247.695546 
L 158.002424 247.480162 
L 158.327404 248.077498 
L 158.652383 247.435767 
L 158.977363 248.08115 
L 159.302342 248.381288 
L 159.952301 247.497611 
L 160.277281 246.631107 
L 161.577199 249.044095 
L 161.902179 248.461432 
L 162.227158 249.364891 
L 162.552138 249.7511 
L 162.877117 249.213734 
L 163.202097 249.652872 
L 163.527076 249.07356 
L 164.177035 250.526649 
L 164.502015 250.302488 
L 164.826994 251.159343 
L 165.151974 250.894026 
L 165.476953 251.370263 
L 165.801933 251.000613 
L 166.451892 249.873531 
L 166.776871 249.575828 
L 167.101851 250.437813 
L 167.42683 249.627726 
L 167.75181 250.062515 
L 168.07679 250.916268 
L 168.401769 250.37452 
L 168.726749 251.200565 
L 169.051728 250.870908 
L 169.376708 251.715583 
L 169.701687 251.849705 
L 170.026667 251.558983 
L 170.351646 252.176686 
L 170.676626 252.528142 
L 171.001605 253.301367 
L 171.326585 253.677468 
L 171.651564 253.449233 
L 171.976544 252.832935 
L 172.626503 252.320311 
L 172.951482 251.67664 
L 173.276462 251.425927 
L 173.601441 251.978428 
L 173.926421 251.182623 
L 174.2514 251.784904 
L 174.57638 252.112183 
L 174.90136 251.853772 
L 175.226339 251.448478 
L 175.551319 251.858693 
L 175.876298 251.550257 
L 176.201278 252.301952 
L 176.526257 252.528799 
L 176.851237 252.945428 
L 177.176216 252.645633 
L 177.501196 252.111825 
L 178.151155 253.209398 
L 178.801114 252.804427 
L 179.126093 253.12163 
L 179.451073 252.562769 
L 179.776052 251.687416 
L 180.101032 251.916689 
L 180.426011 251.694349 
L 180.750991 251.231636 
L 181.075971 251.647105 
L 181.40095 251.455378 
L 181.72593 252.180972 
L 182.375889 251.69505 
L 182.700868 251.444269 
L 183.025848 250.86276 
L 183.350827 250.616109 
L 183.675807 250.820816 
L 184.000786 251.501153 
L 184.975725 250.223028 
L 185.300704 250.581337 
L 185.625684 250.240012 
L 186.275643 249.282563 
L 186.600622 248.847525 
L 186.925602 249.125901 
L 187.250581 248.658753 
L 187.575561 248.734808 
L 188.875479 247.609644 
L 189.200459 247.943374 
L 189.525438 247.201666 
L 190.500377 248.964293 
L 190.825356 249.445256 
L 191.150336 249.262319 
L 191.475315 248.873821 
L 191.800295 248.689973 
L 192.125274 248.185723 
L 192.450254 248.653357 
L 192.775233 248.220094 
L 193.100213 248.016102 
L 193.425192 247.652982 
L 194.075152 248.01186 
L 194.400131 248.68637 
L 194.725111 249.070805 
L 195.05009 248.675203 
L 195.37507 248.863084 
L 195.700049 248.378512 
L 196.025029 248.176993 
L 196.350008 248.207718 
L 196.674988 248.388108 
L 196.999967 248.241782 
L 197.324947 247.606543 
L 197.974906 248.184792 
L 198.299885 247.710662 
L 198.624865 247.74393 
L 198.949844 248.150948 
L 199.274824 247.711837 
L 199.599803 247.036483 
L 199.924783 246.810752 
L 200.249762 247.452522 
L 200.574742 247.673826 
L 200.899722 247.513726 
L 201.224701 246.8968 
L 201.549681 247.251921 
L 201.87466 247.848031 
L 202.19964 247.619688 
L 202.524619 248.060745 
L 202.849599 247.924259 
L 204.149517 249.261756 
L 204.474496 249.037536 
L 204.799476 249.629674 
L 205.449435 249.117837 
L 206.424373 250.389127 
L 206.749353 249.979169 
L 207.399312 250.667311 
L 207.724292 250.371745 
L 208.049271 250.794543 
L 208.374251 250.325667 
L 209.02421 250.836604 
L 209.349189 250.647531 
L 209.674169 250.275714 
L 209.999148 249.725932 
L 210.324128 250.082486 
L 210.649107 249.904742 
L 211.299066 248.878121 
L 211.949025 248.22589 
L 212.274005 248.681772 
L 212.598984 248.364515 
L 213.248943 248.896154 
L 213.898903 248.546329 
L 214.223882 248.88765 
L 214.548862 249.40207 
L 214.873841 249.200449 
L 215.198821 249.437196 
L 215.5238 249.223737 
L 216.498739 249.943358 
L 216.823718 249.948662 
L 217.148698 250.118316 
L 218.123636 248.993157 
L 219.423554 250.613837 
L 220.073514 251.171928 
L 220.398493 251.380038 
L 220.723473 251.901572 
L 221.048452 251.606691 
L 221.373432 251.865516 
L 221.698411 251.710419 
L 222.34837 252.208623 
L 222.67335 252.017307 
L 223.648288 252.749851 
L 224.298247 251.998868 
L 224.623227 251.935955 
L 224.948206 252.28025 
L 225.273186 252.394182 
L 225.598165 252.679987 
L 226.248124 253.511085 
L 226.573104 253.236572 
L 226.898084 253.467041 
L 227.223063 253.078372 
L 227.548043 253.308966 
L 227.873022 253.691436 
L 228.198002 253.212988 
L 228.522981 253.568549 
L 228.847961 253.418065 
L 229.49792 252.837713 
L 230.147879 253.595586 
L 230.472858 253.619111 
L 230.797838 253.88669 
L 231.122817 253.721473 
L 232.422735 254.204637 
L 232.747715 254.641011 
L 233.072695 254.290834 
L 234.047633 253.750377 
L 234.697592 254.101885 
L 235.022572 253.925753 
L 235.99751 252.774594 
L 236.32249 252.305705 
L 236.647469 252.558144 
L 236.972449 252.355794 
L 237.622408 252.938302 
L 237.947387 252.494917 
L 238.272367 252.829569 
L 239.247305 251.953125 
L 239.572285 252.183319 
L 240.222244 252.881202 
L 240.872203 252.470708 
L 241.522162 251.924654 
L 242.172121 252.605329 
L 242.497101 252.482001 
L 242.82208 252.807881 
L 243.14706 252.401669 
L 243.472039 252.777025 
L 244.121998 253.07588 
L 245.096937 252.091584 
L 246.071876 252.799661 
L 246.396855 252.661203 
L 247.046814 252.235423 
L 247.371794 252.686205 
L 247.696773 252.326088 
L 248.021753 252.537163 
L 248.671712 252.015182 
L 249.321671 252.374994 
L 250.296609 251.812777 
L 250.946568 252.143592 
L 251.271548 251.834023 
L 251.921507 252.366664 
L 252.246486 252.022629 
L 252.571466 252.348739 
L 252.896446 252.113593 
L 253.871384 252.978299 
L 254.521343 252.414927 
L 254.846323 252.845169 
L 255.171302 252.575164 
L 255.496282 252.670508 
L 255.821261 252.501285 
L 256.7962 253.124325 
L 257.446159 252.467738 
L 257.771138 252.652619 
L 258.096118 252.331924 
L 258.421097 252.573231 
L 258.746077 252.355831 
L 259.071057 252.562401 
L 259.721016 251.78937 
L 260.045995 251.459484 
L 261.020934 251.806276 
L 261.670893 252.254493 
L 261.995872 252.671385 
L 263.62077 251.387789 
L 263.945749 251.622627 
L 264.270729 251.561361 
L 264.920688 250.950969 
L 265.895627 250.16158 
L 266.220606 250.250069 
L 266.545586 249.957511 
L 266.870565 250.156686 
L 267.520524 249.540539 
L 268.495463 248.786647 
L 268.820442 248.795786 
L 269.145422 249.086586 
L 269.470401 248.413598 
L 270.44534 247.909528 
L 271.095299 247.469353 
L 271.420278 247.358661 
L 271.745258 247.668673 
L 273.370156 247.262727 
L 273.695135 246.936399 
L 274.020115 247.223244 
L 274.670074 246.788928 
L 274.995053 246.643933 
L 275.320033 246.315335 
L 275.645012 246.181035 
L 276.619951 246.897453 
L 276.94493 246.755747 
L 277.26991 247.039549 
L 278.244848 246.242006 
L 278.569828 246.52777 
L 279.219787 246.207652 
L 280.194726 245.544774 
L 280.519705 245.846595 
L 280.844685 245.973994 
L 281.169664 245.646238 
L 281.819623 246.097792 
L 282.469582 245.59892 
L 282.794562 245.858746 
L 283.444521 245.919886 
L 283.7695 245.727925 
L 284.09448 245.932624 
L 284.419459 245.697678 
L 284.744439 245.886655 
L 285.069419 245.778253 
L 285.394398 246.050526 
L 285.719378 245.694815 
L 286.369337 245.604335 
L 286.694316 245.269604 
L 287.019296 245.52057 
L 287.344275 245.436084 
L 287.994234 245.892974 
L 288.319214 243.908115 
L 288.644193 244.204287 
L 288.969173 244.348939 
L 289.294152 244.231465 
L 289.619132 244.366145 
L 289.944111 244.736202 
L 290.269091 244.34765 
L 290.91905 244.54748 
L 291.244029 244.91107 
L 291.569009 245.034366 
L 291.893989 245.31188 
L 292.218968 243.477773 
L 292.543948 243.746969 
L 293.518886 243.221358 
L 294.168845 242.978094 
L 294.818804 242.541593 
L 295.468763 242.940464 
L 295.793743 242.820941 
L 296.768681 242.014633 
L 297.41864 242.383905 
L 297.74362 242.125165 
L 298.393579 242.36977 
L 298.718559 242.702092 
L 299.368518 242.546794 
L 300.018477 243.133698 
L 300.343456 242.854739 
L 300.668436 242.996624 
L 300.993415 243.2767 
L 301.318395 243.336613 
L 301.968354 243.136403 
L 303.593251 244.437685 
L 304.24321 244.907153 
L 304.56819 244.651576 
L 304.89317 244.900246 
L 305.218149 244.639935 
L 305.543129 244.889631 
L 305.868108 244.627281 
L 306.193088 244.885896 
L 306.518067 244.739252 
L 306.843047 244.464014 
L 308.142965 245.50009 
L 308.792924 245.153739 
L 309.442883 244.654371 
L 310.092842 245.078601 
L 310.417821 244.930254 
L 310.742801 245.022508 
L 311.067781 244.637729 
L 311.39276 244.707931 
L 312.042719 245.308392 
L 312.367699 245.05831 
L 312.692678 245.230822 
L 313.342637 244.899883 
L 313.992596 244.725591 
L 314.317576 245.032064 
L 315.292514 244.529559 
L 315.617494 244.789197 
L 316.267453 244.52664 
L 317.242391 244.218428 
L 317.567371 244.011659 
L 318.21733 244.592692 
L 319.192269 243.844991 
L 319.517248 243.663271 
L 319.842228 243.860802 
L 320.167207 243.639342 
L 320.492187 243.741756 
L 321.467125 243.087567 
L 322.117084 243.321498 
L 322.442064 243.153654 
L 322.767043 243.458267 
L 323.092023 243.355237 
L 323.741982 242.974547 
L 324.066962 243.229929 
L 324.716921 243.434181 
L 325.0419 243.68569 
L 325.36688 243.611895 
L 326.341818 243.014229 
L 327.316757 242.538019 
L 327.641736 242.186131 
L 328.941654 242.661869 
L 329.266634 242.455025 
L 330.241572 243.072949 
L 331.541491 242.231859 
L 331.86647 242.479419 
L 332.19145 242.263275 
L 332.516429 242.338673 
L 332.841409 242.18565 
L 333.166388 242.17596 
L 334.141327 242.934234 
L 334.466306 242.87922 
L 334.791286 243.082722 
L 335.116265 242.975575 
L 336.416183 244.008104 
L 336.741163 243.905163 
L 337.066143 244.145688 
L 337.716102 243.91759 
L 338.041081 242.509667 
L 338.69104 242.112454 
L 339.340999 242.39452 
L 339.665979 242.630794 
L 340.965897 242.179373 
L 342.265815 242.97644 
L 342.590794 243.096483 
L 342.915774 242.861119 
L 343.565733 243.174569 
L 343.890713 243.27594 
L 344.215692 243.008597 
L 344.540672 243.127089 
L 344.865651 242.993759 
L 345.84059 243.277173 
L 346.165569 243.015835 
L 346.815528 243.356292 
L 347.465487 243.080907 
L 348.115446 243.399132 
L 348.765405 243.069528 
L 349.090385 243.209091 
L 349.740344 242.648578 
L 350.065324 242.770799 
L 350.390303 242.713993 
L 351.690221 243.529197 
L 352.015201 243.647602 
L 352.990139 244.391334 
L 353.315119 244.197898 
L 353.640098 244.361402 
L 354.290057 244.167938 
L 354.940016 243.931688 
L 355.264996 243.840421 
L 355.589975 244.017324 
L 355.914955 243.872565 
L 356.239934 244.046885 
L 356.564914 243.835239 
L 357.539853 244.571086 
L 358.189812 244.34458 
L 358.514791 244.044182 
L 359.48973 243.695196 
L 359.814709 243.907691 
L 360.139689 243.724118 
L 360.789648 243.975596 
L 361.114627 244.19303 
L 361.439607 243.97433 
L 361.764586 244.182826 
L 362.089566 243.926809 
L 362.739525 243.635859 
L 363.064505 243.335197 
L 363.389484 243.45705 
L 364.364423 242.909897 
L 364.689402 243.113392 
L 365.014382 242.942331 
L 365.664341 243.054269 
L 365.98932 243.211211 
L 366.639279 242.818837 
L 366.964259 242.638579 
L 367.614218 243.033068 
L 367.939197 242.895293 
L 368.264177 242.998982 
L 368.589156 242.929476 
L 369.239115 243.300515 
L 369.564095 243.451756 
L 369.889075 243.270118 
L 370.539034 243.197793 
L 370.864013 243.313052 
L 371.513972 243.049701 
L 371.838952 243.009428 
L 372.163931 243.245245 
L 373.13887 242.851702 
L 374.438788 243.385068 
L 374.763767 243.159049 
L 375.088747 243.306071 
L 375.413726 243.584763 
L 375.738706 243.66266 
L 376.388665 243.366064 
L 376.713645 243.504442 
L 377.363604 243.238084 
L 378.663522 244.034924 
L 379.313481 243.658053 
L 380.288419 243.24183 
L 380.938378 243.430634 
L 381.263358 243.308507 
L 381.588337 243.502836 
L 381.913317 243.438533 
L 382.238296 243.635765 
L 382.563276 243.459726 
L 382.888256 243.707685 
L 384.188174 243.154821 
L 384.838133 243.48188 
L 385.163112 243.393541 
L 385.488092 243.583251 
L 385.813071 243.570738 
L 386.46303 244.017148 
L 386.78801 244.22301 
L 387.437969 243.795705 
L 387.762948 243.94328 
L 388.087928 243.827562 
L 388.412907 243.972095 
L 388.737887 243.838772 
L 389.062867 244.032782 
L 390.037805 243.609217 
L 390.362785 243.302964 
L 391.012744 243.142829 
L 391.337723 242.977667 
L 391.662703 243.124567 
L 391.987682 243.059933 
L 392.637641 243.475247 
L 392.962621 243.541249 
L 393.2876 243.476427 
L 393.937559 243.681245 
L 394.262539 243.805938 
L 394.587518 243.605875 
L 394.912498 243.804817 
L 395.237477 243.760241 
L 395.562457 243.96861 
L 396.212416 243.689864 
L 396.537396 243.927151 
L 396.862375 243.704726 
L 397.187355 243.908671 
L 397.837314 243.614335 
L 398.487273 243.278323 
L 398.487273 243.278323 
" clip-path="url(#pabfea9f088)" style="fill: none; stroke: #1f77b4; stroke-width: 1.5; stroke-linecap: square"/>
   </g>
   <g id="patch_3">
    <path d="M 57.6 307.584 
L 57.6 41.472 
" style="fill: none; stroke: #000000; stroke-width: 0.8; stroke-linejoin: miter; stroke-linecap: square"/>
   </g>
   <g id="patch_4">
    <path d="M 414.72 307.584 
L 414.72 41.472 
" style="fill: none; stroke: #000000; stroke-width: 0.8; stroke-linejoin: miter; stroke-linecap: square"/>
   </g>
   <g id="patch_5">
    <path d="M 57.6 307.584 
L 414.72 307.584 
" style="fill: none; stroke: #000000; stroke-width: 0.8; stroke-linejoin: miter; stroke-linecap: square"/>
   </g>
   <g id="patch_6">
    <path d="M 57.6 41.472 
L 414.72 41.472 
" style="fill: none; stroke: #000000; stroke-width: 0.8; stroke-linejoin: miter; stroke-linecap: square"/>
   </g>
   <g id="text_18">
    <!-- Tempo x Requisição -->
    <g transform="translate(176.824687 35.472) scale(0.12 -0.12)">
     <defs>
      <path id="DejaVuSans-20" transform="scale(0.015625)"/>
      <path id="DejaVuSans-78" d="M 3513 3500 
L 2247 1797 
L 3578 0 
L 2900 0 
L 1881 1375 
L 863 0 
L 184 0 
L 1544 1831 
L 300 3500 
L 978 3500 
L 1906 2253 
L 2834 3500 
L 3513 3500 
z
" transform="scale(0.015625)"/>
      <path id="DejaVuSans-e3" d="M 2194 1759 
Q 1497 1759 1228 1600 
Q 959 1441 959 1056 
Q 959 750 1161 570 
Q 1363 391 1709 391 
Q 2188 391 2477 730 
Q 2766 1069 2766 1631 
L 2766 1759 
L 2194 1759 
z
M 3341 1997 
L 3341 0 
L 2766 0 
L 2766 531 
Q 2569 213 2275 61 
Q 1981 -91 1556 -91 
Q 1019 -91 701 211 
Q 384 513 384 1019 
Q 384 1609 779 1909 
Q 1175 2209 1959 2209 
L 2766 2209 
L 2766 2266 
Q 2766 2663 2505 2880 
Q 2244 3097 1772 3097 
Q 1472 3097 1187 3025 
Q 903 2953 641 2809 
L 641 3341 
Q 956 3463 1253 3523 
Q 1550 3584 1831 3584 
Q 2591 3584 2966 3190 
Q 3341 2797 3341 1997 
z
M 1844 4281 
L 1665 4453 
Q 1597 4516 1545 4545 
Q 1494 4575 1453 4575 
Q 1334 4575 1278 4461 
Q 1222 4347 1215 4091 
L 825 4091 
Q 831 4513 990 4742 
Q 1150 4972 1434 4972 
Q 1553 4972 1653 4928 
Q 1753 4884 1869 4781 
L 2047 4609 
Q 2115 4547 2167 4517 
Q 2219 4488 2259 4488 
Q 2378 4488 2434 4602 
Q 2490 4716 2497 4972 
L 2887 4972 
Q 2881 4550 2721 4320 
Q 2562 4091 2278 4091 
Q 2159 4091 2059 4134 
Q 1959 4178 1844 4281 
z
" transform="scale(0.015625)"/>
     </defs>
     <use xlink:href="#DejaVuSans-54"/>
     <use xlink:href="#DejaVuSans-65" x="44.083984"/>
     <use xlink:href="#DejaVuSans-6d" x="105.607422"/>
     <use xlink:href="#DejaVuSans-70" x="203.019531"/>
     <use xlink:href="#DejaVuSans-6f" x="266.496094"/>
     <use xlink:href="#DejaVuSans-20" x="327.677734"/>
     <use xlink:href="#DejaVuSans-78" x="359.464844"/>
     <use xlink:href="#DejaVuSans-20" x="418.644531"/>
     <use xlink:href="#DejaVuSans-52" x="450.431641"/>
     <use xlink:href="#DejaVuSans-65" x="515.414062"/>
     <use xlink:href="#DejaVuSans-71" x="576.9375"/>
     <use xlink:href="#DejaVuSans-75" x="640.414062"/>
     <use xlink:href="#DejaVuSans-69" x="703.792969"/>
     <use xlink:href="#DejaVuSans-73" x="731.576172"/>
     <use xlink:href="#DejaVuSans-69" x="783.675781"/>
     <use xlink:href="#DejaVuSans-e7" x="811.458984"/>
     <use xlink:href="#DejaVuSans-e3" x="866.439453"/>
     <use xlink:href="#DejaVuSans-6f" x="927.71875"/>
    </g>
   </g>
  </g>
 </g>
 <defs>
  <clipPath id="pabfea9f088">
   <rect x="57.6" y="41.472" width="357.12" height="266.112"/>
  </clipPath>
 </defs>
</svg>
